<?xml version="1.0" encoding="UTF-8" standalone="no"?>
<!-- Created with Inkscape (http://www.inkscape.org/) -->

<svg
   width="200mm"
   height="35mm"
   viewBox="0 0 200.00001 34.999999"
   version="1.1"
   id="svg5"
   sodipodi:docname="dotted-line.svg"
   inkscape:version="1.2.2 (732a01da63, 2022-12-09)"
   xmlns:inkscape="http://www.inkscape.org/namespaces/inkscape"
   xmlns:sodipodi="http://sodipodi.sourceforge.net/DTD/sodipodi-0.dtd"
   xmlns="http://www.w3.org/2000/svg"
   xmlns:svg="http://www.w3.org/2000/svg">
  <sodipodi:namedview
     id="namedview7"
     pagecolor="#ffffff"
     bordercolor="#000000"
     borderopacity="0.25"
     inkscape:showpageshadow="2"
     inkscape:pageopacity="0.0"
     inkscape:pagecheckerboard="0"
     inkscape:deskcolor="#d1d1d1"
     inkscape:document-units="mm"
     showgrid="false"
     inkscape:zoom="1.207674"
     inkscape:cx="221.50017"
     inkscape:cy="210.32166"
     inkscape:window-width="1920"
     inkscape:window-height="1009"
     inkscape:window-x="-8"
     inkscape:window-y="-8"
     inkscape:window-maximized="1"
     inkscape:current-layer="layer1" />
  <defs
     id="defs2" />
  <g
     inkscape:label="Layer 1"
     inkscape:groupmode="layer"
     id="layer1"
     transform="translate(-6.2754999,-36.371617)">
    <path
       style="fill:none;fill-opacity:1;stroke:#ffffff;stroke-width:0.705707;stroke-linecap:round;stroke-linejoin:round;stroke-dasharray:5.64566, 3.52854;stroke-dashoffset:0;stroke-opacity:1"
       d="m 11.229132,61.642495 c 0,0 14.834656,-12.824027 28.420075,-12.661698 13.585421,0.162331 26.077761,8.928122 38.882409,12.012382 12.80465,3.08426 22.642364,-0.973978 22.642364,-4.382895 0,-3.408919 -3.435391,-6.16852 -6.71463,-5.681533 -3.279238,0.486988 -10.384522,8.420909 -1.210327,13.798006 9.174187,5.37709 28.225027,2.92193 37.594277,0.324658 9.36925,-2.597273 24.98468,-17.856241 34.04163,-19.479536 9.05694,-1.623294 9.05694,-1.623294 9.05694,-1.623294"
       id="path283"
       inkscape:export-filename="dotted-line.svg"
       inkscape:export-xdpi="96"
       inkscape:export-ydpi="96" />
    <path
       fill-rule="evenodd"
       clip-rule="evenodd"
       d="m 197.91559,42.548337 c 0.43929,0.329841 0.61045,0.206772 0.59834,0.631287 -0.77065,0.275309 -2.03207,0.164351 -3.07424,0.285153 -5.89021,0.68203 -11.3025,2.800818 -16.72654,4.459886 -0.61538,0.304086 -1.49281,0.836526 -2.0794,0.854331 -0.4533,-0.06936 0.0295,-0.530557 0,-0.759284 0.0413,-1.139111 0.12686,-2.032829 0.36165,-3.13218 -0.85661,-0.107542 -1.51478,0.220777 -2.62208,0.189733 0.0765,-0.873274 1.05845,-1.279612 1.80827,-1.898022 0.97741,-0.805099 1.71927,-2.163858 3.34538,-1.613231 0.23214,-0.651731 -0.43057,-0.822903 -0.81382,-0.85433 0.99029,-1.111856 2.77546,-1.389432 3.97819,-2.27785 3.38931,1.151988 7.21866,1.459107 10.57881,2.56262 1.63558,0.53775 2.54256,1.090262 4.64544,1.551887 z m -15.13375,-3.544191 c -1.03799,0.271137 -2.60995,0.803205 -3.34538,1.708289 1.72571,0.515775 4.47427,0.461243 6.87178,0.759273 3.02236,0.37605 6.39652,0.87933 9.50447,0.763828 -3.65024,-1.578016 -8.73648,-2.329721 -13.03087,-3.23139 z m -2.98373,2.277467 c -0.005,0.121175 -0.006,0.157529 0.0194,0.310908 1.72154,0.01553 4.33188,0.09472 5.65087,0.213955 -1.14592,-0.213583 -4.23417,-0.687703 -5.67019,-0.524863 z m 2.46795,0.624465 c -1.28869,-0.03488 -2.77847,-0.1814 -3.91418,0.03975 -1.23947,0.241604 -2.15287,1.701094 -3.07424,2.467572 5.12071,-0.447993 12.52947,-1.065264 17.8043,-1.815458 -2.57473,-0.362417 -7.85109,-0.611971 -10.81588,-0.691874 z m -4.63786,2.792113 c -0.0849,1.144783 -0.34386,2.106666 -0.36203,3.321519 5.9667,-1.782892 12.27422,-4.256136 19.00172,-4.927183 -6.05645,-0.285919 -13.08274,0.953922 -18.63969,1.605664 z"
       id="path2"
       style="fill:#ffffff;fill-opacity:1;stroke:#ffffff;stroke-width:0.378693;stroke-opacity:1" />
  </g>
</svg>
