<?xml version="1.0" encoding="UTF-8" standalone="no"?>
<!-- Created with Inkscape (http://www.inkscape.org/) -->

<svg
   width="200mm"
   height="25mm"
   viewBox="0 0 200.00001 24.999999"
   version="1.1"
   id="svg5"
   sodipodi:docname="dotted-line2.svg"
   inkscape:version="1.2.2 (732a01da63, 2022-12-09)"
   xmlns:inkscape="http://www.inkscape.org/namespaces/inkscape"
   xmlns:sodipodi="http://sodipodi.sourceforge.net/DTD/sodipodi-0.dtd"
   xmlns="http://www.w3.org/2000/svg"
   xmlns:svg="http://www.w3.org/2000/svg">
  <sodipodi:namedview
     id="namedview7"
     pagecolor="#ffffff"
     bordercolor="#000000"
     borderopacity="0.25"
     inkscape:showpageshadow="2"
     inkscape:pageopacity="0.0"
     inkscape:pagecheckerboard="0"
     inkscape:deskcolor="#d1d1d1"
     inkscape:document-units="mm"
     showgrid="false"
     inkscape:zoom="1.207674"
     inkscape:cx="304.30398"
     inkscape:cy="52.166396"
     inkscape:window-width="1920"
     inkscape:window-height="1009"
     inkscape:window-x="-8"
     inkscape:window-y="-8"
     inkscape:window-maximized="1"
     inkscape:current-layer="layer1" />
  <defs
     id="defs2" />
  <g
     inkscape:label="Layer 1"
     inkscape:groupmode="layer"
     id="layer1"
     transform="translate(-6.2754999,-36.371617)">
    <path
       style="fill:none;fill-opacity:1;stroke:#ffffff;stroke-width:0.740341;stroke-linecap:round;stroke-linejoin:round;stroke-dasharray:5.92273, 3.7017;stroke-dashoffset:0;stroke-opacity:1"
       d="m 199.85159,49.074712 c 0,0 -15.22721,10.79878 -28.91325,10.621439 -13.68603,-0.177342 -24.7189,-10.816141 -38.03563,-11.459978 -8.51778,-0.411818 -11.58943,3.386425 -11.46194,7.108387 0.17266,5.040927 8.97389,7.744967 12.04622,1.294603 1.77517,-8.185461 -7.20784,-9.57478 -14.74203,-12.375433 -16.75558,-1.769027 -18.04858,2.029713 -27.487225,4.867155 C 81.819096,51.96833 61.97028,45.456993 53.228145,42.2998 47.733486,40.315421 42.918637,40.370477 38.241537,40.838778"
       id="path283"
       inkscape:export-filename="dotted-line.svg"
       inkscape:export-xdpi="96"
       inkscape:export-ydpi="96"
       sodipodi:nodetypes="csssccssc" />
    <path
       fill-rule="evenodd"
       clip-rule="evenodd"
       d="m 15.004992,46.436014 c -0.324307,0.430328 -0.516824,0.355193 -0.393859,0.761801 0.793495,0.06921 1.944628,-0.359481 2.951555,-0.508606 5.690825,-0.843542 11.31228,-0.178634 16.82384,0.03961 0.655776,0.136569 1.616802,0.426718 2.170356,0.294345 0.405915,-0.182512 -0.167121,-0.504514 -0.199666,-0.732778 -0.33819,-1.088816 -0.65327,-1.929518 -1.162055,-2.93063 0.77325,-0.322188 1.475437,-0.173136 2.503375,-0.485413 -0.301223,-0.823284 -1.326888,-0.96508 -2.191117,-1.370727 -1.126278,-0.527794 -2.177746,-1.649974 -3.554501,-0.703979 -0.388598,-0.569792 0.186488,-0.903952 0.536831,-1.031996 -1.218996,-0.820558 -2.962375,-0.633297 -4.321395,-1.184055 -2.868446,1.975908 -6.370809,3.248634 -9.224717,5.170323 -1.389003,0.935983 -2.092372,1.700449 -3.938647,2.682107 z m 13.228658,-7.27895 c 1.042548,-0.003 2.653349,0.109735 3.579498,0.795718 -1.479116,0.937755 -4.065287,1.585897 -6.230267,2.48479 -2.729135,1.1335 -5.753994,2.479482 -8.692478,3.160413 3.000566,-2.453589 7.562092,-4.475836 11.343247,-6.440921 z m 3.390778,1.437232 c 0.03649,0.115683 0.04702,0.150505 0.0636,0.305002 -1.606761,0.453915 -4.028435,1.195869 -5.231261,1.647226 1.016074,-0.498289 3.781073,-1.743235 5.16758,-1.952205 z m -2.14505,1.231892 c 1.196655,-0.362226 2.552114,-0.883463 3.672954,-0.959594 1.223307,-0.08285 2.461774,1.092814 3.525459,1.597624 -4.909261,0.873217 -12.003964,2.166425 -17.136904,2.787286 2.313873,-1.006216 7.185344,-2.592313 9.938487,-3.425326 z m 5.073883,1.512175 c 0.380483,1.083173 0.875733,1.945453 1.212202,3.113262 -6.051888,-0.199387 -12.604223,-0.97813 -19.075613,0.08949 5.591838,-1.820085 12.492381,-2.414942 17.863411,-3.202748 z"
       id="path2"
       style="fill:#ffffff;fill-opacity:1;stroke:#ffffff;stroke-width:0.372985;stroke-opacity:1" />
  </g>
</svg>
