<?xml version="1.0" encoding="UTF-8" standalone="no"?>
<svg
   viewBox="0 0 100 100"
   version="1.1"
   x="0px"
   y="0px"
   id="svg26"
   sodipodi:docname="noun-person-with-arms-up-1562030.svg"
   width="100"
   height="100"
   inkscape:version="1.2.2 (732a01da63, 2022-12-09)"
   xmlns:inkscape="http://www.inkscape.org/namespaces/inkscape"
   xmlns:sodipodi="http://sodipodi.sourceforge.net/DTD/sodipodi-0.dtd"
   xmlns="http://www.w3.org/2000/svg"
   xmlns:svg="http://www.w3.org/2000/svg"
   xmlns:rdf="http://www.w3.org/1999/02/22-rdf-syntax-ns#"
   xmlns:cc="http://creativecommons.org/ns#"
   xmlns:dc="http://purl.org/dc/elements/1.1/">
  <defs
     id="defs30" />
  <sodipodi:namedview
     id="namedview28"
     pagecolor="#ffffff"
     bordercolor="#000000"
     borderopacity="0.25"
     inkscape:showpageshadow="2"
     inkscape:pageopacity="0.0"
     inkscape:pagecheckerboard="0"
     inkscape:deskcolor="#d1d1d1"
     showgrid="false"
     inkscape:zoom="6.632"
     inkscape:cx="26.311821"
     inkscape:cy="49.607961"
     inkscape:window-width="1920"
     inkscape:window-height="1009"
     inkscape:window-x="-8"
     inkscape:window-y="-8"
     inkscape:window-maximized="1"
     inkscape:current-layer="svg26" />
  <title
     id="title2">Standing and talking</title>
  <desc
     id="desc4">Created with Sketch.</desc>
  <g
     id="g379"
     style="fill:#ffffff;fill-opacity:1;stroke:none;stroke-opacity:1">
    <path
       d="m 29.54418,67.766818 c -0.02751,0.0056 -0.03148,0.0064 -0.05534,0.01196 -0.0084,0.0065 -0.01663,0.01345 -0.02467,0.02078 H 29.4522 c 0.0077,0.0011 0.01314,5.61e-4 0.01891,0 h -0.007 c -0.0015,0.0014 -0.0031,0.0029 -0.0046,0.0043 0.014,-0.01165 0.03989,-0.02628 0.08469,-0.03708 z m 0.277745,0.290539 c 0.0014,0.0077 0.0027,0.01442 0.0049,0.02638 0.0031,-0.01015 0.0057,-0.0183 0.0047,-0.02663 z m 0.292164,-0.08241 c 0.121104,-0.03618 0.176818,-0.05164 0.227301,-0.06245 0.05641,-0.01244 0.120968,-0.02134 0.189203,-0.02716 0.09453,-0.0091 0.09453,-0.0091 0.169899,-0.01336 0.05926,-0.0041 0.12451,-0.0047 0.196549,-0.0022 0.08797,0.003 0.08797,0.003 0.173587,0.0061 0.08721,0.003 0.08721,0.003 0.178665,0.006 0.09312,0.003 0.09312,0.003 0.187513,0.0061 0.09342,0.003 0.09342,0.003 0.190019,0.0061 0.09722,0.0031 0.09722,0.0031 0.191087,0.0061 0.09865,0.0034 0.09865,0.0034 0.197173,0.0076 0.104203,0.0031 0.104203,0.0031 0.200135,0.0061 0.09358,0.003 0.09358,0.003 0.191394,0.0061 0.09879,0.0031 0.09879,0.0031 0.201321,0.0064 0.08953,0.0042 0.08953,0.0042 0.177703,0.0073 0.09238,0.0031 0.09238,0.0031 0.173321,0.0059 0.0923,0.0018 0.0923,0.0018 0.187523,0.0047 0.09238,0.0031 0.09238,0.0031 0.180604,0.0061 0.08778,0.003 0.08778,0.003 0.190359,0.0063 0.05246,0.0024 0.09591,0.0024 0.137846,-8.7e-5 0.07958,-0.0031 0.07958,-0.0031 0.178676,-0.0064 0.0863,-0.0019 0.0863,-0.0019 0.172264,-0.0056 0.08563,-0.0049 0.08563,-0.0049 0.187999,-0.01314 0.06287,-0.0045 0.126316,-0.01087 0.190354,-0.01905 0.06311,-0.0081 0.127944,-0.01841 0.194506,-0.03107 0.07864,-0.01496 0.155248,-0.02835 0.235509,-0.04102 0.06044,-0.0087 0.136873,-0.02282 0.232268,-0.04314 0.143392,-0.02942 0.143392,-0.02942 0.269394,-0.05643 0.126682,-0.0282 0.126682,-0.0282 0.271545,-0.06178 0.107727,-0.02625 0.220113,-0.05191 0.336412,-0.07685 0.115249,-0.02494 0.236726,-0.04983 0.366968,-0.07517 0.181066,-0.03423 0.181066,-0.03423 0.35009,-0.06694 0.110834,-0.02076 0.242397,-0.04398 0.397519,-0.07014 0.155238,-0.02514 0.301699,-0.04615 0.439836,-0.06307 0.137975,-0.01677 0.273382,-0.03094 0.406224,-0.04249 0.141106,-0.01228 0.28576,-0.01783 0.430885,-0.01674 0.141614,0 0.283225,0.0026 0.421808,0.0078 0.200572,0.0061 0.200572,0.0061 0.380377,0.01223 0.181471,0.0063 0.181471,0.0063 0.396732,0.01367 0.152103,0.0052 0.28441,0.01148 0.39723,0.01888 0.112077,0.0073 0.241131,0.01777 0.384265,0.03098 0.151537,0.01281 0.291228,0.02838 0.416364,0.04639 0.120948,0.01652 0.248651,0.03508 0.380572,0.05529 0.136079,0.01996 0.264387,0.04103 0.38157,0.06263 0.119387,0.02094 0.240307,0.04396 0.362762,0.06905 0.124087,0.02543 0.246082,0.053 0.365148,0.08251 0.111432,0.02737 0.222305,0.05277 0.331885,0.07605 0.123484,0.02599 0.2484,0.05626 0.374752,0.09078 0.178058,0.04865 0.178058,0.04865 0.353001,0.09646 0.175198,0.04638 0.175198,0.04638 0.335368,0.08881 0.113881,0.02908 0.242881,0.06578 0.38477,0.109351 0.130386,0.03907 0.244596,0.06968 0.341267,0.09163 0.17146,0.03862 0.17146,0.03862 0.380097,0.08594 0.137635,0.03222 0.267229,0.05995 0.391155,0.08368 0.126765,0.02506 0.257226,0.05014 0.388483,0.07469 0.130166,0.02336 0.248039,0.04224 0.35344,0.05663 0.09689,0.01323 0.211098,0.0223 0.342077,0.02691 0.217779,0.0076 0.217779,0.0076 0.445142,0.01517 0.224082,0.0073 0.224082,0.0073 0.436468,0.01374 0.208156,0.0076 0.208156,0.0076 0.43334,0.01515 0.226762,0.0076 0.226762,0.0076 0.442279,0.01514 0.219275,0.0064 0.219275,0.0064 0.448013,0.01375 0.149274,0.005 0.309695,0.0084 0.481225,0.01044 0.177313,0.0021 0.34211,0.0057 0.494542,0.01085 0.145056,0.005 0.298607,0.0084 0.458119,0.01041 0.168649,0.001 0.328979,0.0042 0.480923,0.0093 0.227859,0.0076 0.227859,0.0076 0.478257,0.01523 0.240167,0.0086 0.240167,0.0086 0.426541,0.01519 0.183477,0.0063 0.183477,0.0063 0.402779,0.01366 0.223004,0.0073 0.223004,0.0073 0.425949,0.01365 0.196215,0.0061 0.196215,0.0061 0.380947,0.0122 0.117284,0.0039 0.237764,0.0064 0.35818,0.0074 0.191453,0 0.191453,0 0.383092,1.4e-5 0.121638,9.94e-4 0.234805,9.94e-4 0.343324,-1.4e-5 0.100942,0 0.204591,-0.0024 0.310941,-0.0072 0.116887,-0.0053 0.224996,-0.0084 0.324432,-0.0095 0.09056,-9.71e-4 0.185417,-0.0034 0.284712,-0.0073 0.09511,-0.0037 0.18587,-0.01016 0.276523,-0.01975 0.100912,-0.0096 0.199793,-0.01713 0.296906,-0.02252 0.08182,-0.0045 0.153806,-0.01108 0.216372,-0.0197 0.08424,-0.01145 0.170507,-0.02 0.259138,-0.0257 0.115809,-0.0075 0.115809,-0.0075 0.216055,-0.01451 l 0.105574,-0.0091 c 0.05279,-0.0046 0.05279,-0.0046 0.09978,-0.0086 0.109197,-0.01059 0.109197,-0.01059 0.208432,-0.01859 0.07262,-0.0067 0.137109,-0.0112 0.19428,-0.01355 0.07292,-0.0031 0.07292,-0.0031 0.141596,-0.0068 0.08594,-0.006 0.08594,-0.006 0.168825,-0.01 0.0721,-0.003 0.0721,-0.003 0.124851,-0.0053 0.06462,-0.0046 0.06462,-0.0046 0.114752,-0.0073 0.07589,-0.005 0.07589,-0.005 0.151917,-0.0042 0.108011,-0.0049 0.108011,-0.0049 0.187638,-0.0058 0.01758,-0.101389 0.01758,-0.101389 0.01869,-0.114547 -0.008,-0.153986 -0.008,-0.153986 -0.0075,-0.230183 0.0046,-0.118587 0.0046,-0.118587 0.0061,-0.170799 -0.0058,-0.117888 -0.0058,-0.117888 -0.01071,-0.185574 -0.0029,-0.0773 -0.0029,-0.0773 -0.0016,-0.165001 0.0016,-0.0335 0.0016,-0.0716 -1.15e-4,-0.114082 -0.0032,-0.07073 -0.0032,-0.07073 -0.0063,-0.119089 -0.0053,-0.0529 -0.0085,-0.11443 -0.0095,-0.179519 -0.0031,-0.08949 -0.0031,-0.08949 -0.0062,-0.16964 -0.0032,-0.081 -0.0032,-0.081 -0.0064,-0.166991 -0.0033,-0.08294 -0.0033,-0.08294 -0.0079,-0.171554 -0.0032,-0.08953 -0.0032,-0.08953 -0.0065,-0.196573 -0.0018,-0.10061 -0.0018,-0.10061 -0.0046,-0.196017 -0.002,-0.06127 -0.0054,-0.128328 -0.01003,-0.196523 -0.0068,-0.08397 -0.01133,-0.163544 -0.01375,-0.24446 -0.0016,-0.105778 -0.0016,-0.105778 -0.003,-0.209315 -0.0019,-0.06619 -0.0057,-0.133459 -0.01147,-0.201799 -0.0066,-0.07899 -0.01215,-0.160934 -0.01628,-0.241132 -0.008,-0.118025 -0.008,-0.118025 -0.01694,-0.233243 -0.0097,-0.116485 -0.0097,-0.116485 -0.02098,-0.234946 -0.01008,-0.09076 -0.01793,-0.180066 -0.02323,-0.263261 -0.0059,-0.07729 -0.01335,-0.154077 -0.02174,-0.226274 -0.01119,-0.08744 -0.02117,-0.182712 -0.03003,-0.286256 -0.0077,-0.09129 -0.01779,-0.177351 -0.03078,-0.262344 -0.01341,-0.09486 -0.02508,-0.194633 -0.03505,-0.299368 -0.0092,-0.09686 -0.02,-0.198851 -0.03233,-0.305966 -0.01204,-0.104546 -0.02608,-0.208074 -0.04212,-0.310586 -0.01718,-0.10981 -0.03432,-0.227137 -0.05184,-0.355073 -0.01544,-0.120168 -0.0319,-0.238805 -0.04946,-0.356357 -0.01808,-0.122073 -0.03666,-0.253211 -0.05543,-0.391104 -0.01917,-0.134354 -0.03872,-0.253306 -0.05802,-0.353927 -0.02301,-0.115204 -0.04637,-0.246263 -0.07023,-0.393784 -0.02272,-0.141472 -0.04646,-0.280395 -0.07177,-0.419867 -0.02348,-0.135899 -0.05058,-0.278502 -0.08072,-0.424923 -0.03357,-0.156725 -0.06442,-0.31597 -0.09247,-0.477338 -0.02649,-0.151391 -0.05392,-0.292535 -0.08282,-0.426042 -0.02751,-0.131734 -0.05918,-0.271214 -0.09515,-0.41895 -0.03778,-0.1562 -0.0744,-0.320415 -0.109443,-0.490511 -0.03536,-0.166546 -0.0707,-0.327495 -0.105366,-0.480043 -0.03708,-0.1574 -0.07519,-0.32338 -0.114339,-0.497947 -0.03827,-0.170647 -0.07756,-0.337218 -0.118256,-0.501357 -0.04053,-0.166725 -0.08103,-0.341501 -0.121832,-0.525925 -0.03849,-0.177643 -0.0738,-0.335457 -0.105906,-0.473357 -0.0329,-0.141296 -0.071,-0.309802 -0.114258,-0.505228 -0.0436,-0.195956 -0.08298,-0.381336 -0.11816,-0.556165 -0.03415,-0.16971 -0.06931,-0.335344 -0.105485,-0.4969 -0.03772,-0.168447 -0.07428,-0.346913 -0.110146,-0.537773 -0.05018,-0.277071 -0.05018,-0.277071 -0.09974,-0.551468 -0.03124,-0.179837 -0.06088,-0.34442 -0.08937,-0.496143 -0.02767,-0.153014 -0.05897,-0.335205 -0.09416,-0.548215 -0.03337,-0.207238 -0.06356,-0.388063 -0.09022,-0.54042 -0.02873,-0.159152 -0.06005,-0.341951 -0.09401,-0.548784 -0.03324,-0.20345 -0.06592,-0.392647 -0.09841,-0.569632 -0.03186,-0.179281 -0.06316,-0.36411 -0.09393,-0.55449 -0.04416,-0.273641 -0.04416,-0.273641 -0.08203,-0.509865 -0.02428,-0.151758 -0.0517,-0.326762 -0.08226,-0.525052 -0.03037,-0.19703 -0.05916,-0.380866 -0.08642,-0.551832 -0.02764,-0.174376 -0.05317,-0.344725 -0.0762,-0.508446 -0.02464,-0.166411 -0.04817,-0.341857 -0.07058,-0.526116 -0.02188,-0.178914 -0.04427,-0.353251 -0.06721,-0.523292 -0.02354,-0.175488 -0.04337,-0.338916 -0.0595,-0.490345 -0.01561,-0.146624 -0.03438,-0.313622 -0.05606,-0.498936 -0.02287,-0.186593 -0.04415,-0.350305 -0.06416,-0.493647 -0.01903,-0.143851 -0.03858,-0.296287 -0.05866,-0.457317 -0.01933,-0.155116 -0.04065,-0.302025 -0.06386,-0.440275 -0.02451,-0.144947 -0.04846,-0.294425 -0.07193,-0.448796 -0.02173,-0.143928 -0.04624,-0.274427 -0.07402,-0.394151 -0.02793,-0.124767 -0.05849,-0.25618 -0.09227,-0.396777 -0.03099,-0.133111 -0.066,-0.266289 -0.105936,-0.402675 -0.03783,-0.133518 -0.0759,-0.254181 -0.113058,-0.359022 -0.04068,-0.111849 -0.085,-0.227853 -0.132972,-0.347992 -0.04536,-0.113603 -0.09499,-0.223774 -0.149502,-0.331789 -0.08498,-0.170076 -0.08498,-0.170076 -0.161969,-0.324678 -0.04515,-0.08985 -0.102285,-0.19083 -0.171341,-0.302499 -0.07371,-0.1192 -0.139504,-0.224159 -0.19796,-0.31581 -0.05369,-0.08477 -0.120709,-0.183432 -0.202185,-0.297427 -0.0789,-0.111781 -0.155966,-0.214912 -0.231118,-0.309362 -0.120018,-0.150609 -0.120018,-0.150609 -0.244343,-0.305708 -0.08098,-0.101864 -0.156079,-0.194038 -0.225581,-0.276873 -0.06428,-0.07683 -0.146285,-0.167318 -0.245775,-0.270985 -0.107098,-0.111679 -0.207897,-0.220434 -0.302609,-0.326518 -0.08393,-0.09416 -0.170715,-0.184475 -0.261878,-0.272437 -0.1007,-0.09822 -0.203216,-0.204045 -0.307598,-0.317475 -0.09474,-0.102952 -0.187636,-0.198331 -0.280152,-0.287599 -0.100876,-0.0984 -0.201513,-0.202427 -0.303179,-0.313456 -0.09325,-0.102817 -0.194951,-0.211845 -0.307469,-0.329558 -0.110381,-0.117547 -0.205484,-0.217827 -0.288538,-0.304246 -0.07778,-0.08294 -0.169902,-0.178774 -0.276263,-0.28737 -0.107297,-0.109551 -0.20405,-0.207415 -0.290162,-0.2935 -0.0892,-0.08913 -0.179958,-0.180796 -0.269237,-0.271917 -0.08744,-0.08723 -0.168782,-0.164291 -0.245738,-0.232765 -0.07827,-0.07055 -0.160771,-0.143678 -0.245561,-0.217704 -0.08286,-0.07138 -0.165531,-0.138796 -0.25022,-0.203982 -0.08691,-0.06788 -0.174348,-0.135268 -0.264526,-0.203861 -0.07637,-0.05895 -0.151297,-0.109848 -0.222889,-0.151791 -0.08701,-0.05037 -0.176133,-0.100775 -0.27023,-0.152814 -0.138813,-0.078 -0.138813,-0.078 -0.277612,-0.154988 -0.08406,-0.04647 -0.170551,-0.08979 -0.260974,-0.130633 -0.09591,-0.04378 -0.18916,-0.08553 -0.274844,-0.123149 -0.08708,-0.03681 -0.176218,-0.07178 -0.266134,-0.104434 -0.144204,-0.05155 -0.144204,-0.05155 -0.27976,-0.09897 -0.0793,-0.02758 -0.16899,-0.05431 -0.265486,-0.07915 -0.157259,-0.03901 -0.157259,-0.03901 -0.280693,-0.0696 -0.117291,-0.02829 -0.117291,-0.02829 -0.24036,-0.0566 -0.07166,-0.01527 -0.147598,-0.02586 -0.227904,-0.03163 -0.09417,-0.0068 -0.180308,-0.01157 -0.258297,-0.01443 -0.124992,-0.0046 -0.124992,-0.0046 -0.252975,-0.0091 -0.128417,-0.0042 -0.128417,-0.0042 -0.261573,-0.0076 -0.12871,-0.0046 -0.12871,-0.0046 -0.239685,-0.009 -0.115915,-0.0033 -0.115915,-0.0033 -0.248298,-0.0077 -0.08417,-0.0028 -0.158635,-0.0038 -0.217349,-0.003 -0.110709,0.0029 -0.110709,0.0029 -0.217941,0.0046 -0.06605,0.0018 -0.127709,0.0053 -0.178738,0.01 -0.07097,0.0076 -0.14398,0.01411 -0.213212,0.01905 -0.05939,0.0051 -0.112684,0.01182 -0.153024,0.01871 -0.08444,0.01634 -0.08444,0.01634 -0.166188,0.03335 -0.08996,0.02077 -0.08996,0.02077 -0.170236,0.03989 -0.04966,0.01283 -0.104033,0.02901 -0.168196,0.05025 -0.05448,0.01725 -0.10191,0.03476 -0.150535,0.0558 -0.04323,0.01765 -0.0939,0.04125 -0.149514,0.06974 -0.06159,0.032 -0.117844,0.0632 -0.175855,0.0977 -0.05395,0.03067 -0.112947,0.06595 -0.170969,0.102053 -0.09955,0.06446 -0.09955,0.06446 -0.187909,0.121341 -0.04984,0.0329 -0.111152,0.07782 -0.183005,0.134377 -0.118311,0.09309 -0.118311,0.09309 -0.228185,0.179431 -0.06526,0.05201 -0.128631,0.10631 -0.190036,0.16282 -0.06299,0.05801 -0.127954,0.122082 -0.194819,0.192203 -0.0763,0.08002 -0.158865,0.162862 -0.249429,0.250229 -0.08041,0.07664 -0.158375,0.15564 -0.233895,0.237019 -0.07946,0.08563 -0.159475,0.173282 -0.241467,0.264551 -0.0798,0.08785 -0.163906,0.182849 -0.253509,0.286382 -0.132476,0.151967 -0.132476,0.151967 -0.257764,0.297221 -0.08052,0.09263 -0.165305,0.191885 -0.254336,0.297759 -0.08922,0.106103 -0.180575,0.216274 -0.275102,0.331789 -0.09196,0.111398 -0.179738,0.221198 -0.264709,0.331162 -0.08642,0.110507 -0.177077,0.227627 -0.272871,0.352545 -0.09423,0.121882 -0.186364,0.243236 -0.274271,0.361168 -0.08926,0.122174 -0.181189,0.249947 -0.273864,0.380603 -0.09608,0.13802 -0.188546,0.267968 -0.278325,0.391109 -0.08507,0.115705 -0.172343,0.238039 -0.262953,0.368658 -0.09179,0.130831 -0.183065,0.262167 -0.27459,0.395125 -0.09087,0.130998 -0.179628,0.25996 -0.265504,0.385734 -0.08435,0.124524 -0.170974,0.258245 -0.259836,0.401137 -0.09234,0.148478 -0.186779,0.297954 -0.283965,0.449418 -0.09521,0.147378 -0.184632,0.286631 -0.266423,0.414834 -0.13119,0.209772 -0.13119,0.209772 -0.288077,0.460194 -0.106421,0.170797 -0.195485,0.320068 -0.267647,0.448522 -0.07518,0.132803 -0.163956,0.2878 -0.265076,0.462788 -0.09821,0.172722 -0.185928,0.334611 -0.261803,0.48292 -0.08039,0.160302 -0.165537,0.324079 -0.255429,0.49134 -0.08635,0.160672 -0.162182,0.306999 -0.226966,0.437864 -0.06668,0.135699 -0.142335,0.291756 -0.227308,0.468877 -0.08194,0.169823 -0.154539,0.331801 -0.2186,0.487774 -0.06767,0.162191 -0.135338,0.322359 -0.203851,0.482434 -0.06716,0.154509 -0.136481,0.319224 -0.207245,0.492369 -0.06985,0.173436 -0.136086,0.346324 -0.198044,0.516821 -0.09244,0.259212 -0.09244,0.259212 -0.176996,0.498681 -0.05363,0.154243 -0.114754,0.337649 -0.183792,0.551592 -0.06811,0.207935 -0.122144,0.389173 -0.162195,0.54374 -0.04282,0.164229 -0.09299,0.346492 -0.150644,0.547373 -0.05478,0.189859 -0.106109,0.389443 -0.153599,0.59707 -0.04798,0.214343 -0.09386,0.425631 -0.137945,0.635234 -0.04504,0.210191 -0.08482,0.398059 -0.119432,0.564018 -0.03431,0.163512 -0.07128,0.346386 -0.110968,0.548912 -0.03928,0.199474 -0.07651,0.403023 -0.111689,0.610646 -0.03564,0.21035 -0.06918,0.410556 -0.10061,0.600611 -0.03126,0.188981 -0.06253,0.386103 -0.09381,0.591359 -0.03173,0.208163 -0.06347,0.408746 -0.09522,0.601757 -0.03132,0.19038 -0.06265,0.386859 -0.09403,0.589709 -0.03187,0.205006 -0.06848,0.426124 -0.109819,0.663391 -0.04059,0.232939 -0.07382,0.433353 -0.09969,0.601049 -0.02657,0.172295 -0.05839,0.367238 -0.09547,0.584914 -0.03645,0.214028 -0.07081,0.425508 -0.10309,0.63444 -0.03226,0.208845 -0.06402,0.426344 -0.09553,0.65436 -0.03236,0.225634 -0.06211,0.441611 -0.08926,0.648152 -0.02692,0.203802 -0.05231,0.416277 -0.07617,0.637412 -0.02422,0.224534 -0.04844,0.444512 -0.07267,0.659936 -0.02381,0.211771 -0.04557,0.430684 -0.06528,0.656872 -0.02003,0.228892 -0.04007,0.449183 -0.0601,0.660713 -0.02001,0.212333 -0.04002,0.42011 -0.06001,0.623155 -0.01975,0.201573 -0.03583,0.380762 -0.04844,0.539858 -0.01329,0.154889 -0.02511,0.329824 -0.03541,0.524664 -0.01061,0.200564 -0.02123,0.377387 -0.03171,0.527896 -0.0092,0.148565 -0.01643,0.298664 -0.02156,0.450297 -0.0079,0.232391 -0.0079,0.232391 -0.01576,0.463769 -0.0079,0.227919 -0.0079,0.227919 -0.01571,0.438041 -0.0063,0.20276 -0.0063,0.20276 -0.01267,0.386557 -0.0063,0.176748 -0.0063,0.176748 -0.0125,0.352308 -0.0032,0.121198 -0.0069,0.235341 -0.01107,0.338803 -0.005,0.16013 -0.005,0.16013 -0.01103,0.317636 -0.0047,0.157828 -0.0047,0.157828 -0.0095,0.306594 -0.0047,0.144617 -0.0047,0.144617 -0.0095,0.282186 -0.0048,0.132295 -0.0048,0.132295 -0.0094,0.242515 -0.0019,0.06619 -0.0019,0.139294 4.3e-5,0.219191 0.0023,0.0943 0.0017,0.180296 -0.0016,0.252556 -0.0019,0.06245 -0.0019,0.122224 1.19e-4,0.18534 0.0018,0.09306 0.0018,0.09306 0.0045,0.176236 0.0032,0.08699 0.0032,0.08699 0.0063,0.178777 0.143687,0.0575 0.271593,0.155948 0.313859,0.306634 z m 27.093583,0.618463 c -9.73e-4,-0.0046 -0.0012,-0.0091 -0.002,-0.02611 -5.71e-4,-4.7e-4 -7.85e-4,-6.45e-4 -10e-4,0.0073 8.86e-4,0.0056 0.0019,0.01184 0.003,0.01879 z m 9.47e-4,0.0059 c -3.25e-4,-0.002 -6.41e-4,-0.004 -9.47e-4,-0.0059 1.06e-4,0.0018 4.63e-4,0.0035 9.47e-4,0.0059 z m 0.01103,0.01816 c -0.004,0.0216 -0.0044,0.02347 -0.0057,0.05198 -1.24e-4,0.0027 -2.57e-4,0.0057 -4.02e-4,0.0089 v -0.0061 c 0.002,-0.01123 0.0037,-0.02892 0.0061,-0.05477 z m 0.307498,-0.165667 c -0.03043,0.0034 -0.05239,0.0058 -0.06983,0.0084 0.01574,-0.005 0.03626,-0.0063 0.06983,-0.0084 z M 29.832066,68.170607 c 0.02757,-0.0017 0.05988,0.02879 0.143145,0.138107 z m 0.174775,0.180108 c 0.002,-0.0019 0.004,-0.0038 0.006,-0.0057 l -0.03761,-0.03629 c 0.0098,0.01288 0.02033,0.02685 0.03163,0.042 z m 27.520306,0.861189 c 0.01813,-0.0012 0.03088,-0.002 0.04165,-0.0031 -0.01374,6.2e-5 -0.02688,0.0015 -0.04165,0.0031 z m 0.437718,-0.712223 c 0.008,0.0181 0.01315,0.02981 0.0171,0.04246 -0.0044,-0.01035 -0.0091,-0.02231 -0.0171,-0.04246 z"
       id="path6"
       style="fill:#ffffff;fill-opacity:1;fill-rule:nonzero;stroke:none;stroke-width:1;stroke-opacity:1" />
    <path
       d="m 54.533819,4.548772 c 0.565942,0.233506 0.939181,0.79506 0.97186,1.416244 0.06826,0.127589 0.137113,0.260667 0.202395,0.39094 0.08723,0.170385 0.167624,0.337974 0.235099,0.489531 0.06723,0.147324 0.134268,0.298723 0.201137,0.454209 0.07368,0.171322 0.142287,0.343123 0.209246,0.524857 0.05461,0.150941 0.111564,0.311542 0.170893,0.481872 0.06314,0.181257 0.122591,0.361186 0.181129,0.548771 0.05595,0.182808 0.109402,0.371151 0.163268,0.576163 0.04305,0.168387 0.08807,0.341006 0.135056,0.517847 0.05589,0.210375 0.104323,0.413319 0.144776,0.606998 0.05291,0.252479 0.05291,0.252479 0.107716,0.517149 0.03794,0.183729 0.07437,0.365945 0.10928,0.54665 0.03671,0.190007 0.06976,0.375621 0.100718,0.566711 0.02273,0.14557 0.04916,0.297835 0.08099,0.465701 0.03208,0.174165 0.06614,0.356707 0.100926,0.541081 0.04039,0.20945 0.07809,0.420461 0.111765,0.624896 0.03695,0.217601 0.071,0.443171 0.103206,0.684411 0.02702,0.209519 0.04812,0.369232 0.06308,0.477629 0.02075,0.150348 0.03647,0.29872 0.04598,0.431175 0.01236,0.153434 0.01996,0.352267 0.02447,0.610452 0.0044,0.248157 0.0044,0.455966 -7.58e-4,0.63926 -0.0067,0.199981 -0.0067,0.199981 -0.01192,0.37983 -0.0056,0.163649 -0.0056,0.163649 -0.0117,0.37964 -0.007,0.211625 -0.007,0.211625 -0.01312,0.408661 -0.0063,0.2016 -0.0063,0.2016 -0.01324,0.398264 -0.0045,0.153519 -0.01065,0.296188 -0.01967,0.443188 -0.0071,0.101798 -0.01437,0.225555 -0.0223,0.380661 -0.01276,0.224894 -0.01276,0.224894 -0.02431,0.431619 -0.01024,0.161956 -0.02784,0.341018 -0.05255,0.539422 -0.02978,0.240033 -0.02978,0.240033 -0.05431,0.44089 -0.01755,0.152558 -0.03727,0.305563 -0.05942,0.460795 -0.0216,0.150252 -0.04531,0.302443 -0.07112,0.456582 -0.03742,0.222333 -0.03742,0.222333 -0.08133,0.478423 -0.02793,0.157015 -0.05045,0.289221 -0.07009,0.411823 -0.02117,0.12492 -0.04575,0.26328 -0.07543,0.424167 -0.03997,0.210857 -0.03997,0.210857 -0.07747,0.409574 -0.02446,0.124616 -0.06008,0.302254 -0.10706,0.534003 -0.04996,0.246458 -0.101754,0.482803 -0.15544,0.70912 -0.05136,0.216507 -0.104269,0.431968 -0.158231,0.644421 -0.06106,0.241611 -0.127324,0.473172 -0.201471,0.702413 -0.06743,0.205159 -0.140511,0.414545 -0.220242,0.630937 -0.09193,0.248173 -0.196412,0.490959 -0.314969,0.731436 -0.116001,0.233986 -0.243227,0.461399 -0.379262,0.678374 -0.120637,0.19357 -0.217086,0.343396 -0.288861,0.448278 -0.07169,0.106026 -0.145586,0.211275 -0.21647,0.308575 -0.09032,0.125473 -0.184202,0.245512 -0.267994,0.343692 -0.102179,0.123468 -0.102179,0.123468 -0.213566,0.25876 -0.119202,0.144952 -0.272534,0.307217 -0.469873,0.501156 -0.19294,0.189529 -0.39673,0.37246 -0.611239,0.548842 -0.213156,0.17527 -0.392959,0.3132 -0.546199,0.417015 -0.134441,0.09153 -0.263568,0.174588 -0.387889,0.249269 -0.134073,0.08054 -0.310541,0.175975 -0.542488,0.2946 -0.223499,0.11371 -0.412921,0.204884 -0.572496,0.274957 -0.163688,0.07188 -0.322801,0.135093 -0.477753,0.189527 -0.108359,0.03807 -0.214204,0.07652 -0.328731,0.119495 -0.132534,0.04858 -0.272446,0.09653 -0.423008,0.144981 -0.145208,0.04637 -0.284434,0.08846 -0.409428,0.123859 -0.128982,0.03738 -0.259423,0.07359 -0.377009,0.104743 -0.139031,0.03843 -0.287684,0.07627 -0.456237,0.115981 -0.150263,0.03433 -0.283175,0.06347 -0.412981,0.09025 -0.116077,0.02287 -0.246617,0.04701 -0.392083,0.07256 -0.148003,0.026 -0.287499,0.04879 -0.429444,0.06994 -0.123153,0.01745 -0.251594,0.03485 -0.396919,0.05365 -0.183903,0.02236 -0.358351,0.03405 -0.510592,0.03398 -0.128897,0.0013 -0.274918,-0.0012 -0.439429,-0.0071 -0.215904,-0.008 -0.215904,-0.008 -0.394953,-0.01554 -0.178908,-0.0063 -0.178908,-0.0063 -0.356289,-0.01252 -0.130187,-0.0047 -0.267286,-0.01156 -0.422146,-0.02142 -0.162431,-0.0115 -0.320801,-0.02761 -0.461716,-0.04668 -0.14142,-0.01774 -0.275377,-0.03688 -0.390571,-0.05569 -0.156505,-0.02421 -0.322624,-0.05908 -0.492551,-0.102243 -0.15139,-0.03754 -0.286656,-0.07348 -0.406821,-0.108243 -0.137595,-0.03981 -0.284702,-0.08901 -0.442998,-0.147662 -0.144391,-0.0535 -0.290419,-0.110914 -0.447442,-0.176142 -0.171633,-0.07263 -0.337137,-0.151532 -0.491836,-0.234418 -0.137872,-0.07325 -0.272725,-0.148526 -0.39962,-0.222964 -0.155469,-0.0904 -0.310844,-0.191006 -0.47132,-0.305179 -0.12291,-0.08817 -0.246264,-0.177919 -0.370062,-0.269247 -0.170198,-0.125559 -0.335985,-0.265042 -0.492214,-0.41297 -0.132599,-0.124348 -0.257835,-0.246777 -0.375759,-0.367436 -0.11712,-0.119836 -0.237352,-0.248323 -0.365652,-0.390869 -0.113419,-0.127138 -0.224855,-0.253822 -0.329451,-0.374479 -0.124293,-0.142009 -0.247281,-0.290488 -0.369023,-0.44542 -0.111574,-0.14199 -0.217762,-0.280068 -0.323473,-0.420828 -0.11194,-0.150602 -0.2227,-0.309552 -0.339726,-0.48809 -0.07972,-0.123762 -0.159947,-0.242944 -0.248633,-0.36898 -0.112417,-0.162588 -0.223432,-0.334973 -0.333261,-0.517213 -0.09611,-0.159473 -0.184891,-0.308747 -0.270959,-0.455763 -0.08371,-0.14478 -0.17937,-0.315382 -0.284314,-0.506832 -0.11449,-0.206844 -0.220904,-0.408596 -0.319242,-0.605389 -0.09897,-0.198064 -0.193038,-0.397506 -0.280526,-0.5946 -0.122345,-0.274091 -0.122345,-0.274091 -0.248654,-0.558236 -0.09826,-0.218754 -0.188312,-0.431987 -0.27012,-0.639851 -0.07652,-0.194433 -0.152848,-0.394981 -0.230576,-0.60596 -0.08598,-0.235334 -0.167218,-0.489112 -0.24375,-0.759977 -0.06886,-0.242635 -0.127404,-0.455565 -0.173466,-0.630841 -0.05736,-0.213498 -0.110906,-0.449775 -0.161217,-0.708866 -0.04727,-0.242294 -0.09024,-0.485691 -0.127551,-0.721765 -0.04018,-0.24604 -0.07684,-0.504002 -0.109965,-0.773165 -0.03274,-0.264864 -0.06031,-0.519724 -0.08341,-0.772685 -0.02038,-0.235157 -0.04019,-0.483591 -0.05949,-0.745875 -0.02109,-0.287788 -0.03389,-0.571762 -0.03836,-0.852025 -0.0042,-0.264302 -0.0047,-0.523573 -0.0015,-0.784892 0.0041,-0.246844 0.01022,-0.497764 0.01839,-0.752766 0.0078,-0.244601 0.01518,-0.48503 0.02225,-0.728342 0.01155,-0.350828 0.01155,-0.350828 0.02209,-0.681506 0.0074,-0.236637 0.01909,-0.48371 0.03487,-0.740886 0.01606,-0.262924 0.03351,-0.488701 0.05265,-0.678596 0.01896,-0.189202 0.04455,-0.400953 0.07676,-0.636305 0.03505,-0.256115 0.07514,-0.490666 0.12147,-0.707101 0.03773,-0.175158 0.07744,-0.354898 0.118668,-0.537182 0.04877,-0.216855 0.100519,-0.417057 0.158989,-0.611606 0.0522,-0.169932 0.110251,-0.343776 0.172112,-0.516042 0.06931,-0.195219 0.143124,-0.379899 0.221893,-0.554228 0.06155,-0.136227 0.127008,-0.279042 0.194369,-0.424138 0.088,-0.191018 0.183776,-0.375492 0.29484,-0.56594 0.09019,-0.151603 0.181021,-0.297004 0.272569,-0.43623 C 36.874248,7.563518 36.970033,7.424338 37.075152,7.27788 37.184443,7.126865 37.300293,6.97743 37.42264,6.829528 37.547582,6.67849 37.675727,6.534349 37.807067,6.397238 37.970284,6.22707 37.970284,6.22707 38.139441,6.051626 38.274218,5.9108 38.410193,5.776036 38.542559,5.651925 38.67687,5.524894 38.819485,5.396749 38.971464,5.266464 39.116504,5.142341 39.25665,5.026499 39.392075,4.918873 39.527878,4.810945 39.66862,4.703497 39.818765,4.593224 39.963171,4.487951 40.103549,4.388939 40.232695,4.30116 40.376827,4.20194 40.527321,4.1041 40.681225,4.009391 40.8478,3.90635 41.013927,3.811436 41.175606,3.726879 c 0.171889,-0.09058 0.341405,-0.171104 0.50884,-0.241411 0.139548,-0.0586 0.280606,-0.115421 0.432909,-0.174194 0.160416,-0.06066 0.330386,-0.118255 0.501252,-0.170351 0.175246,-0.05468 0.340657,-0.101659 0.499411,-0.141553 0.144599,-0.03606 0.298511,-0.07172 0.450357,-0.104528 0.159563,-0.03588 0.315846,-0.06904 0.477207,-0.101124 0.172175,-0.03322 0.351974,-0.06155 0.538446,-0.08504 0.162954,-0.02065 0.31819,-0.03919 0.465774,-0.05562 0.145888,-0.01624 0.299975,-0.03243 0.46141,-0.04848 0.167367,-0.01675 0.332374,-0.03128 0.495031,-0.04361 0.167655,-0.0127 0.335802,-0.02252 0.494939,-0.02902 0.23392,-0.01102 0.23392,-0.01102 0.477526,-0.02202 0.190566,-0.0085 0.379359,-0.01157 0.566242,-0.0091 0.232532,0.0028 0.232532,0.0028 0.463018,0.0047 0.157587,0.0022 0.318031,0.0061 0.481029,0.01159 0.230308,0.0079 0.230308,0.0079 0.438393,0.01588 0.199925,0.0077 0.199925,0.0077 0.405454,0.01548 0.210459,0.0077 0.210459,0.0077 0.427903,0.0155 0.173661,0.0061 0.342315,0.01667 0.517028,0.03272 0.145631,0.01446 0.275371,0.02852 0.404093,0.0441 0.124752,0.01628 0.265107,0.03792 0.432858,0.0668 0.195477,0.03507 0.414916,0.08889 0.658071,0.159475 0.249818,0.07123 0.445781,0.134719 0.609178,0.200571 0.168271,0.06848 0.351289,0.160883 0.558916,0.278401 0.206306,0.116048 0.396553,0.2358 0.566595,0.35712 0.155316,0.109956 0.295813,0.215719 0.416399,0.313597 0.114536,0.09202 0.219053,0.179049 0.313948,0.261557 0.01966,0.01709 0.03922,0.03456 0.05869,0.05238 0.08373,0.06909 0.16283,0.141598 0.237268,0.218082 z m -3.569561,1.440304 c -0.158436,-0.04598 -0.282165,-0.07633 -0.354322,-0.08931 -0.120783,-0.02076 -0.223013,-0.03653 -0.291028,-0.04548 -0.09268,-0.01116 -0.202564,-0.02308 -0.318111,-0.03459 -0.108444,-0.0099 -0.222805,-0.01708 -0.343006,-0.02133 -0.219898,-0.0078 -0.219898,-0.0078 -0.433357,-0.0157 -0.208257,-0.0078 -0.208257,-0.0078 -0.41109,-0.0157 -0.19925,-0.0076 -0.19925,-0.0076 -0.422374,-0.01529 -0.144357,-0.0049 -0.285664,-0.0083 -0.413677,-0.01012 -0.229417,-0.0019 -0.229417,-0.0019 -0.470337,-0.0048 -0.130528,-0.0017 -0.263209,4.36e-4 -0.39806,0.0065 -0.23959,0.01082 -0.23959,0.01082 -0.478639,0.02205 -0.135091,0.0055 -0.269681,0.0134 -0.403777,0.02356 -0.139094,0.01054 -0.280768,0.02302 -0.425918,0.03754 -0.151245,0.01504 -0.293978,0.03003 -0.428147,0.04497 -0.132472,0.01475 -0.27307,0.03154 -0.422865,0.05052 -0.125976,0.01586 -0.242997,0.0343 -0.342544,0.05349 -0.129002,0.02567 -0.261651,0.05382 -0.40949,0.08701 -0.134392,0.02908 -0.258565,0.05785 -0.369754,0.08558 -0.10021,0.02518 -0.212882,0.05718 -0.346345,0.0988 -0.119983,0.0366 -0.229084,0.07357 -0.317292,0.106889 -0.115797,0.04472 -0.230142,0.09078 -0.34304,0.138185 -0.08501,0.0357 -0.175828,0.07884 -0.27624,0.131742 -0.100493,0.05256 -0.203576,0.111457 -0.312144,0.178611 -0.113316,0.06974 -0.220197,0.139219 -0.327928,0.213352 -0.108105,0.0735 -0.221158,0.153243 -0.334599,0.235929 -0.114648,0.08421 -0.22438,0.167987 -0.329188,0.251281 -0.105187,0.0836 -0.2165,0.175605 -0.33276,0.275098 -0.113307,0.09713 -0.218206,0.191389 -0.319487,0.28716 -0.09551,0.08957 -0.191278,0.184484 -0.2919,0.289601 -0.169855,0.176183 -0.169855,0.176183 -0.328653,0.341743 -0.07767,0.08108 -0.154634,0.167655 -0.23086,0.259802 -0.07882,0.09528 -0.152304,0.190072 -0.216739,0.279083 -0.07616,0.106121 -0.147021,0.209086 -0.21259,0.308805 -0.06426,0.09772 -0.129237,0.201743 -0.187362,0.299315 -0.05026,0.08624 -0.09747,0.177167 -0.143619,0.277332 -0.06474,0.139465 -0.125506,0.272052 -0.182287,0.397717 -0.03956,0.08756 -0.07915,0.186598 -0.120319,0.30253 -0.04658,0.129742 -0.08813,0.254163 -0.121623,0.363087 -0.03136,0.104419 -0.06343,0.228464 -0.09599,0.373244 -0.03917,0.173165 -0.07637,0.341574 -0.111173,0.503135 -0.02708,0.126517 -0.05307,0.278567 -0.07719,0.454782 -0.02696,0.196976 -0.04771,0.368709 -0.06239,0.515197 -0.01428,0.141615 -0.02839,0.324264 -0.04194,0.546078 -0.01378,0.22459 -0.02383,0.437906 -0.03019,0.640088 -0.01065,0.333669 -0.01065,0.333669 -0.02205,0.67988 -0.007,0.23972 -0.0144,0.483582 -0.02235,0.731587 -0.0076,0.237603 -0.01331,0.470974 -0.01701,0.693044 -0.0028,0.221722 -0.0023,0.448821 0.0014,0.681167 0.0034,0.214535 0.0133,0.433559 0.02964,0.656578 0.01821,0.247454 0.03685,0.481233 0.05521,0.693275 0.01903,0.208147 0.04273,0.427186 0.07124,0.657866 0.02791,0.226739 0.0583,0.440597 0.09245,0.649851 0.03233,0.204468 0.06826,0.407949 0.108047,0.611909 0.03618,0.186333 0.07237,0.346011 0.110023,0.486248 0.04235,0.161053 0.09524,0.353431 0.159049,0.578273 0.05507,0.194906 0.1109,0.3693 0.165348,0.518352 0.06782,0.184074 0.135467,0.361813 0.202917,0.533197 0.06217,0.157953 0.131867,0.323008 0.211979,0.501387 0.127727,0.287304 0.127727,0.287304 0.250113,0.561495 0.06864,0.154616 0.141224,0.30852 0.21778,0.461723 0.07719,0.154474 0.162082,0.315421 0.25788,0.488522 0.09696,0.176867 0.180781,0.326354 0.246344,0.439791 0.07429,0.126865 0.15611,0.264424 0.245391,0.412569 0.07556,0.125379 0.149935,0.240867 0.214935,0.334981 0.106648,0.151438 0.211809,0.307657 0.308218,0.457433 0.07565,0.115356 0.150283,0.222454 0.218847,0.314733 0.08654,0.1152 0.178557,0.234857 0.27604,0.358914 0.08731,0.111117 0.174368,0.216216 0.265961,0.320889 0.0996,0.114874 0.201168,0.230335 0.299931,0.341068 0.09538,0.105953 0.186177,0.202984 0.272196,0.290999 0.08522,0.08719 0.177911,0.177809 0.283426,0.276783 0.0711,0.06731 0.140011,0.125288 0.20648,0.174324 0.112869,0.08327 0.225197,0.164994 0.332043,0.241654 0.08113,0.05771 0.158479,0.107798 0.236718,0.153303 0.09498,0.05571 0.192852,0.110339 0.2982,0.166321 0.07739,0.04146 0.160384,0.08103 0.239753,0.11465 0.112644,0.04677 0.223006,0.09016 0.33106,0.130193 0.09415,0.03488 0.173848,0.06154 0.237421,0.07993 0.081,0.02343 0.180431,0.04985 0.305154,0.0808 0.09238,0.02345 0.168844,0.0395 0.238826,0.05038 0.09024,0.0147 0.189002,0.02881 0.30952,0.044 0.09218,0.01243 0.189211,0.0223 0.280355,0.0288 0.11815,0.0075 0.228565,0.01305 0.330665,0.0167 0.176084,0.0062 0.176084,0.0062 0.366812,0.01294 0.179068,0.0075 0.179068,0.0075 0.385577,0.01516 0.123077,0.0044 0.225558,0.0062 0.320201,0.0053 0.04233,0 0.100606,-0.0039 0.16153,-0.01127 0.122628,-0.01591 0.239729,-0.03177 0.340506,-0.04601 0.105487,-0.01575 0.220409,-0.03453 0.344573,-0.05634 0.126702,-0.02226 0.23776,-0.0428 0.319117,-0.05876 0.09482,-0.01961 0.208433,-0.04452 0.330199,-0.0723 0.123475,-0.02912 0.236143,-0.0578 0.352038,-0.08976 0.110684,-0.0294 0.219869,-0.05971 0.335959,-0.09332 0.101296,-0.02871 0.209585,-0.06144 0.321601,-0.09721 0.11091,-0.03569 0.213583,-0.07088 0.296651,-0.101278 0.123483,-0.0464 0.249375,-0.09213 0.377683,-0.137202 0.08172,-0.02871 0.171104,-0.06422 0.26775,-0.106659 0.100759,-0.04425 0.241685,-0.112077 0.415709,-0.200612 0.173227,-0.0886 0.296538,-0.155284 0.359688,-0.193218 0.0729,-0.04379 0.153817,-0.09584 0.24512,-0.157996 0.06477,-0.04388 0.174882,-0.128351 0.320671,-0.248228 0.144437,-0.118765 0.27987,-0.240335 0.406181,-0.364414 0.124384,-0.12224 0.208706,-0.211475 0.243338,-0.253587 0.114926,-0.139591 0.114926,-0.139591 0.235013,-0.284453 0.04056,-0.04763 0.08079,-0.09907 0.125831,-0.161599 0.05409,-0.07428 0.106422,-0.14882 0.161901,-0.230823 0.04561,-0.06667 0.119755,-0.181853 0.220339,-0.343235 0.08058,-0.12853 0.15452,-0.260697 0.220309,-0.393391 0.06649,-0.134869 0.125698,-0.272449 0.176739,-0.410238 0.06525,-0.177086 0.125288,-0.349105 0.177646,-0.508352 0.04865,-0.150457 0.0948,-0.311734 0.138771,-0.485708 0.05007,-0.197134 0.09873,-0.395294 0.145978,-0.594488 0.04492,-0.189384 0.08879,-0.389525 0.131519,-0.600338 0.04572,-0.225522 0.08011,-0.397072 0.100458,-0.50043 0.03553,-0.188546 0.03553,-0.188546 0.07429,-0.392909 0.02522,-0.13682 0.04698,-0.259313 0.0626,-0.351042 0.02049,-0.128412 0.04629,-0.279922 0.07584,-0.445849 0.0411,-0.239898 0.0411,-0.239898 0.07714,-0.454051 0.02152,-0.128538 0.0412,-0.254866 0.05879,-0.377195 0.01755,-0.122991 0.03333,-0.245387 0.04857,-0.37764 0.0265,-0.217386 0.0265,-0.217386 0.05687,-0.462165 0.01671,-0.134156 0.02771,-0.246084 0.03245,-0.320144 0.01093,-0.1964 0.01093,-0.1964 0.02327,-0.413421 0.0084,-0.16475 0.01689,-0.30912 0.02462,-0.419139 0.0057,-0.0943 0.01039,-0.201049 0.01421,-0.331677 0.007,-0.199379 0.007,-0.199379 0.01299,-0.390726 0.0063,-0.203486 0.0063,-0.203486 0.01316,-0.409204 0.0061,-0.216774 0.0061,-0.216774 0.01184,-0.383811 0.0052,-0.179528 0.0052,-0.179528 0.01186,-0.37826 0.0031,-0.113253 0.0031,-0.2723 -3.93e-4,-0.473238 -0.0034,-0.192712 -0.0086,-0.329557 -0.01505,-0.410411 -0.0052,-0.07182 -0.01314,-0.146889 -0.02395,-0.225176 -0.0166,-0.120239 -0.03888,-0.288929 -0.06608,-0.499948 -0.02599,-0.194566 -0.05406,-0.380539 -0.08553,-0.565989 -0.03005,-0.182346 -0.06236,-0.363133 -0.09816,-0.548895 -0.03694,-0.195696 -0.07191,-0.383127 -0.103232,-0.553319 -0.0369,-0.194469 -0.06964,-0.383078 -0.09663,-0.556088 -0.02386,-0.147138 -0.05095,-0.299281 -0.0813,-0.456384 -0.03215,-0.166405 -0.06573,-0.334417 -0.100763,-0.504034 -0.05366,-0.259113 -0.05366,-0.259113 -0.105723,-0.507573 -0.02814,-0.134704 -0.06254,-0.278871 -0.103286,-0.432234 -0.04966,-0.186897 -0.09733,-0.369703 -0.140147,-0.537319 -0.03974,-0.151126 -0.08096,-0.296382 -0.120839,-0.42677 C 53.741062,9.714145 53.693032,9.568788 53.641777,9.421642 53.586717,9.263568 53.534212,9.115511 53.48775,8.987003 53.44475,8.870362 53.39799,8.753251 53.347414,8.635661 53.290034,8.502235 53.232822,8.373035 53.169768,8.234701 53.120998,8.125271 53.066289,8.011221 52.999417,7.880483 52.933697,7.74945 52.870331,7.62748 52.812101,7.519627 52.756521,7.417541 52.699154,7.318304 52.643308,7.227252 52.598988,7.155632 52.555298,7.089132 52.506765,7.01992 52.464845,6.97844 52.424135,6.93484 52.384692,6.889014 51.877605,6.788561 51.504042,6.489454 51.288398,6.091866 c -0.0503,-0.02047 -0.159049,-0.0557 -0.324142,-0.10279 z m 1.402915,0.863559 c -0.0034,-0.0022 -0.0067,-0.0044 -0.01002,-0.0066 0.01044,0.007 0.01817,0.01223 0.02352,0.01575 z"
       id="path8"
       style="fill:#ffffff;fill-opacity:1;fill-rule:nonzero;stroke:none;stroke-width:1;stroke-opacity:1" />
    <path
       d="m 30.870717,88.042377 c 0.04054,0.115859 0.09308,0.258733 0.159802,0.434126 0.05959,0.158701 0.109446,0.28417 0.147896,0.373254 0.05691,0.13188 0.115244,0.273399 0.175127,0.424782 0.08157,0.206228 0.08157,0.206228 0.161948,0.409622 0.08752,0.218112 0.08752,0.218112 0.179918,0.449305 0.05886,0.147396 0.118006,0.292216 0.180661,0.442194 0.06689,0.162409 0.135728,0.33573 0.208187,0.524255 0.05995,0.157262 0.11818,0.303062 0.177739,0.444892 0.06112,0.147607 0.123879,0.297583 0.188268,0.449924 0.06802,0.160935 0.1264,0.300809 0.182074,0.436837 0.04279,0.107757 0.09324,0.232313 0.151239,0.373361 0.0848,0.205746 0.0848,0.205746 0.15961,0.385274 0.06569,0.162282 0.06569,0.162282 0.134621,0.332799 0.04521,0.110538 0.09064,0.219009 0.129141,0.309032 0.07554,0.171247 0.07554,0.171247 0.145237,0.33069 0.042,0.09631 0.10434,0.237025 0.188231,0.424793 0.08475,0.191059 0.160905,0.363695 0.230623,0.522879 0.06041,0.139162 0.119647,0.27071 0.177646,0.394582 0.07127,0.152222 0.135305,0.294043 0.192212,0.425893 0.03702,0.08577 0.07854,0.174324 0.127791,0.271885 0.06747,0.135073 0.127323,0.259235 0.179781,0.373134 l 0.06735,0.146238 c 0.365341,0.79326 0.04592,1.758139 -0.713457,2.155118 -0.759372,0.39698 -1.671133,0.07573 -2.036474,-0.717527 l -0.06735,-0.146238 c -0.03734,-0.08109 -0.08265,-0.175069 -0.132531,-0.274965 -0.07477,-0.148038 -0.14373,-0.295132 -0.206846,-0.441368 -0.04323,-0.100163 -0.09388,-0.212353 -0.151842,-0.336136 -0.07123,-0.152133 -0.142978,-0.311466 -0.213168,-0.473177 -0.06544,-0.149414 -0.139596,-0.317506 -0.220641,-0.500222 -0.08574,-0.1919 -0.151629,-0.340611 -0.198222,-0.44746 -0.06622,-0.151485 -0.06622,-0.151485 -0.145894,-0.33232 -0.05287,-0.123281 -0.105344,-0.248579 -0.159915,-0.382029 -0.07117,-0.175987 -0.07117,-0.175987 -0.129077,-0.319389 -0.07241,-0.173555 -0.07241,-0.173555 -0.160401,-0.387043 -0.06269,-0.152482 -0.117975,-0.288959 -0.159167,-0.392954 -0.0441,-0.107539 -0.09813,-0.236992 -0.161931,-0.387943 -0.06744,-0.159545 -0.133232,-0.316794 -0.194207,-0.464098 -0.07086,-0.168674 -0.142487,-0.34804 -0.213415,-0.534099 -0.06191,-0.161069 -0.121294,-0.310583 -0.174849,-0.44067 -0.06615,-0.158281 -0.131831,-0.319089 -0.197053,-0.48243 -0.09124,-0.228279 -0.09124,-0.228279 -0.180769,-0.451474 -0.08355,-0.211357 -0.08355,-0.211357 -0.164955,-0.417164 -0.04805,-0.121461 -0.09376,-0.23237 -0.136976,-0.332505 -0.06169,-0.142931 -0.129982,-0.314791 -0.204015,-0.512009 -0.07392,-0.19426 -0.136293,-0.363895 -0.184075,-0.50053 -0.05476,-0.153388 -0.104475,-0.302544 -0.152486,-0.458606 -0.09724,-0.323821 -0.131347,-0.662157 -0.101812,-1.001734 0.01399,-0.161711 0.03237,-0.319656 0.05525,-0.473861 0.02676,-0.180296 0.02676,-0.180296 0.05697,-0.383523 0.01397,-0.08944 0.0249,-0.179352 0.03264,-0.268999 0.01644,-0.190379 0.01644,-0.190379 0.03256,-0.378698 0.01162,-0.136206 0.02585,-0.285486 0.04151,-0.436851 0.015,-0.155537 0.03238,-0.330324 0.05127,-0.515439 0.0193,-0.200146 0.03646,-0.365401 0.05333,-0.511091 0.01646,-0.133355 0.03402,-0.262593 0.0526,-0.387777 0.0243,-0.165303 0.0243,-0.165303 0.05264,-0.364898 0.02207,-0.148707 0.04596,-0.294694 0.07171,-0.437547 0.0356,-0.197624 0.0356,-0.197624 0.07232,-0.398365 0.03774,-0.213405 0.03774,-0.213405 0.07244,-0.406714 0.03493,-0.193799 0.03493,-0.193799 0.07541,-0.418069 0.026,-0.143833 0.0509,-0.290525 0.07341,-0.429913 l 0.03719,-0.240344 c 0.01858,-0.120175 0.01858,-0.120175 0.03879,-0.250459 0.03915,-0.24401 0.03915,-0.24401 0.08134,-0.508532 0.02701,-0.169762 0.0528,-0.343481 0.07734,-0.521148 0.02736,-0.197975 0.05462,-0.385743 0.08362,-0.572966 0.02376,-0.148538 0.04948,-0.330733 0.07761,-0.552196 0.0306,-0.233426 0.05814,-0.438723 0.08244,-0.616109 0.02146,-0.156856 0.04337,-0.337878 0.06623,-0.549631 0.02323,-0.206928 0.04454,-0.416833 0.06466,-0.637427 0.02268,-0.236861 0.04875,-0.482374 0.0782,-0.736591 0.0262,-0.22626 0.04769,-0.438702 0.06511,-0.644745 0.01971,-0.221553 0.04135,-0.452615 0.06498,-0.693575 0.02306,-0.234766 0.04499,-0.461842 0.06509,-0.673799 0.02084,-0.230688 0.04324,-0.458083 0.06725,-0.682514 0.02181,-0.203519 0.04315,-0.426495 0.06397,-0.668705 0.02264,-0.26339 0.04508,-0.501617 0.06737,-0.715059 0.02018,-0.193163 0.03918,-0.391317 0.05703,-0.594445 0.02852,-0.325298 0.02852,-0.325298 0.05895,-0.67382 0.02886,-0.345459 0.02886,-0.345459 0.05084,-0.600846 0.01232,-0.152484 0.02511,-0.32801 0.03776,-0.517497 0.01354,-0.22029 0.02869,-0.423666 0.04471,-0.600866 0.01348,-0.159688 0.02538,-0.318007 0.03564,-0.474106 0.01621,-0.246109 0.01621,-0.246109 0.03045,-0.452201 0.009,-0.144164 0.01903,-0.292239 0.03029,-0.445116 0.0096,-0.130313 0.01653,-0.243162 0.02063,-0.337669 0.0066,-0.151252 0.01807,-0.300649 0.03454,-0.447568 0.01463,-0.13061 0.03538,-0.286062 0.06412,-0.479018 0.0275,-0.177804 0.05346,-0.335005 0.07825,-0.472046 0.03189,-0.177442 0.03189,-0.177442 0.06362,-0.357196 0.106127,-0.575298 0.437576,-1.054871 0.901864,-1.346256 0.492539,-0.31295 0.988686,-0.343378 1.546007,-0.240096 0.827624,0.153372 1.369961,0.985974 1.211344,1.859661 -0.09224,0.508052 -0.401187,0.918123 -0.80636,1.142211 -0.01224,0.08731 -0.02162,0.16067 -0.02821,0.219352 -0.0079,0.07021 -0.0135,0.142736 -0.01671,0.217627 -0.0057,0.131629 -0.01464,0.278478 -0.02667,0.440563 -0.01026,0.139223 -0.01946,0.274345 -0.02844,0.418303 -0.0145,0.210348 -0.0145,0.210348 -0.03032,0.450509 -0.01169,0.178039 -0.02517,0.357343 -0.04127,0.54758 -0.01383,0.153101 -0.02658,0.324555 -0.03878,0.522681 -0.01421,0.213233 -0.02814,0.404363 -0.04267,0.583973 -0.02215,0.257546 -0.02215,0.257546 -0.05119,0.605152 -0.03109,0.356361 -0.03109,0.356361 -0.05972,0.682913 -0.01945,0.221467 -0.04024,0.438142 -0.06236,0.650039 -0.02005,0.191611 -0.04054,0.409508 -0.06149,0.653298 -0.02279,0.264968 -0.04637,0.511392 -0.07077,0.739164 -0.022,0.205466 -0.04255,0.414356 -0.06242,0.634071 -0.02116,0.223318 -0.04347,0.45426 -0.06686,0.692472 -0.02261,0.230702 -0.04332,0.451673 -0.06145,0.655294 -0.01981,0.234607 -0.04481,0.481935 -0.07496,0.74217 -0.02689,0.23228 -0.05061,0.455444 -0.07038,0.661731 -0.02152,0.236237 -0.04522,0.46962 -0.0703,0.692975 -0.02541,0.235213 -0.05109,0.448024 -0.07726,0.63906 -0.02338,0.170498 -0.04999,0.369548 -0.07897,0.590021 -0.03154,0.248632 -0.06223,0.466273 -0.09092,0.64462 -0.02456,0.159199 -0.04931,0.329115 -0.07423,0.509663 -0.02769,0.200863 -0.05694,0.39795 -0.08778,0.591372 -0.04252,0.26673 -0.04252,0.26673 -0.08053,0.503083 l -0.03719,0.240343 c -0.01858,0.120175 -0.01858,0.120175 -0.03879,0.25046 -0.02745,0.170663 -0.05602,0.338631 -0.08588,0.503886 -0.04044,0.224126 -0.04044,0.224126 -0.07542,0.418156 -0.0333,0.185572 -0.0333,0.185572 -0.07197,0.403924 -0.03779,0.206932 -0.03779,0.206932 -0.07234,0.398647 -0.0196,0.108911 -0.03792,0.220793 -0.05314,0.323305 -0.0281,0.198218 -0.0281,0.198218 -0.05447,0.377227 -0.01447,0.0975 -0.0283,0.19955 -0.03987,0.29246 -0.01251,0.108121 -0.0276,0.25337 -0.04589,0.443102 -0.01917,0.188432 -0.03599,0.357267 -0.0515,0.517684 -0.01487,0.143761 -0.02718,0.273467 -0.03704,0.38881 -0.01627,0.190024 -0.01627,0.190024 -0.03292,0.382895 -0.01455,0.167212 -0.03475,0.33368 -0.05868,0.486613 l -0.05503,0.370806 c -0.0067,0.0449 -0.01272,0.09108 -0.01815,0.13865 0.01942,0.05868 0.0407,0.120451 0.06442,0.186979 z"
       id="path10"
       style="fill:#ffffff;fill-opacity:1;fill-rule:nonzero;stroke:none;stroke-width:1;stroke-opacity:1" />
    <path
       d="m 64.17371,88.986884 c -0.08612,-0.04768 -0.170938,-0.09308 -0.254432,-0.136224 -0.19893,-0.102795 -0.390987,-0.230792 -0.591243,-0.389803 -0.157967,-0.127085 -0.304908,-0.258265 -0.449211,-0.402641 -0.132498,-0.134527 -0.261798,-0.280942 -0.381608,-0.430587 -0.126939,-0.156264 -0.250302,-0.324467 -0.370606,-0.504656 -0.109185,-0.163526 -0.220584,-0.340844 -0.334603,-0.532267 -0.103514,-0.173782 -0.211207,-0.356995 -0.323113,-0.549669 -0.117347,-0.202035 -0.209069,-0.364527 -0.270573,-0.479315 -0.04967,-0.09064 -0.09763,-0.174709 -0.144726,-0.253541 -0.06377,-0.106986 -0.132564,-0.225738 -0.21313,-0.368191 -0.07043,-0.126876 -0.144418,-0.261728 -0.221976,-0.404611 -0.10888,-0.200059 -0.10888,-0.200059 -0.21182,-0.387113 -0.07582,-0.137369 -0.150867,-0.277301 -0.230441,-0.43005 -0.06507,-0.127043 -0.137942,-0.267563 -0.218563,-0.421445 -0.08006,-0.152813 -0.157745,-0.299115 -0.23267,-0.438245 -0.08159,-0.151339 -0.175075,-0.328073 -0.27712,-0.523811 C 59.33843,82.12726 59.242173,81.939731 59.163289,81.780376 59.04124,81.53736 59.04124,81.53736 58.902732,81.260254 c -0.09186,-0.183894 -0.184909,-0.367835 -0.282768,-0.559025 -0.105603,-0.208859 -0.209952,-0.426457 -0.313111,-0.65284 -0.09758,-0.214153 -0.188783,-0.418163 -0.27696,-0.619829 -0.08435,-0.195717 -0.17055,-0.400674 -0.258356,-0.614775 -0.126974,-0.30947 -0.126974,-0.30947 -0.252232,-0.615128 -0.08221,-0.200709 -0.16406,-0.399265 -0.248547,-0.60304 -0.124652,-0.304969 -0.124652,-0.304969 -0.255823,-0.626446 -0.09309,-0.225127 -0.185403,-0.45003 -0.27434,-0.66808 -0.09544,-0.231101 -0.188076,-0.46121 -0.280421,-0.697116 -0.0839,-0.217168 -0.170009,-0.437972 -0.258322,-0.662411 -0.09452,-0.240211 -0.181052,-0.46831 -0.259608,-0.68447 -0.07259,-0.199744 -0.148636,-0.407194 -0.228138,-0.622335 -0.120816,-0.32671 -0.120816,-0.32671 -0.246456,-0.665455 -0.07464,-0.204056 -0.148015,-0.394361 -0.216915,-0.563257 -0.116772,-0.28239 -0.116772,-0.28239 -0.214746,-0.520424 -0.09449,-0.230192 -0.09449,-0.230192 -0.205325,-0.499881 -0.07097,-0.175503 -0.137891,-0.339504 -0.200774,-0.491936 -0.09311,-0.225913 -0.09311,-0.225913 -0.171497,-0.416301 -0.07403,-0.180102 -0.07403,-0.180102 -0.145189,-0.354113 -0.04041,-0.0988 -0.09846,-0.235126 -0.176888,-0.414514 -0.14088,-0.326946 -0.238584,-0.715362 -0.315377,-1.19438 -0.142815,-0.890898 0.47333,-1.736775 1.376199,-1.889321 0.902867,-0.152544 1.75056,0.44601 1.893375,1.336908 0.03834,0.239208 0.077,0.392818 0.09031,0.423801 0.08453,0.193436 0.152245,0.352201 0.203703,0.478171 0.06982,0.170504 0.06982,0.170504 0.142621,0.347847 0.07749,0.188272 0.07749,0.188272 0.169999,0.41268 0.06584,0.159716 0.135678,0.330688 0.205937,0.504553 0.107504,0.261553 0.107504,0.261553 0.202046,0.491839 0.0959,0.233088 0.0959,0.233088 0.214449,0.519716 0.08729,0.213949 0.174803,0.440851 0.259932,0.673663 0.12381,0.333777 0.12381,0.333777 0.245485,0.662809 0.08145,0.220424 0.159463,0.433253 0.234049,0.638494 0.06862,0.188824 0.145212,0.390717 0.229725,0.605516 0.09073,0.230567 0.179252,0.457561 0.262945,0.674241 0.08244,0.210552 0.167611,0.422214 0.258221,0.641572 0.08983,0.220085 0.180278,0.440469 0.274251,0.667882 0.133518,0.327156 0.133518,0.327156 0.254616,0.623497 0.08319,0.200701 0.166808,0.403494 0.250762,0.608424 0.124869,0.304696 0.124869,0.304696 0.251549,0.613465 0.08088,0.197021 0.159594,0.384466 0.232905,0.554513 0.07819,0.178621 0.162709,0.367898 0.253803,0.567641 0.08546,0.187539 0.171072,0.366013 0.253044,0.528235 0.099,0.193372 0.196795,0.386718 0.293521,0.580334 0.136872,0.273836 0.136872,0.273836 0.260997,0.521028 0.07035,0.141942 0.15424,0.305483 0.255155,0.496809 0.09921,0.190267 0.185937,0.354233 0.260274,0.492105 0.08117,0.150711 0.164549,0.307753 0.250155,0.471152 0.08506,0.162326 0.162469,0.311611 0.227003,0.437713 0.06257,0.120028 0.125558,0.237486 0.18897,0.35237 0.108711,0.197539 0.108711,0.197539 0.222663,0.406919 0.07286,0.134221 0.141985,0.26022 0.200848,0.366363 0.06281,0.110959 0.119707,0.209178 0.169563,0.292821 0.06744,0.11287 0.135352,0.231809 0.210468,0.369122 0.04813,0.08964 0.12347,0.223195 0.224163,0.396555 0.106123,0.182725 0.207859,0.355796 0.30518,0.519179 0.08681,0.145745 0.16905,0.276646 0.246336,0.392388 0.06616,0.09908 0.130385,0.186658 0.199115,0.271328 0.03301,0.04121 0.065,0.07917 0.09445,0.11243 0.390798,-0.07605 0.787414,-0.05831 1.160413,0.04728 0.161758,0.0448 0.351145,0.102265 0.57647,0.174765 0.176559,0.05752 0.306852,0.09755 0.382399,0.118136 0.118807,0.03236 0.257673,0.07203 0.409495,0.116856 0.131835,0.03817 0.257245,0.07231 0.36676,0.100102 0.121799,0.03012 0.252079,0.06036 0.3842,0.08926 0.159496,0.03419 0.324488,0.07046 0.488909,0.107451 0.148018,0.03271 0.28571,0.0608 0.412827,0.0843 0.135794,0.0251 0.274076,0.04924 0.405476,0.07088 0.144871,0.02298 0.291219,0.04535 0.442279,0.06757 0.129488,0.01931 0.238826,0.03322 0.339005,0.0431 0.138223,0.01464 0.28633,0.0332 0.444771,0.05566 0.119626,0.01695 0.230004,0.03061 0.342974,0.0423 0.09119,0.01008 0.183745,0.01761 0.296588,0.02367 0.09882,0.0063 0.251118,0.01214 0.45484,0.01691 0.185422,0.0047 0.353386,0.004 0.498094,-0.0016 0.126577,-0.0053 0.237875,-0.01566 0.325658,-0.02906 l 0.235782,-0.03715 c 0.90442,-0.14249 1.745114,0.465561 1.877741,1.358122 0.132627,0.892562 -0.493035,1.731637 -1.397456,1.874129 l -0.243349,0.03832 c -0.221836,0.03391 -0.454996,0.0556 -0.70531,0.06608 -0.224685,0.0087 -0.463946,0.0097 -0.714934,0.0033 -0.241623,-0.0057 -0.43544,-0.01304 -0.568123,-0.02165 -0.157478,-0.0083 -0.313661,-0.02101 -0.456379,-0.03683 -0.144342,-0.01489 -0.296395,-0.03369 -0.456459,-0.05638 -0.121248,-0.01719 -0.230825,-0.03092 -0.315559,-0.03994 -0.147361,-0.01447 -0.310809,-0.03525 -0.488852,-0.06181 -0.160131,-0.02356 -0.318822,-0.04781 -0.485444,-0.07427 -0.162215,-0.02668 -0.322057,-0.05458 -0.479529,-0.08369 -0.166145,-0.03071 -0.341235,-0.06644 -0.531605,-0.108516 -0.159854,-0.03596 -0.314001,-0.06984 -0.46896,-0.103069 -0.167322,-0.03657 -0.326829,-0.0736 -0.487981,-0.113485 -0.155592,-0.03944 -0.316603,-0.08328 -0.491273,-0.13387 -0.139315,-0.04111 -0.256662,-0.07463 -0.351025,-0.100336 -0.131316,-0.03577 -0.297835,-0.08673 -0.501873,-0.152926 -0.518402,0.267065 -1.157209,0.27359 -1.716552,-0.03603 z m 1.581971,-2.895517 c 0.02091,0.01144 0.04185,0.02296 0.06282,0.03457 -0.01922,-0.01064 -0.03863,-0.02079 -0.05821,-0.03044 z"
       id="path12"
       style="fill:#ffffff;fill-opacity:1;fill-rule:nonzero;stroke:none;stroke-width:1;stroke-opacity:1" />
    <path
       d="m 35.080002,45.542864 c 0.821799,0.390936 1.154898,1.341684 0.743999,2.123555 -0.169215,0.321988 -0.29968,0.547375 -0.422502,0.716158 -0.145979,0.20161 -0.318887,0.384638 -0.508526,0.54273 -0.312843,0.26382 -0.687446,0.44384 -1.111969,0.522333 -0.235332,0.04185 -0.474052,0.0586 -0.713913,0.0503 -0.253501,-0.0088 -0.508969,-0.04928 -0.781507,-0.119862 -0.292762,-0.07783 -0.577206,-0.197581 -0.857031,-0.354497 -0.195077,-0.109393 -0.399862,-0.234088 -0.613579,-0.373151 -0.241136,-0.156483 -0.429068,-0.290761 -0.57235,-0.413501 -0.139442,-0.118013 -0.139442,-0.118013 -0.306411,-0.26034 -0.136146,-0.116215 -0.264233,-0.231343 -0.384317,-0.345592 -0.125647,-0.119543 -0.247531,-0.243927 -0.364838,-0.372213 -0.09667,-0.105555 -0.204883,-0.224635 -0.329634,-0.362771 -0.130476,-0.145775 -0.251395,-0.286129 -0.362863,-0.421317 -0.114132,-0.138418 -0.226951,-0.282523 -0.337064,-0.430359 -0.150571,-0.201367 -0.150571,-0.201367 -0.319715,-0.427085 -0.17278,-0.228173 -0.17278,-0.228173 -0.317182,-0.417956 -0.102865,-0.134989 -0.217939,-0.291237 -0.348525,-0.473174 -0.130801,-0.183335 -0.26368,-0.37711 -0.40002,-0.583328 -0.13135,-0.199303 -0.260403,-0.40071 -0.390477,-0.609569 -0.126666,-0.205196 -0.247875,-0.408094 -0.36876,-0.617689 -0.119111,-0.20965 -0.246352,-0.447325 -0.378787,-0.706845 -0.140257,-0.27137 -0.261101,-0.520668 -0.358751,-0.740139 -0.103541,-0.228684 -0.206432,-0.478021 -0.306295,-0.741019 -0.0997,-0.258408 -0.196849,-0.524812 -0.292719,-0.802858 -0.09534,-0.278755 -0.182218,-0.553361 -0.259382,-0.819652 -0.07885,-0.269181 -0.156957,-0.559878 -0.234817,-0.873618 -0.07745,-0.313176 -0.149156,-0.629915 -0.215122,-0.950211 -0.09193,-0.446485 -0.09193,-0.446485 -0.179596,-0.872659 -0.06131,-0.298158 -0.121609,-0.621441 -0.181927,-0.97557 -0.05798,-0.347984 -0.109904,-0.690041 -0.156404,-1.031078 -0.04445,-0.334061 -0.0881,-0.699475 -0.131486,-1.10064 -0.04104,-0.389383 -0.07566,-0.73014 -0.103946,-1.023062 -0.02905,-0.301938 -0.05834,-0.658859 -0.088,-1.071741 -0.02973,-0.413839 -0.05188,-0.779394 -0.06615,-1.091915 -0.01529,-0.309666 -0.02946,-0.643439 -0.04234,-0.997031 -0.01491,-0.378573 -0.02006,-0.759129 -0.01548,-1.141645 0.0043,-0.360923 0.0097,-0.700605 0.01635,-1.024218 0.0076,-0.319188 0.01683,-0.638879 0.02768,-0.958909 0.01633,-0.479855 0.01633,-0.479855 0.03373,-0.977933 0.01218,-0.346679 0.02773,-0.677355 0.04665,-0.991819 0.02045,-0.341039 0.05614,-0.700391 0.106235,-1.073887 0.04639,-0.3541 0.09506,-0.695669 0.1452,-1.019129 0.05201,-0.344193 0.114275,-0.693588 0.185811,-1.043577 0.06796,-0.337903 0.135501,-0.659714 0.202877,-0.966561 0.06685,-0.303437 0.140126,-0.6239 0.221141,-0.96701 0.08115,-0.338062 0.161891,-0.66204 0.241278,-0.968279 0.08048,-0.313741 0.16805,-0.635842 0.261739,-0.963015 0.09307,-0.32784 0.191597,-0.659614 0.295574,-0.995328 0.10237,-0.330528 0.201089,-0.642394 0.296187,-0.935665 0.09856,-0.303956 0.202772,-0.606784 0.311489,-0.905348 0.107362,-0.296862 0.221263,-0.59859 0.339934,-0.900696 0.120832,-0.310503 0.239992,-0.602027 0.356743,-0.87271 0.113866,-0.265049 0.22733,-0.522553 0.342754,-0.777689 0.11723,-0.256637 0.23796,-0.509663 0.36595,-0.766561 0.123881,-0.24539 0.250112,-0.487195 0.378687,-0.725413 0.124089,-0.229906 0.242908,-0.447703 0.36119,-0.661889 0.116356,-0.207701 0.237524,-0.419838 0.362164,-0.634118 0.127232,-0.219605 0.249968,-0.425706 0.370384,-0.621781 0.117354,-0.190023 0.228082,-0.365063 0.335048,-0.529444 0.09511,-0.145177 0.190774,-0.292399 0.284433,-0.4376711 0.103497,-0.1616172 0.198188,-0.3067328 0.282353,-0.4327117 0.09276,-0.1395314 0.182201,-0.2677861 0.264123,-0.3787602 0.09332,-0.1278031 0.192438,-0.2535352 0.285076,-0.3626511 0.08821,-0.1066027 0.194645,-0.2315348 0.320102,-0.3758538 0.141202,-0.162431 0.271447,-0.3034189 0.386631,-0.4180649 0.180572,-0.1819039 0.376898,-0.3397077 0.580047,-0.4634337 0.700407,-0.434269 1.64495,-0.5508306 2.355674,0.3914061 0.377958,0.5010749 0.383341,0.8810228 0.281291,1.3767624 -0.04194,0.1981415 -0.09067,0.3828625 -0.142353,0.5396651 -0.02237,0.070524 -0.04324,0.1499594 -0.06466,0.2493919 l -0.04488,0.201282 c -0.165556,0.742556 -0.853299,1.252147 -1.620016,1.25468 -0.01455,0.0226 -0.0294,0.04572 -0.04454,0.06936 -0.100376,0.155707 -0.200242,0.309391 -0.296913,0.45694 -0.09018,0.138605 -0.187812,0.292934 -0.290636,0.459422 -0.103895,0.169181 -0.213021,0.352428 -0.328609,0.551931 -0.117632,0.202235 -0.230463,0.399776 -0.333782,0.584143 -0.10867,0.196839 -0.22278,0.406003 -0.342306,0.627455 -0.11504,0.213141 -0.228149,0.429811 -0.335569,0.642524 -0.108696,0.218215 -0.214485,0.439928 -0.315016,0.659983 -0.104894,0.231883 -0.21047,0.471484 -0.317591,0.72083 -0.102478,0.237595 -0.2077,0.49502 -0.317287,0.776605 -0.110359,0.280965 -0.214429,0.55665 -0.313352,0.830167 -0.09743,0.267586 -0.189825,0.536071 -0.277179,0.805463 -0.09082,0.280076 -0.185496,0.579171 -0.284,0.897217 -0.0969,0.312859 -0.188563,0.621526 -0.275947,0.929323 -0.087,0.30384 -0.167191,0.598799 -0.241523,0.888539 -0.07566,0.291869 -0.151988,0.598166 -0.227648,0.913295 -0.07631,0.323212 -0.146212,0.628958 -0.209478,0.916101 -0.06321,0.287897 -0.127098,0.592295 -0.192566,0.917755 -0.06216,0.304126 -0.115289,0.602289 -0.160301,0.900093 -0.04731,0.30526 -0.09265,0.623446 -0.136628,0.959104 -0.04118,0.307087 -0.0696,0.593259 -0.0855,0.8584 -0.01739,0.289078 -0.03176,0.594776 -0.04309,0.917003 -0.01733,0.49613 -0.01733,0.49613 -0.03359,0.974051 -0.01051,0.310081 -0.01945,0.619649 -0.0267,0.923584 -0.0063,0.309749 -0.0116,0.641004 -0.01582,0.993716 -0.004,0.331118 4.93e-4,0.660131 0.01353,0.991454 0.01259,0.345481 0.02621,0.666382 0.0411,0.968119 0.01325,0.289864 0.03384,0.629811 0.06181,1.019065 0.02803,0.39021 0.05538,0.723542 0.08184,0.998513 0.02732,0.282964 0.06108,0.615177 0.100813,0.992245 0.0404,0.373509 0.08115,0.714614 0.121525,1.018139 0.04178,0.306326 0.08923,0.618941 0.141452,0.932431 0.05385,0.316108 0.107885,0.605819 0.161967,0.868809 0.08757,0.425714 0.08757,0.425714 0.179415,0.871781 0.05798,0.281515 0.120903,0.559471 0.188471,0.832682 0.06775,0.272999 0.134955,0.523119 0.202645,0.75423 0.06479,0.223558 0.137112,0.452156 0.215761,0.68213 0.08274,0.239964 0.16724,0.471681 0.256341,0.702671 0.08103,0.213348 0.159781,0.404187 0.23978,0.580953 0.07568,0.17004 0.170674,0.366001 0.288336,0.5937 0.116108,0.227487 0.221797,0.424905 0.311245,0.582413 0.100087,0.173478 0.205397,0.349762 0.312617,0.52348 0.112585,0.180756 0.227147,0.359547 0.342413,0.534449 0.114958,0.173875 0.226762,0.336917 0.332654,0.485351 0.111403,0.155199 0.208957,0.287658 0.292008,0.396646 0.148364,0.194991 0.148364,0.194991 0.327988,0.432231 0.17457,0.232933 0.17457,0.232933 0.328372,0.438624 0.08076,0.10842 0.161334,0.211342 0.241667,0.30877 0.083,0.100656 0.175774,0.208346 0.273349,0.317388 0.115195,0.127532 0.218537,0.241248 0.310725,0.341914 0.06781,0.07415 0.137184,0.144953 0.208139,0.21246 0.07652,0.0728 0.161059,0.148788 0.253569,0.227755 0.16159,0.137739 0.16159,0.137739 0.301629,0.256292 0.01906,0.01632 0.10145,0.07519 0.231723,0.159729 0.07107,0.04625 0.139266,0.08939 0.204497,0.129415 0.436641,-0.719424 1.392596,-0.999355 2.183956,-0.622899 z"
       id="path14"
       style="fill:#ffffff;fill-opacity:1;fill-rule:nonzero;stroke:none;stroke-width:1;stroke-opacity:1" />
    <path
       d="m 53.550152,45.092877 c 0.107797,-0.04448 0.222884,-0.0959 0.33679,-0.15034 0.115362,-0.05599 0.231516,-0.117327 0.352544,-0.186419 0.126296,-0.07161 0.272453,-0.15942 0.44084,-0.265167 0.165237,-0.1032 0.320123,-0.204662 0.470283,-0.308161 0.156324,-0.106768 0.330079,-0.227992 0.52102,-0.363531 0.186991,-0.132734 0.371507,-0.267402 0.556785,-0.406423 0.179095,-0.133681 0.375578,-0.286103 0.585543,-0.454246 0.221991,-0.17881 0.419262,-0.339563 0.591606,-0.48207 0.147902,-0.122295 0.326992,-0.282478 0.534838,-0.47914 0.220583,-0.208715 0.422579,-0.405377 0.60882,-0.592758 0.184266,-0.184437 0.364072,-0.370206 0.53653,-0.55421 0.175237,-0.187961 0.375171,-0.409887 0.597111,-0.662868 0.223901,-0.256224 0.425119,-0.492983 0.600714,-0.706595 0.18077,-0.221111 0.364297,-0.450677 0.550053,-0.688038 0.176795,-0.226146 0.355358,-0.465967 0.539691,-0.72517 0.185156,-0.258026 0.357018,-0.505591 0.513802,-0.739949 0.165995,-0.249166 0.340789,-0.514215 0.522097,-0.791648 0.180662,-0.277984 0.353639,-0.548476 0.518924,-0.811452 0.172772,-0.27489 0.352168,-0.557046 0.534465,-0.840651 0.178585,-0.280449 0.346898,-0.548145 0.502466,-0.799074 0.158223,-0.256853 0.336578,-0.549187 0.534969,-0.876857 0.19651,-0.324562 0.366819,-0.609939 0.510711,-0.855718 0.144196,-0.2463 0.297818,-0.513354 0.462043,-0.803266 0.161344,-0.283811 0.318669,-0.567006 0.473169,-0.851776 0.160671,-0.295085 0.312213,-0.570825 0.457145,-0.831734 0.137275,-0.245348 0.270477,-0.487459 0.399605,-0.726325 0.138196,-0.255639 0.280546,-0.512739 0.424525,-0.766837 0.200712,-0.356832 0.200712,-0.356832 0.367035,-0.652505 0.160324,-0.282073 0.160324,-0.282073 0.342902,-0.602711 0.180561,-0.314588 0.180561,-0.314588 0.341601,-0.596 0.102984,-0.181142 0.202388,-0.358517 0.296696,-0.529368 0.0939,-0.17089 0.174906,-0.320932 0.24524,-0.454279 0.07846,-0.147634 0.163472,-0.303202 0.257456,-0.471064 0.08064,-0.14306 0.14837,-0.265715 0.202811,-0.367179 0.05788,-0.107869 0.117354,-0.220013 0.181194,-0.341682 0.06912,-0.130611 0.153483,-0.285549 0.249931,-0.459238 0.09165,-0.166877 0.163844,-0.299507 0.222092,-0.40804 l 0.08438,-0.154509 c 0.430434,-0.788187 1.401108,-1.068544 2.168062,-0.626194 0.766954,0.44235 1.039758,1.439898 0.609324,2.228085 l -0.07835,0.143362 c -0.05824,0.108627 -0.135373,0.250328 -0.235558,0.432708 -0.09014,0.16236 -0.164305,0.298571 -0.219234,0.402343 -0.06576,0.125343 -0.130034,0.246539 -0.192843,0.363601 -0.06625,0.123467 -0.144775,0.265685 -0.233587,0.42322 -0.08021,0.143272 -0.153725,0.277802 -0.218051,0.398825 -0.07735,0.146661 -0.167145,0.312994 -0.271126,0.502218 -0.102596,0.185873 -0.208768,0.375325 -0.320497,0.571838 -0.164778,0.287957 -0.164778,0.287957 -0.343862,0.599953 -0.178827,0.314075 -0.178827,0.314075 -0.33466,0.588214 -0.162884,0.289589 -0.162884,0.289589 -0.366131,0.65091 -0.135781,0.239646 -0.267533,0.477604 -0.395256,0.713871 -0.136791,0.25304 -0.27769,0.509142 -0.420215,0.763858 -0.137789,0.248065 -0.284895,0.515733 -0.440089,0.800756 -0.163749,0.301822 -0.331664,0.604079 -0.502492,0.90457 -0.170445,0.300895 -0.331836,0.581455 -0.484241,0.841775 -0.15271,0.260843 -0.331164,0.559866 -0.535579,0.897485 -0.202532,0.334511 -0.385214,0.633936 -0.550591,0.902389 -0.165174,0.266438 -0.34051,0.545304 -0.529759,0.842472 -0.180124,0.280251 -0.353582,0.553067 -0.520368,0.818433 -0.174273,0.277279 -0.356195,0.561757 -0.548031,0.856924 -0.188722,0.288788 -0.368828,0.561893 -0.542093,0.821966 -0.178981,0.267543 -0.371224,0.544467 -0.572672,0.825172 -0.20841,0.293088 -0.416452,0.572501 -0.624724,0.838909 -0.200342,0.256 -0.398307,0.503625 -0.596654,0.746229 -0.200089,0.243419 -0.422296,0.504873 -0.668902,0.787077 -0.244405,0.278591 -0.465851,0.524396 -0.667839,0.741043 -0.198981,0.212312 -0.402713,0.4228 -0.608214,0.628483 -0.20743,0.208708 -0.43295,0.428274 -0.676702,0.658911 -0.25649,0.242689 -0.487528,0.449335 -0.695549,0.621342 -0.183579,0.151796 -0.391322,0.321082 -0.626948,0.510867 -0.240634,0.192712 -0.46553,0.367176 -0.671854,0.521174 -0.20456,0.153497 -0.411763,0.304723 -0.621605,0.453679 -0.205892,0.14615 -0.395218,0.278237 -0.562536,0.392497 -0.184859,0.127438 -0.379759,0.255111 -0.581415,0.381052 -0.203157,0.127588 -0.389399,0.239483 -0.555619,0.333722 -0.177614,0.101406 -0.356017,0.195623 -0.54342,0.28654 -0.172441,0.08245 -0.339638,0.157161 -0.507678,0.226486 -0.196887,0.08032 -0.424702,0.155125 -0.6833,0.227004 -0.358796,0.101534 -0.699047,0.151627 -1.022329,0.138212 -0.556132,-0.01918 -1.041145,-0.251889 -1.4651,-0.622746 -0.669719,-0.585841 -0.75051,-1.618704 -0.180451,-2.306965 0.488008,-0.589197 1.29479,-0.734849 1.937086,-0.397035 0.104263,-0.03102 0.183825,-0.0581 0.233223,-0.07824 z"
       id="path16"
       style="fill:#ffffff;fill-opacity:1;fill-rule:nonzero;stroke:none;stroke-width:1;stroke-opacity:1" />
  </g>
  <metadata
     id="metadata3113">
    <rdf:RDF>
      <cc:Work
         rdf:about="">
        <dc:title>Standing and talking</dc:title>
      </cc:Work>
    </rdf:RDF>
  </metadata>
  <path
     style="fill:#ffffff;fill-opacity:1;stroke-width:3.00094;stroke-linecap:round;stroke-linejoin:round"
     d="m 38.07298,8.5193004 c 0,0 10.630277,-10.1025332 16.397768,-1.0554886 5.767491,9.0470442 -1.620929,21.9767792 -1.620929,21.9767792 0,0 -13.236791,5.362081 -15.229192,-6.940591 C 35.628227,10.197327 38.07298,8.5193004 38.07298,8.5193004 Z"
     id="path13877" />
</svg>
