<?xml version="1.0" encoding="UTF-8" standalone="no"?>
<svg
   version="1.1"
   x="0px"
   y="0px"
   viewBox="0 0 100 100"
   enable-background="new 0 0 74.88 46.8"
   xml:space="preserve"
   id="svg8"
   sodipodi:docname="noun-paper-plane-201234.svg"
   width="100"
   height="100"
   inkscape:version="1.2.2 (732a01da63, 2022-12-09)"
   xmlns:inkscape="http://www.inkscape.org/namespaces/inkscape"
   xmlns:sodipodi="http://sodipodi.sourceforge.net/DTD/sodipodi-0.dtd"
   xmlns="http://www.w3.org/2000/svg"
   xmlns:svg="http://www.w3.org/2000/svg"><defs
     id="defs12" /><sodipodi:namedview
     id="namedview10"
     pagecolor="#ffffff"
     bordercolor="#000000"
     borderopacity="0.25"
     inkscape:showpageshadow="2"
     inkscape:pageopacity="0.0"
     inkscape:pagecheckerboard="0"
     inkscape:deskcolor="#d1d1d1"
     showgrid="false"
     inkscape:zoom="5.0101839"
     inkscape:cx="39.619304"
     inkscape:cy="38.321946"
     inkscape:window-width="1920"
     inkscape:window-height="1009"
     inkscape:window-x="-8"
     inkscape:window-y="-8"
     inkscape:window-maximized="1"
     inkscape:current-layer="svg8" /><path
     fill-rule="evenodd"
     clip-rule="evenodd"
     d="m 91.88518,46.136787 c 1.603911,1.204316 2.228883,0.754944 2.184637,2.30493 -2.813757,1.00521 -7.419471,0.600084 -11.224611,1.04116 -21.506233,2.49021 -41.267521,10.226314 -61.071673,16.283843 -2.246857,1.110294 -5.450531,3.054345 -7.592305,3.119331 -1.65507,-0.253031 0.107849,-1.937138 0,-2.772277 0.150712,-4.159107 0.463198,-7.422236 1.320461,-11.436162 -3.127626,-0.392681 -5.5307274,0.806104 -9.573689,0.692724 0.2793017,-3.188464 3.8645956,-4.672082 6.602306,-6.930001 3.568701,-2.939582 6.277375,-7.900644 12.214611,-5.890225 0.847584,-2.379595 -1.57211,-3.004567 -2.971384,-3.11933 3.615713,-4.059554 10.133675,-5.073059 14.525073,-8.316831 12.375002,4.206118 26.35668,5.327473 38.625216,9.356608 5.971803,1.963408 9.283326,3.980741 16.961358,5.66623 z M 36.629067,33.196268 c -3.789931,0.99 -9.529443,2.932668 -12.214611,6.237277 6.300881,1.883213 16.336385,1.684107 25.090144,2.772277 11.035183,1.373003 23.354878,3.210588 34.702548,2.78887 -13.32767,-5.761635 -31.89847,-8.506259 -47.578081,-11.798424 z m -10.89415,8.315448 c -0.01797,0.442458 -0.02351,0.575196 0.07052,1.135182 6.285671,0.05669 15.816497,0.34567 20.632378,0.781215 -4.183996,-0.779832 -15.459766,-2.51095 -20.702895,-1.916397 z m 9.010937,2.280042 C 30.040588,43.664552 24.601118,43.129454 20.454455,43.93694 15.928937,44.819091 12.593909,50.147947 9.2298442,52.946495 27.926468,51.310782 54.977254,49.057011 74.236629,46.317918 64.835776,44.994692 45.57087,44.083504 34.745854,43.791758 Z M 17.81215,53.986271 C 17.502429,58.166119 16.556675,61.67813 16.490306,66.113774 38.275841,59.604108 61.305789,50.573813 85.869131,48.123701 63.755901,47.079776 38.101623,51.606676 17.81215,53.986271 Z"
     id="path2"
     style="stroke-width:1.38268;fill:#fdfdfd;fill-opacity:1" /></svg>
