<?xml version="1.0" encoding="UTF-8" standalone="no"?>
<svg
   viewBox="0 0 100 100"
   version="1.1"
   x="0px"
   y="0px"
   id="svg26"
   sodipodi:docname="noun-sitting-1503624.svg"
   inkscape:version="1.2.2 (732a01da63, 2022-12-09)"
   width="100"
   height="100"
   xmlns:inkscape="http://www.inkscape.org/namespaces/inkscape"
   xmlns:sodipodi="http://sodipodi.sourceforge.net/DTD/sodipodi-0.dtd"
   xmlns="http://www.w3.org/2000/svg"
   xmlns:svg="http://www.w3.org/2000/svg"
   xmlns:rdf="http://www.w3.org/1999/02/22-rdf-syntax-ns#"
   xmlns:cc="http://creativecommons.org/ns#"
   xmlns:dc="http://purl.org/dc/elements/1.1/">
  <defs
     id="defs30" />
  <sodipodi:namedview
     id="namedview28"
     pagecolor="#ffffff"
     bordercolor="#000000"
     borderopacity="0.25"
     inkscape:showpageshadow="2"
     inkscape:pageopacity="0.0"
     inkscape:pagecheckerboard="0"
     inkscape:deskcolor="#d1d1d1"
     showgrid="false"
     inkscape:zoom="6.632"
     inkscape:cx="47.72316"
     inkscape:cy="44.028951"
     inkscape:window-width="1920"
     inkscape:window-height="1009"
     inkscape:window-x="-8"
     inkscape:window-y="-8"
     inkscape:window-maximized="1"
     inkscape:current-layer="svg26" />
  <title
     id="title2">Person figure sitting</title>
  <desc
     id="desc4">Created with Sketch.</desc>
  <g
     stroke="none"
     stroke-width="1"
     fill="none"
     fill-rule="evenodd"
     id="g20"
     style="fill:#ffffff;fill-opacity:1;stroke:none;stroke-opacity:1">
    <g
       fill="#000000"
       fill-rule="nonzero"
       id="g18"
       style="fill:#ffffff;fill-opacity:1;stroke:none;stroke-opacity:1">
      <path
         d="m 37.301532,83.165801 c 0.06257,-0.355269 0.572793,-0.261685 0.520555,0.07128 l 0.696281,0.05862 c 0.06151,0 0.122998,0.0034 0.180955,0.0097 0.04117,0.004 0.08269,0.006 0.124592,0.006 h 0.163178 c 0.06859,0 0.139122,0.0041 0.21197,0.01235 0.06509,0.0074 0.131222,0.01634 0.201949,0.02728 0.09358,0.01542 0.09358,0.01542 0.193227,0.0309 0.07189,0.01101 0.140913,0.02278 0.20649,0.03522 0.05929,0.01112 0.123839,0.02166 0.190974,0.03124 0.07891,0.0105 0.163752,0.02425 0.250615,0.04052 0.125063,0.02152 0.125063,0.02152 0.235818,0.04049 0.07099,0.01147 0.144948,0.02228 0.219735,0.03216 0.08176,0.01017 0.164579,0.02178 0.246457,0.03453 0.07182,0.01065 0.145878,0.0182 0.22218,0.02261 0.09531,0.0055 0.193606,0.01687 0.294897,0.03397 0.08846,0.01494 0.176913,0.02852 0.263226,0.04045 0.08364,0.01091 0.170648,0.01865 0.263065,0.02329 0.102631,0.0059 0.201326,0.01399 0.298017,0.02455 0.07927,0.0092 0.165069,0.01386 0.257335,0.01386 h 1.840949 c 0.104268,0 0.204817,-0.0023 0.299784,-0.0069 0.103361,-0.0057 0.212528,-0.01098 0.327589,-0.01593 0.11348,-0.0049 0.220361,-0.01005 0.322688,-0.0157 0.09724,-0.0047 0.204243,-0.01272 0.319097,-0.024 0.121676,-0.01274 0.236812,-0.02407 0.343585,-0.03382 0.101339,-0.0099 0.22079,-0.02567 0.357999,-0.04728 0.143734,-0.02263 0.270732,-0.04176 0.381077,-0.05739 0.103107,-0.01461 0.220538,-0.03506 0.35235,-0.06144 0.132748,-0.02642 0.262567,-0.05553 0.389457,-0.08732 0.133556,-0.03346 0.27255,-0.06654 0.415699,-0.09893 0.136416,-0.03155 0.266578,-0.06604 0.389571,-0.103162 0.137572,-0.04203 0.281304,-0.07991 0.430218,-0.113446 0.139825,-0.03201 0.276353,-0.06638 0.409212,-0.102991 0.138419,-0.03835 0.282644,-0.07668 0.432359,-0.114888 0.144882,-0.03716 0.281683,-0.07427 0.410383,-0.11132 0.137475,-0.03957 0.282876,-0.0761 0.435265,-0.10939 0.150118,-0.03335 0.294436,-0.06388 0.433252,-0.09166 0.139262,-0.02772 0.286861,-0.05541 0.441815,-0.08289 0.1568,-0.02839 0.307073,-0.05396 0.452409,-0.07695 0.14296,-0.02181 0.291385,-0.04396 0.445277,-0.06646 0.154223,-0.02255 0.30881,-0.04439 0.465023,-0.0657 0.156527,-0.02064 0.318853,-0.03984 0.488044,-0.05772 0.164428,-0.01675 0.317524,-0.0328 0.459276,-0.04815 0.139248,-0.01507 0.287001,-0.03361 0.443407,-0.05564 0.158959,-0.02229 0.312429,-0.04457 0.460405,-0.06684 0.154025,-0.02318 0.313459,-0.04271 0.478311,-0.0586 0.154358,-0.01488 0.299845,-0.03309 0.436423,-0.05459 0.146792,-0.02311 0.298637,-0.04331 0.454412,-0.06047 0.151275,-0.01728 0.30035,-0.03594 0.445923,-0.05579 0.152326,-0.02149 0.310075,-0.04082 0.472031,-0.05784 0.235368,-0.02575 0.235368,-0.02575 0.452656,-0.04943 0.145914,-0.0158 0.303363,-0.02976 0.472311,-0.0419 0.162423,-0.01172 0.319333,-0.02516 0.470857,-0.04032 0.153796,-0.01531 0.30979,-0.03167 0.46935,-0.04923 0.162396,-0.01708 0.312829,-0.03098 0.451354,-0.0417 0.136691,-0.01058 0.282477,-0.02115 0.438656,-0.0318 0.155213,-0.0099 0.302059,-0.01836 0.440472,-0.02542 0.138007,-0.0071 0.276379,-0.0131 0.413662,-0.018 0.204914,-0.0083 0.204914,-0.0083 0.404016,-0.0158 0.130708,-0.0049 0.258123,-0.0101 0.383839,-0.01574 0.123807,-0.0049 0.233335,-0.0097 0.32659,-0.01446 0.102877,-0.0059 0.216359,-0.0089 0.340604,-0.0089 h 0.600142 c 0.09066,0 0.177936,-0.0032 0.263983,-0.0098 0.09779,-0.0068 0.195244,-0.01014 0.292354,-0.01014 0.08301,0 0.158488,-0.0026 0.22894,-0.0078 0.114155,-0.0074 0.114155,-0.0074 0.229601,-0.01461 0.118438,-0.0083 0.118438,-0.0083 0.231092,-0.01584 0.06755,-0.0045 0.13857,-0.0116 0.213342,-0.02138 0.118382,-0.01511 0.118382,-0.01511 0.218229,-0.02684 0.06532,-0.0074 0.131002,-0.01364 0.197303,-0.01882 0.05511,-0.0043 0.109895,-0.01094 0.164376,-0.02006 0.07008,-0.01173 0.13745,-0.0204 0.20186,-0.02594 0.08327,-0.0074 0.08327,-0.0074 0.171466,-0.01582 0.05399,-0.0046 0.10724,-0.01016 0.159748,-0.0167 0.0677,-0.0084 0.13385,-0.0127 0.198438,-0.0127 h 1.205762 c 0.06532,-0.0091 0.06532,-0.0091 0.114809,-0.01899 0.123281,-0.02993 0.123281,-0.02993 0.165875,-0.0431 0.113719,-0.03827 0.113719,-0.03827 0.140072,-0.04639 0.102449,-0.06342 0.12211,-0.07619 0.152502,-0.08487 0.03795,-0.122237 0.03795,-0.122237 0.05985,-0.160538 0.05483,-0.166563 0.06385,-0.203379 0.07296,-0.250764 0.01165,-0.05664 0.02411,-0.111563 0.03638,-0.160589 0.0124,-0.05354 0.02701,-0.11145 0.04364,-0.173095 0.02293,-0.08643 0.02293,-0.08643 0.04125,-0.157111 0.0095,-0.03943 0.01948,-0.09457 0.02938,-0.164248 0.01152,-0.08105 0.02352,-0.153826 0.03664,-0.221408 0.0059,-0.02881 0.01041,-0.803085 0.01342,-2.322834 0,-0.08836 -0.0028,-0.196464 -0.0086,-0.325329 -0.0051,-0.129041 -0.01084,-0.253157 -0.01734,-0.372342 -0.0066,-0.121166 -0.01285,-0.244776 -0.01878,-0.372296 -0.0077,-0.189519 -0.0077,-0.189519 -0.01529,-0.382583 -0.0058,-0.129489 -0.01446,-0.289652 -0.02601,-0.479442 -0.01807,-0.280377 -0.01807,-0.280377 -0.03386,-0.52519 -0.01099,-0.15817 -0.02271,-0.335568 -0.0352,-0.533093 -0.01158,-0.193823 -0.02534,-0.391516 -0.04127,-0.593011 -0.0159,-0.200484 -0.03544,-0.414 -0.0587,-0.641394 -0.02257,-0.228468 -0.04514,-0.44887 -0.06771,-0.661204 -0.02249,-0.211637 -0.04863,-0.439795 -0.07849,-0.685102 -0.04364,-0.366849 -0.04364,-0.366849 -0.08653,-0.729412 -0.0285,-0.240535 -0.05664,-0.481071 -0.08434,-0.72094 -0.02815,-0.238229 -0.0621,-0.489152 -0.101863,-0.752749 -0.04055,-0.268813 -0.07523,-0.525081 -0.104103,-0.76949 -0.02751,-0.238264 -0.05865,-0.48181 -0.09342,-0.730634 -0.03515,-0.251549 -0.07212,-0.525479 -0.110825,-0.821198 -0.03895,-0.292068 -0.07817,-0.547922 -0.117605,-0.767358 -0.04041,-0.224918 -0.08336,-0.477062 -0.128729,-0.755842 -0.04608,-0.278589 -0.09178,-0.559979 -0.137024,-0.843543 -0.04593,-0.283289 -0.09441,-0.577445 -0.145463,-0.882559 -0.05112,-0.306235 -0.09933,-0.59601 -0.144502,-0.868677 -0.04588,-0.272496 -0.09431,-0.55271 -0.145398,-0.84125 -0.05065,-0.290163 -0.09909,-0.583823 -0.145399,-0.881493 -0.04523,-0.294691 -0.08827,-0.572563 -0.129221,-0.834295 -0.04008,-0.260814 -0.08272,-0.532848 -0.127808,-0.815473 -0.04612,-0.284456 -0.08931,-0.558418 -0.129583,-0.821888 -0.04036,-0.264072 -0.07998,-0.538625 -0.118761,-0.822949 -0.03952,-0.283698 -0.0794,-0.57894 -0.119632,-0.885657 -0.04005,-0.304625 -0.08009,-0.598379 -0.120129,-0.881258 -0.04005,-0.282964 -0.08302,-0.576803 -0.129004,-0.88218 -0.04538,-0.30691 -0.08857,-0.608572 -0.129646,-0.905596 -0.0401,-0.295188 -0.08275,-0.602996 -0.127886,-0.922941 -0.0461,-0.322263 -0.08855,-0.628081 -0.127343,-0.917459 -0.03828,-0.285501 -0.08344,-0.57982 -0.135473,-0.882853 -0.05314,-0.30875 -0.09928,-0.612636 -0.138418,-0.911661 -0.03817,-0.291646 -0.08245,-0.577317 -0.132818,-0.856906 -0.05128,-0.283972 -0.103279,-0.581932 -0.156001,-0.893885 -0.05241,-0.310092 -0.106634,-0.620186 -0.162681,-0.930281 -0.05603,-0.309975 -0.109483,-0.595748 -0.160389,-0.85742 -0.05101,-0.262898 -0.110786,-0.565769 -0.179447,-0.909194 -0.0677,-0.342928 -0.130265,-0.650442 -0.187699,-0.922497 -0.05778,-0.273715 -0.115202,-0.54988 -0.17238,-0.829121 -0.05591,-0.276587 -0.115091,-0.555988 -0.177412,-0.837596 -0.06376,-0.284789 -0.123862,-0.561539 -0.18034,-0.830382 -0.056,-0.267277 -0.106879,-0.50334 -0.1528,-0.708969 -0.04495,-0.20453 -0.09905,-0.440359 -0.162418,-0.708051 -0.06246,-0.266917 -0.12235,-0.513829 -0.17965,-0.740708 -0.05746,-0.227512 -0.114181,-0.447305 -0.169955,-0.658592 -0.05728,-0.214191 -0.114174,-0.433625 -0.170695,-0.658302 -0.05612,-0.223092 -0.112973,-0.446885 -0.170601,-0.671564 -0.05744,-0.224649 -0.111585,-0.431756 -0.162424,-0.621302 -0.05066,-0.188886 -0.112667,-0.410514 -0.186045,-0.664957 -0.07398,-0.257228 -0.137378,-0.481566 -0.190512,-0.674177 -0.05142,-0.189717 -0.114189,-0.412514 -0.188512,-0.669111 -0.07323,-0.256021 -0.143509,-0.492378 -0.210513,-0.708073 -0.06785,-0.215389 -0.141147,-0.436081 -0.220213,-0.662985 -0.07898,-0.229442 -0.152845,-0.445584 -0.221607,-0.648429 -0.06735,-0.198678 -0.143037,-0.405537 -0.2268,-0.619862 -0.08607,-0.218364 -0.168855,-0.427617 -0.24876,-0.628792 -0.07847,-0.200075 -0.157655,-0.398397 -0.23726,-0.594215 -0.0799,-0.19476 -0.167437,-0.397667 -0.262494,-0.608413 -0.09386,-0.207401 -0.182307,-0.386986 -0.265351,-0.538921 -0.08449,-0.155272 -0.171471,-0.307762 -0.261205,-0.457923 -0.0885,-0.148775 -0.184933,-0.299813 -0.289609,-0.453545 -0.10355,-0.152753 -0.198704,-0.282993 -0.285133,-0.39047 -0.08807,-0.109516 -0.182276,-0.219882 -0.283251,-0.331782 -0.10007,-0.111681 -0.19707,-0.214944 -0.291669,-0.310493 -0.09496,-0.09664 -0.192845,-0.194012 -0.294329,-0.292781 -0.09659,-0.09468 -0.190679,-0.180312 -0.282076,-0.256799 -0.09074,-0.07585 -0.187565,-0.150242 -0.291454,-0.223837 -0.104486,-0.07469 -0.214418,-0.14849 -0.330441,-0.221803 -0.114083,-0.07253 -0.222819,-0.137068 -0.327328,-0.194277 -0.101446,-0.05618 -0.210915,-0.110341 -0.327208,-0.161895 -0.120387,-0.05269 -0.235136,-0.09949 -0.345054,-0.140734 -0.103666,-0.03928 -0.215757,-0.07375 -0.337673,-0.103647 -0.122521,-0.0307 -0.253198,-0.05663 -0.39181,-0.0777 -0.137725,-0.02083 -0.269305,-0.03346 -0.396117,-0.03801 -0.133264,-0.0054 -0.275051,-0.0082 -0.425325,-0.0082 h -0.94183 c -0.162218,0 -0.315224,0.0027 -0.460338,0.0082 -0.144508,0.0048 -0.297875,0.01237 -0.460074,0.0227 -0.163771,0.01043 -0.322413,0.02155 -0.475821,0.03335 -0.228625,0.01755 -0.228625,0.01755 -0.447013,0.0338 -0.135084,0.0093 -0.276585,0.02465 -0.424279,0.04604 -0.158203,0.02302 -0.316066,0.04245 -0.47345,0.05827 -0.147559,0.0149 -0.290691,0.03317 -0.429395,0.05479 -0.141135,0.022 -0.284122,0.04641 -0.42768,0.073 -0.145922,0.02773 -0.283779,0.05508 -0.413555,0.08206 -0.129308,0.02688 -0.264147,0.05655 -0.405797,0.08931 -0.134031,0.03034 -0.26258,0.06553 -0.384819,0.105279 -0.130459,0.04288 -0.266071,0.0889 -0.406403,0.137931 -0.13616,0.04781 -0.26684,0.09824 -0.392701,0.151536 -0.126004,0.05298 -0.255782,0.111159 -0.388796,0.174293 -0.131584,0.06279 -0.263658,0.130716 -0.395671,0.203482 -0.134261,0.0744 -0.265974,0.149816 -0.396657,0.227135 -0.12249,0.07143 -0.24786,0.155437 -0.376561,0.252511 -0.136836,0.102662 -0.273308,0.205673 -0.410682,0.309989 -0.132033,0.09906 -0.252399,0.196085 -0.361078,0.291006 -0.109373,0.09553 -0.233533,0.211944 -0.371717,0.348611 -0.143418,0.142552 -0.269366,0.265873 -0.377924,0.370036 -0.103288,0.09911 -0.222074,0.220908 -0.355574,0.364672 -0.136733,0.148035 -0.265805,0.287318 -0.386674,0.417264 -0.11855,0.128227 -0.236784,0.260295 -0.35514,0.396709 -0.117198,0.134395 -0.220129,0.257422 -0.308243,0.368344 -0.09222,0.116808 -0.198258,0.248576 -0.31864,0.395971 -0.116564,0.141851 -0.221469,0.276855 -0.315257,0.405701 -0.145586,0.198408 -0.145586,0.198408 -0.290844,0.395959 -0.09716,0.131362 -0.197964,0.265505 -0.302419,0.402433 -0.100687,0.131989 -0.197843,0.267059 -0.291136,0.404721 -0.09605,0.142429 -0.183692,0.273282 -0.261927,0.391037 -0.07815,0.119421 -0.168786,0.260307 -0.271419,0.421891 -0.100056,0.158646 -0.185544,0.303379 -0.256929,0.43494 -0.07403,0.135106 -0.15906,0.292348 -0.254861,0.471316 -0.09559,0.179267 -0.186067,0.352898 -0.271241,0.520503 -0.08397,0.165918 -0.161838,0.331044 -0.233771,0.495737 -0.07198,0.164125 -0.141541,0.334571 -0.208457,0.510795 -0.0678,0.179786 -0.141454,0.376048 -0.22068,0.588057 -0.0784,0.211755 -0.154989,0.423504 -0.229672,0.635001 -0.07486,0.212693 -0.148994,0.42749 -0.222653,0.645115 -0.07427,0.217292 -0.150743,0.443702 -0.229708,0.680119 -0.0792,0.234242 -0.156208,0.467428 -0.230749,0.698657 -0.0746,0.234383 -0.145551,0.455466 -0.212781,0.663013 -0.06607,0.204669 -0.139269,0.449956 -0.219322,0.735057 -0.07989,0.287114 -0.147732,0.539136 -0.203552,0.756157 -0.05568,0.215774 -0.115069,0.459357 -0.178003,0.730052 -0.06258,0.272308 -0.125536,0.553386 -0.188761,0.842762 -0.06248,0.28858 -0.121678,0.573997 -0.177728,0.856864 -0.05657,0.281826 -0.104746,0.535905 -0.144529,0.762163 -0.04032,0.229323 -0.08612,0.481011 -0.137385,0.755087 -0.05069,0.270977 -0.09849,0.547223 -0.143523,0.82946 -0.04558,0.28047 -0.08536,0.550732 -0.119401,0.81137 -0.03468,0.260663 -0.06613,0.531532 -0.09428,0.812017 -0.02785,0.284072 -0.05607,0.554855 -0.08467,0.812433 -0.02819,0.253161 -0.05351,0.517584 -0.07594,0.793206 -0.02258,0.278211 -0.04517,0.569748 -0.0678,0.87516 -0.02327,0.304944 -0.04363,0.598658 -0.06104,0.880528 -0.01678,0.282761 -0.03392,0.57954 -0.05143,0.890334 -0.01751,0.3108 -0.03429,0.616344 -0.05034,0.9166 -0.01599,0.299909 -0.03017,0.613158 -0.04251,0.93918 -0.01163,0.326487 -0.02036,0.642094 -0.02616,0.946214 -0.0078,0.467336 -0.0078,0.467336 -0.01642,0.966344 -0.0051,0.337087 -0.0076,0.676631 -0.0076,1.018631 v 4.158053 c 0,0.309887 0.0025,0.663297 0.0076,1.059732 0.0059,0.400457 0.0088,0.745618 0.0088,1.035582 0,0.287372 0.0025,0.613366 0.0076,0.97743 0.0058,0.365624 0.01131,0.701472 0.01642,1.007545 0.0051,0.304224 0.01379,0.613368 0.02615,0.928012 0.01173,0.317249 0.02053,0.615967 0.02641,0.89682 0.0051,0.278232 0.01023,0.567669 0.01533,0.867702 0.0058,0.298732 0.01451,0.589034 0.02609,0.870255 0.01244,0.28434 0.02414,0.577077 0.03514,0.878824 0.0102,0.29985 0.02149,0.596544 0.0339,0.890682 0.0116,0.291435 0.02609,0.57022 0.04347,0.836301 0.01755,0.268075 0.03438,0.536501 0.05046,0.805237 0.01608,0.267927 0.03289,0.557556 0.05043,0.868894 0.01741,0.309028 0.03479,0.568942 0.05212,0.779577 0.01766,0.215364 0.0353,0.462811 0.05291,0.742423 0.01749,0.277529 0.03424,0.530168 0.05026,0.757954 0.01591,0.226891 0.03508,0.456953 0.0575,0.690186 0.0227,0.236101 0.04285,0.455063 0.06044,0.656897 0.0174,0.199636 0.03734,0.407712 0.05975,0.623387 0.02327,0.217046 0.04618,0.421461 0.06871,0.613236 0.03397,0.289883 0.03397,0.289883 0.06785,0.581747 0.02307,0.193691 0.04829,0.382102 0.07551,0.56427 0.02917,0.190194 0.05275,0.377642 0.07074,0.56244 0.017,0.175342 0.03637,0.328061 0.05794,0.457636 0.02313,0.138177 0.04618,0.293666 0.06902,0.465517 0.02328,0.169607 0.04363,0.31432 0.06123,0.435365 0.01626,0.115992 0.03573,0.234852 0.05866,0.357974 0.0224,0.124127 0.04151,0.226147 0.05718,0.305456 0.01539,0.07721 0.03144,0.150161 0.04811,0.218822 0.09837,-0.0338 0.135671,-0.05509 0.177863,-0.08079 z m 29.707435,-2.231039 c -0.003,0.0028 -0.0057,0.0057 -0.0083,0.0085 0.0027,-0.0027 0.0055,-0.0056 0.0083,-0.0085 z m -0.08667,0.15718 c -0.0041,0.01473 -0.0059,0.03154 -0.0089,0.0601 0,-0.01978 0.0019,-0.03889 0.0057,-0.05735 z m 0.133029,-0.134238 c 0.02146,-0.0049 0.04904,-0.0099 0.087,-0.01687 -0.04536,0.0082 -0.07301,0.01312 -0.09184,0.0177 z m -0.148562,0.07697 c -0.0056,0.0042 -0.01304,0.01033 -0.02593,0.02093 0.008,-0.0061 0.01523,-0.01157 0.02191,-0.01659 z m 0.02113,-0.01252 c -0.0034,0.0017 -0.006,0.003 -0.0084,0.0043 0.0029,-0.0013 0.0056,-0.0028 0.0084,-0.0043 z m -0.09744,0.06707 c 0.003,-0.0025 0.0058,-0.0049 0.0085,-0.0071 -0.0018,0.0013 -0.0048,0.0039 -0.0085,0.0071 z m 0.609048,0.167682 c -0.01142,0.01601 -0.02379,0.03047 -0.03679,0.04286 0.0099,-0.01013 0.01891,-0.02159 0.02681,-0.03431 z"
         id="path6"
         style="fill:#ffffff;fill-opacity:1;stroke:none;stroke-opacity:1" />
      <path
         d="M 53.28049,5.3199596 C 53.916126,5.436693 54.332786,6.0257454 54.211127,6.6356448 54.089468,7.2455443 53.475559,7.6453343 52.839923,7.5286009 52.422049,7.451859 52.108592,7.372258 51.864503,7.2703783 51.705836,7.2041528 51.537239,7.1302436 51.362266,7.0503237 c -0.119732,-0.054181 -0.237421,-0.098562 -0.34875,-0.132157 -0.103965,-0.030928 -0.235251,-0.058042 -0.395844,-0.079911 -0.185378,-0.025753 -0.348584,-0.042375 -0.488147,-0.050186 -0.155572,-0.00867 -0.323125,-0.013686 -0.506827,-0.01499 -0.1731,-0.00184 -0.355157,0.00187 -0.549862,0.011397 -0.19921,0.00913 -0.402979,0.022211 -0.611296,0.03925 -0.205177,0.016782 -0.417253,0.038816 -0.635725,0.066074 -0.235743,0.029504 -0.47586,0.059357 -0.716932,0.089132 -0.22355,0.028257 -0.454076,0.063403 -0.68837,0.1049115 -0.197389,0.035512 -0.402983,0.088939 -0.615876,0.1605454 -0.244921,0.082604 -0.489099,0.1733073 -0.732555,0.2721377 -0.233481,0.094781 -0.454381,0.1957124 -0.665227,0.3039345 -0.223131,0.1138815 -0.459513,0.2420363 -0.712194,0.3862972 -0.248417,0.1407891 -0.48443,0.2824062 -0.709389,0.4256515 -0.219708,0.1394798 -0.43177,0.2841384 -0.636233,0.4339749 -0.199936,0.146519 -0.408162,0.3130149 -0.622989,0.4983399 -0.217386,0.1881101 -0.371984,0.3289693 -0.456245,0.4141309 -0.103218,0.1043208 -0.208437,0.2132238 -0.315397,0.3264468 -0.09716,0.102911 -0.187656,0.204467 -0.27417,0.307757 -0.08361,0.0991 -0.168997,0.207345 -0.255985,0.32468 -0.09932,0.133967 -0.194602,0.263344 -0.28834,0.391517 -0.08138,0.110422 -0.160744,0.22449 -0.235744,0.338665 -0.08365,0.128428 -0.203716,0.317124 -0.358431,0.563401 -0.150029,0.239481 -0.284404,0.464045 -0.40245,0.67235 -0.114051,0.201787 -0.219269,0.403387 -0.315699,0.604803 -0.09154,0.191202 -0.172661,0.38475 -0.244121,0.582625 -0.071,0.195497 -0.129866,0.387883 -0.17736,0.579625 -0.05009,0.200254 -0.09212,0.401281 -0.125649,0.600361 -0.03323,0.200473 -0.05809,0.3996 -0.07464,0.597436 -0.01775,0.212263 -0.03144,0.430287 -0.04091,0.650758 -0.0087,0.218386 -0.0114,0.448453 -0.008,0.690066 0.0034,0.24273 0.01225,0.477887 0.02666,0.708457 0.0134,0.224388 0.03393,0.456873 0.06163,0.697407 0.02917,0.253219 0.06046,0.504321 0.09352,0.750694 0.02804,0.205177 0.06914,0.401217 0.122234,0.585505 0.05347,0.183609 0.113167,0.343219 0.178589,0.480319 0.0795,0.167316 0.167437,0.336696 0.265442,0.510895 0.08973,0.160562 0.177585,0.30134 0.262784,0.422044 0.08825,0.125032 0.183593,0.247288 0.283997,0.364358 0.110085,0.127609 0.228158,0.255638 0.354258,0.384041 0.108523,0.110504 0.217397,0.208196 0.331253,0.297212 0.123107,0.09728 0.246496,0.186647 0.367977,0.266787 0.139971,0.09189 0.288445,0.185252 0.440397,0.277022 0.137202,0.08193 0.276552,0.156239 0.416428,0.222238 0.153042,0.07191 0.325064,0.14551 0.515749,0.220445 0.177115,0.0696 0.359096,0.130904 0.541755,0.182696 0.229619,0.06417 0.458506,0.129415 0.686658,0.195731 0.198975,0.05784 0.399513,0.109126 0.601659,0.153887 0.239333,0.05299 0.47718,0.109312 0.710991,0.168314 0.196102,0.04903 0.3822,0.08875 0.55343,0.11847 0.174287,0.02955 0.359709,0.05317 0.55248,0.07037 0.186478,0.01606 0.381138,0.02272 0.580521,0.01985 0.227719,-0.0039 0.462238,-0.01249 0.703342,-0.02567 0.23306,-0.01278 0.472682,-0.03266 0.71884,-0.05969 0.262474,-0.02882 0.524217,-0.05936 0.781687,-0.09116 0.239083,-0.03025 0.470711,-0.06729 0.694904,-0.111066 0.230003,-0.04491 0.457153,-0.09555 0.684635,-0.152712 0.250888,-0.06233 0.499265,-0.12218 0.741869,-0.178779 0.253012,-0.05977 0.500763,-0.114116 0.739039,-0.162164 0.227061,-0.04664 0.440213,-0.09081 0.644266,-0.133518 0.163583,-0.03355 0.326246,-0.07513 0.488113,-0.124812 0.143931,-0.04417 0.268164,-0.09176 0.366824,-0.138855 0.115967,-0.05615 0.230374,-0.120417 0.343363,-0.193039 0.108777,-0.06991 0.218267,-0.151258 0.330489,-0.246201 0.140702,-0.11846 0.278556,-0.237836 0.415927,-0.360224 0.125714,-0.111393 0.253751,-0.232074 0.383998,-0.362047 0.127941,-0.127671 0.253359,-0.261553 0.378191,-0.4039 0.11374,-0.12903 0.212402,-0.253211 0.296151,-0.372118 0.0738,-0.104786 0.145502,-0.226677 0.214305,-0.365932 0.07775,-0.157366 0.14797,-0.318659 0.209887,-0.481886 0.06613,-0.175439 0.124095,-0.345369 0.174274,-0.510796 0.04992,-0.163974 0.0956,-0.334342 0.136779,-0.510292 0.04138,-0.177445 0.07773,-0.360225 0.108996,-0.548355 0.03181,-0.19138 0.05908,-0.389252 0.08178,-0.593602 0.02175,-0.195827 0.03662,-0.40458 0.04445,-0.626123 0.0081,-0.229119 0.01014,-0.482303 0.006,-0.761882 -0.0034,-0.271188 -0.01616,-0.550437 -0.03865,-0.840244 -0.02263,-0.300646 -0.04261,-0.532999 -0.05956,-0.694345 -0.0268,-0.254881 -0.0268,-0.254881 -0.05085,-0.48289 -0.0159,-0.143918 -0.03391,-0.291451 -0.05346,-0.438389 -0.02208,-0.161022 -0.04743,-0.348543 -0.0755,-0.558555 -0.04221,-0.306962 -0.04221,-0.306962 -0.0784,-0.57116 -0.01721,-0.12932 -0.04466,-0.277076 -0.08266,-0.442344 -0.04337,-0.1886 -0.08846,-0.374729 -0.136213,-0.562152 -0.04343,-0.173011 -0.08731,-0.330499 -0.131009,-0.470876 -0.04851,-0.155138 -0.09768,-0.307802 -0.145584,-0.452229 -0.04677,-0.13838 -0.09485,-0.269961 -0.144839,-0.396415 -0.0413,-0.104982 -0.104263,-0.240778 -0.188412,-0.404029 -0.06856,-0.133003 -0.139288,-0.244598 -0.209196,-0.333344 -0.03116,-0.03937 -0.07567,-0.07799 -0.140074,-0.117175 C 54.189583,9.987299 54.127128,9.96236 54.067523,9.94978 53.862333,9.907386 53.674494,9.867374 53.503863,9.8297033 L 53.25632,9.7750529 C 52.625626,9.635813 52.231986,9.0323592 52.377102,8.4272011 52.522217,7.8220431 53.151136,7.4443418 53.78183,7.5835817 l 0.247504,0.054642 c 0.159375,0.035186 0.336586,0.072934 0.536358,0.1142189 0.334163,0.070469 0.650634,0.1968464 0.9444,0.3755946 0.294808,0.1793816 0.54745,0.3985658 0.752982,0.6582509 0.163582,0.2076533 0.31042,0.4393233 0.441911,0.6944194 0.115899,0.2248471 0.209174,0.4260107 0.279638,0.6051395 0.06312,0.159675 0.12383,0.325824 0.18412,0.504245 0.05384,0.162252 0.106881,0.326932 0.15953,0.495326 0.05665,0.181988 0.11134,0.378273 0.163328,0.585392 0.05103,0.200238 0.100125,0.402909 0.147289,0.608013 0.05253,0.228434 0.09224,0.442157 0.118295,0.638037 0.03554,0.259305 0.03554,0.259305 0.07821,0.569749 0.02832,0.211833 0.05335,0.396999 0.07564,0.559619 0.02222,0.166911 0.04218,0.330418 0.06042,0.495633 0.02468,0.233802 0.02468,0.233802 0.05154,0.489264 0.01955,0.186121 0.04119,0.437842 0.06509,0.755356 0.02588,0.333388 0.04083,0.659406 0.04473,0.975364 0.0046,0.311583 0.0023,0.600616 -0.0071,0.867479 -0.0097,0.274439 -0.02841,0.537149 -0.0563,0.788266 -0.02695,0.242595 -0.05954,0.479057 -0.09782,0.709402 -0.03882,0.233595 -0.08425,0.462032 -0.136509,0.686116 -0.05208,0.222538 -0.110081,0.438867 -0.173723,0.647896 -0.06405,0.211147 -0.137504,0.426514 -0.221107,0.648286 -0.08769,0.231172 -0.186122,0.457277 -0.295276,0.678203 -0.118103,0.239036 -0.247911,0.459709 -0.390218,0.66176 -0.132362,0.187929 -0.281934,0.376188 -0.446607,0.562991 -0.156012,0.17791 -0.316063,0.348763 -0.480162,0.512516 -0.161793,0.161452 -0.322877,0.313281 -0.481,0.453385 -0.151191,0.134707 -0.305377,0.268226 -0.460412,0.398749 -0.186343,0.157659 -0.377654,0.299789 -0.574059,0.426025 -0.192193,0.12353 -0.389539,0.234393 -0.597649,0.335132 -0.215371,0.102854 -0.449618,0.192576 -0.702861,0.270297 -0.235308,0.07222 -0.472741,0.132913 -0.707342,0.181022 -0.202333,0.04236 -0.418481,0.08715 -0.652703,0.135252 -0.215987,0.04356 -0.43769,0.09219 -0.668349,0.146677 -0.234538,0.05472 -0.471678,0.111863 -0.708257,0.170635 -0.266306,0.06692 -0.535624,0.126966 -0.807931,0.180134 -0.278116,0.0543 -0.563399,0.09992 -0.859373,0.137368 -0.271961,0.0336 -0.544651,0.06541 -0.818071,0.09544 -0.289735,0.03181 -0.573596,0.05537 -0.851796,0.07062 -0.271237,0.01483 -0.536107,0.02449 -0.798152,0.02902 -0.283347,0.0041 -0.559603,-0.0054 -0.832416,-0.02887 -0.259102,-0.02311 -0.508091,-0.05483 -0.751705,-0.09614 -0.235883,-0.04093 -0.479814,-0.09299 -0.73454,-0.156683 -0.213385,-0.05384 -0.4282,-0.104709 -0.64445,-0.152593 -0.253437,-0.05612 -0.50483,-0.120415 -0.754138,-0.19288 -0.220129,-0.06398 -0.440985,-0.126939 -0.666909,-0.190087 -0.262742,-0.07448 -0.519551,-0.160996 -0.770276,-0.259524 -0.237154,-0.09319 -0.456465,-0.187026 -0.659968,-0.28265 -0.211777,-0.09992 -0.419225,-0.210551 -0.627241,-0.334778 -0.181823,-0.109791 -0.355324,-0.218887 -0.522697,-0.328772 -0.180079,-0.118792 -0.357492,-0.24729 -0.52744,-0.381601 -0.190311,-0.148757 -0.374207,-0.313767 -0.551884,-0.494687 -0.160099,-0.163023 -0.311433,-0.327118 -0.456086,-0.494803 -0.148628,-0.173288 -0.287651,-0.351563 -0.416967,-0.534769 -0.132371,-0.187533 -0.261357,-0.394223 -0.386175,-0.617576 -0.121125,-0.215281 -0.232501,-0.429797 -0.333268,-0.641888 -0.117906,-0.247081 -0.218829,-0.516902 -0.304937,-0.812618 -0.08331,-0.28912 -0.145887,-0.587661 -0.188286,-0.89789 -0.03522,-0.26241 -0.06818,-0.526906 -0.09888,-0.793487 -0.03216,-0.279267 -0.05617,-0.551171 -0.07179,-0.812746 -0.01643,-0.262821 -0.02658,-0.532753 -0.03047,-0.809863 -0.0039,-0.279549 -7.7e-4,-0.548266 0.0096,-0.809546 0.01084,-0.252596 0.02636,-0.49973 0.04657,-0.741417 0.02142,-0.256114 0.0535,-0.513038 0.09667,-0.773494 0.0434,-0.257698 0.09701,-0.514124 0.160213,-0.766793 0.06555,-0.264635 0.146861,-0.530402 0.243103,-0.795385 0.09568,-0.264956 0.205117,-0.526058 0.328227,-0.783202 0.11822,-0.246929 0.246634,-0.492974 0.385816,-0.739223 0.135411,-0.238948 0.286505,-0.491452 0.454081,-0.758941 0.161407,-0.256931 0.28739,-0.454933 0.381287,-0.599071 0.09936,-0.151273 0.201792,-0.298507 0.304821,-0.438286 0.0942,-0.1288169 0.192392,-0.2621423 0.294583,-0.3999845 C 38.629006,9.4797944 38.743669,9.3344391 38.85599,9.2013189 38.969257,9.0660715 39.089759,8.930845 39.217708,8.795321 39.336842,8.6692113 39.454304,8.5476361 39.570116,8.4305867 39.704885,8.2943778 39.897815,8.118593 40.157781,7.89364 c 0.261332,-0.2254464 0.51745,-0.4302365 0.768717,-0.6143722 0.246739,-0.1808182 0.501942,-0.3549051 0.7642,-0.5213964 0.258268,-0.1644564 0.528945,-0.3268735 0.808773,-0.4854573 0.28064,-0.1602313 0.549488,-0.3059875 0.804316,-0.4360427 0.272007,-0.13962 0.557067,-0.2698666 0.855099,-0.3908519 0.288057,-0.1169358 0.577583,-0.2244849 0.869497,-0.3229371 0.32352,-0.1088163 0.643599,-0.1919943 0.963364,-0.2495184 0.276533,-0.048997 0.546857,-0.09021 0.814435,-0.1240276 0.243214,-0.030044 0.482043,-0.059737 0.716946,-0.089136 0.252712,-0.03153 0.499139,-0.057133 0.739324,-0.076778 0.237044,-0.019389 0.469875,-0.034332 0.694722,-0.044635 0.238377,-0.01167 0.468827,-0.016366 0.687086,-0.01404 0.217828,0.00154 0.424816,0.00773 0.621436,0.018691 0.210602,0.011788 0.43946,0.035096 0.684478,0.069139 0.27491,0.037428 0.526927,0.089476 0.761799,0.1593571 0.218607,0.065949 0.435304,0.1476656 0.653734,0.246518 0.155637,0.071081 0.300253,0.1344774 0.433627,0.1901458 0.04795,0.020014 0.220011,0.063708 0.48113,0.1116623 z"
         id="path8"
         style="fill:#ffffff;fill-opacity:1;stroke:none;stroke-opacity:1" />
      <path
         d="m 45.064001,29.881984 c 0.567467,-0.298553 1.279727,-0.09918 1.590878,0.445311 0.311151,0.544491 0.103365,1.227913 -0.464102,1.526465 -0.318129,0.167372 -0.561869,0.297944 -0.730548,0.391292 -0.219414,0.121055 -0.454225,0.231328 -0.700989,0.329908 -0.203782,0.08211 -0.41599,0.16808 -0.639632,0.259134 -0.205204,0.0829 -0.399314,0.166361 -0.580774,0.249604 -0.18221,0.08389 -0.370844,0.176325 -0.564314,0.276528 -0.204883,0.106485 -0.373094,0.195323 -0.508015,0.268305 -0.124582,0.06676 -0.30698,0.169242 -0.547608,0.307902 -0.233446,0.133471 -0.412873,0.240017 -0.53734,0.318798 -0.13365,0.08416 -0.271479,0.17288 -0.411237,0.264698 -0.140477,0.09275 -0.276551,0.184679 -0.404936,0.273495 -0.132767,0.09253 -0.26933,0.189626 -0.412655,0.293448 -0.135532,0.09753 -0.267105,0.195544 -0.400024,0.298089 -0.135768,0.103531 -0.283001,0.216961 -0.443657,0.341813 -0.161459,0.124915 -0.316703,0.245267 -0.47059,0.364812 -0.151224,0.116222 -0.317008,0.243268 -0.497369,0.381152 -0.174018,0.133034 -0.326312,0.251489 -0.458972,0.356991 -0.131394,0.103944 -0.287915,0.230397 -0.471156,0.380703 -0.175138,0.143005 -0.326271,0.270747 -0.455155,0.384645 -0.136931,0.12038 -0.284569,0.251355 -0.44287,0.392891 -0.160019,0.143071 -0.319307,0.28579 -0.475779,0.42628 -0.152746,0.137822 -0.297408,0.271262 -0.429681,0.396216 -0.140958,0.134557 -0.284123,0.271926 -0.427455,0.410134 -0.224345,0.217531 -0.224345,0.217531 -0.466738,0.453054 -0.178357,0.174138 -0.339929,0.325748 -0.483043,0.453143 -0.116107,0.103979 -0.247234,0.228212 -0.390868,0.370472 -0.166987,0.166132 -0.338444,0.331385 -0.512492,0.494007 -0.155204,0.145668 -0.303227,0.290617 -0.444197,0.434939 -0.143511,0.146881 -0.270062,0.28097 -0.377402,0.399659 -0.114763,0.127573 -0.253906,0.285542 -0.418589,0.475294 -0.1576,0.180805 -0.302056,0.35341 -0.433316,0.517658 -0.139921,0.175088 -0.283529,0.356157 -0.430817,0.543205 -0.145137,0.184315 -0.292186,0.374263 -0.441138,0.56984 -0.151974,0.199545 -0.295539,0.388561 -0.430688,0.567041 -0.205377,0.271113 -0.205377,0.271113 -0.415383,0.547895 -0.147217,0.194228 -0.297503,0.386251 -0.450462,0.575579 -0.136266,0.168855 -0.255992,0.322787 -0.361061,0.464179 -0.114299,0.152832 -0.240221,0.320291 -0.379541,0.504718 -0.129255,0.1702 -0.247543,0.331591 -0.354815,0.48403 -0.120192,0.170798 -0.248717,0.349049 -0.38862,0.538892 -0.189926,0.255446 -0.189926,0.255446 -0.34214,0.460634 -0.100189,0.135886 -0.21011,0.282753 -0.326296,0.436015 -0.115323,0.153802 -0.225523,0.301278 -0.328372,0.439427 -0.105968,0.143337 -0.206119,0.278296 -0.302275,0.407312 -0.09719,0.129682 -0.200519,0.265145 -0.310012,0.406432 -0.102678,0.132493 -0.248836,0.324075 -0.436445,0.572104 -0.179941,0.238808 -0.309176,0.416512 -0.382199,0.524525 -0.0833,0.123894 -0.20161,0.304223 -0.355987,0.542743 -0.147671,0.226442 -0.260393,0.405944 -0.335376,0.533372 -0.07899,0.134887 -0.151882,0.264863 -0.216522,0.385819 -0.07063,0.133508 -0.176618,0.337591 -0.316701,0.609859 -0.144947,0.282434 -0.255114,0.494207 -0.333813,0.641436 -0.06822,0.126377 -0.171691,0.326292 -0.308623,0.596555 -0.137517,0.27142 -0.273292,0.546337 -0.406787,0.823635 -0.187614,0.390856 -0.187614,0.390856 -0.304566,0.634544 -0.0642,0.135248 -0.150573,0.32215 -0.258547,0.559544 -0.109515,0.240779 -0.215006,0.474178 -0.316474,0.70019 -0.09851,0.219425 -0.186045,0.420667 -0.26172,0.601528 -0.07718,0.185467 -0.152203,0.370195 -0.225595,0.555475 -0.07088,0.178274 -0.130801,0.335737 -0.181819,0.477843 -0.01572,0.04301 -0.024,0.08436 -0.02606,0.132667 0.148322,0.193397 0.247817,0.291705 0.340975,0.375477 0.08987,0.08135 0.196413,0.168935 0.324342,0.265832 0.142638,0.10922 0.285215,0.216373 0.427061,0.320964 0.228304,0.168157 0.228304,0.168157 0.48468,0.357252 0.169004,0.125213 0.345735,0.254364 0.52844,0.386187 0.193166,0.13883 0.391355,0.283241 0.590794,0.430455 0.198175,0.145043 0.402948,0.293966 0.610723,0.444181 0.190405,0.136554 0.383317,0.264414 0.57728,0.382737 0.216157,0.131424 0.433754,0.261488 0.648973,0.387957 0.204681,0.119239 0.40731,0.229477 0.610521,0.332104 0.333733,0.169673 0.333733,0.169673 0.669602,0.340764 0.220331,0.11266 0.438462,0.223567 0.65439,0.332722 0.226064,0.114279 0.452401,0.232141 0.679013,0.353586 0.226984,0.121644 0.447073,0.243099 0.657607,0.362866 0.195751,0.110683 0.383221,0.213662 0.557619,0.306424 0.194614,0.10238 0.383794,0.203786 0.566184,0.303482 0.15518,0.08456 0.307071,0.161233 0.455601,0.230076 0.254892,0.118165 0.254892,0.118165 0.496527,0.230291 0.152104,0.07095 0.301208,0.139105 0.449523,0.205474 0.147763,0.06648 0.321881,0.143352 0.523799,0.23123 0.189345,0.08276 0.357473,0.152259 0.497761,0.20612 0.169073,0.06389 0.345338,0.131609 0.532598,0.204656 0.170881,0.06732 0.332006,0.128694 0.483269,0.18411 0.147391,0.054 0.288214,0.102872 0.417463,0.145037 0.131204,0.04217 0.270341,0.08344 0.418684,0.124109 0.14207,0.03912 0.287402,0.07498 0.434949,0.107323 0.166961,0.03644 0.32729,0.07078 0.480971,0.103015 0.117772,0.0247 0.249018,0.04533 0.393456,0.06147 l 0.272692,0.03047 c 0.642829,0.07184 1.103252,0.630087 1.028385,1.246888 -0.07487,0.616801 -0.656676,1.058583 -1.299504,0.986746 l -0.272693,-0.03047 c -0.219152,-0.02449 -0.426672,-0.0571 -0.622844,-0.09825 -0.160262,-0.03362 -0.327018,-0.06933 -0.501349,-0.107381 -0.190155,-0.04168 -0.377019,-0.08779 -0.55924,-0.137967 -0.180076,-0.04937 -0.352692,-0.100567 -0.522819,-0.15526 -0.162262,-0.05292 -0.330271,-0.111229 -0.504125,-0.174922 -0.169981,-0.06227 -0.349083,-0.130498 -0.533633,-0.203208 -0.175728,-0.06854 -0.34407,-0.133221 -0.510831,-0.19625 -0.182429,-0.07002 -0.383732,-0.153233 -0.602984,-0.249064 -0.208658,-0.09081 -0.39156,-0.171559 -0.546754,-0.241386 -0.157631,-0.07053 -0.318091,-0.143884 -0.479349,-0.219102 -0.238986,-0.110894 -0.238986,-0.110894 -0.49334,-0.228811 C 29.892862,66.502916 29.695035,66.403054 29.494023,66.29352 29.321487,66.19921 29.143426,66.103765 28.955125,66.004693 28.757511,65.899598 28.552188,65.786811 28.336412,65.664801 28.14076,65.553504 27.938121,65.441679 27.728504,65.329343 27.518516,65.216807 27.308983,65.107695 27.099907,65.002004 26.880695,64.891189 26.659305,64.778625 26.437144,64.665028 26.103927,64.495289 26.103927,64.495289 25.774109,64.327601 25.530752,64.204705 25.28656,64.071855 25.037681,63.926859 24.808437,63.792159 24.580672,63.656017 24.352908,63.517534 24.10737,63.367751 23.865873,63.207689 23.62485,63.034823 23.409835,62.879384 23.20137,62.727776 22.995665,62.57721 22.800254,62.432981 22.61003,62.294373 22.423263,62.16014 22.230976,62.021407 22.046308,61.886455 21.871134,61.756668 21.61747,61.569576 21.61747,61.569576 21.389521,61.401681 c -0.153905,-0.113483 -0.307748,-0.229102 -0.456568,-0.343077 -0.174915,-0.132456 -0.333397,-0.262738 -0.472851,-0.38898 -0.141864,-0.12756 -0.287683,-0.271638 -0.436375,-0.430437 -0.232623,-0.247163 -0.407033,-0.521803 -0.510392,-0.816591 -0.100236,-0.280518 -0.144,-0.572427 -0.13027,-0.863309 0.01131,-0.266405 0.06363,-0.527687 0.153773,-0.774268 0.05776,-0.160961 0.126339,-0.341158 0.205349,-0.539884 0.07752,-0.195704 0.157274,-0.39207 0.240084,-0.591069 0.08412,-0.201062 0.179115,-0.419444 0.285032,-0.655369 0.102961,-0.229339 0.209929,-0.466003 0.320905,-0.709997 0.112516,-0.247379 0.203555,-0.444373 0.275693,-0.596327 0.119063,-0.24811 0.119063,-0.24811 0.307257,-0.640172 0.140487,-0.291825 0.282881,-0.580142 0.427182,-0.864951 0.144887,-0.285965 0.256065,-0.500769 0.333151,-0.643553 0.0695,-0.130031 0.174709,-0.332278 0.315022,-0.605682 0.144136,-0.280147 0.253527,-0.490783 0.331062,-0.637323 0.0807,-0.151022 0.167698,-0.306165 0.262184,-0.467504 0.09615,-0.163399 0.225818,-0.369894 0.388514,-0.619364 0.158762,-0.245308 0.28358,-0.435564 0.377065,-0.574591 0.100636,-0.148866 0.249569,-0.353657 0.451989,-0.622293 0.193715,-0.256105 0.344708,-0.454024 0.45376,-0.594742 0.102236,-0.131923 0.198223,-0.257761 0.286128,-0.375047 0.09256,-0.124201 0.190999,-0.256849 0.297521,-0.400926 0.106658,-0.143275 0.218409,-0.292828 0.338782,-0.453339 0.113923,-0.150301 0.217921,-0.289254 0.313645,-0.419079 0.155277,-0.209325 0.155277,-0.209325 0.343079,-0.461895 0.127413,-0.172912 0.246392,-0.337925 0.356912,-0.494979 0.12344,-0.175414 0.257767,-0.358688 0.401283,-0.54766 0.135485,-0.179358 0.259256,-0.343955 0.369201,-0.490956 0.12189,-0.164041 0.259889,-0.341465 0.414596,-0.533172 0.138689,-0.171665 0.274603,-0.345324 0.408208,-0.521592 0.209703,-0.276384 0.209703,-0.276384 0.414278,-0.546438 0.136448,-0.180196 0.281273,-0.370872 0.434481,-0.572036 0.15623,-0.205132 0.310713,-0.404684 0.463457,-0.59866 0.150593,-0.191244 0.297565,-0.376556 0.440922,-0.555942 0.152019,-0.190225 0.317126,-0.387505 0.493763,-0.590146 0.171313,-0.197395 0.319099,-0.365177 0.445812,-0.506029 0.13013,-0.143895 0.276637,-0.299129 0.439648,-0.465967 0.164333,-0.168241 0.336094,-0.336434 0.517152,-0.506364 0.158462,-0.148062 0.312629,-0.296651 0.464319,-0.447561 0.171417,-0.169782 0.33014,-0.320161 0.479423,-0.453843 0.117169,-0.104305 0.253478,-0.23221 0.409823,-0.384853 0.245363,-0.238413 0.245363,-0.238413 0.473164,-0.459289 0.14813,-0.142839 0.294085,-0.282885 0.442148,-0.424203 0.149644,-0.141388 0.307243,-0.286762 0.474907,-0.438039 0.159767,-0.143453 0.320263,-0.287255 0.481489,-0.431405 0.162942,-0.145686 0.315376,-0.280916 0.455087,-0.403735 0.150811,-0.13328 0.324573,-0.28015 0.519762,-0.439523 0.191135,-0.156785 0.358048,-0.291633 0.498806,-0.40298 0.142763,-0.113542 0.306602,-0.240977 0.491794,-0.382554 0.178848,-0.136727 0.343071,-0.262576 0.487785,-0.373775 0.150317,-0.116792 0.306827,-0.238125 0.46752,-0.362444 0.164061,-0.127502 0.316899,-0.245249 0.453267,-0.349214 0.148361,-0.114486 0.300797,-0.228038 0.454317,-0.338509 0.151704,-0.109899 0.29988,-0.215256 0.447831,-0.318355 0.145773,-0.100855 0.295899,-0.202276 0.452608,-0.305741 0.154438,-0.101466 0.304998,-0.198385 0.44936,-0.289283 0.156778,-0.09924 0.364305,-0.222468 0.62237,-0.370008 0.256418,-0.147766 0.458052,-0.261053 0.603854,-0.339178 0.143731,-0.07776 0.323048,-0.172461 0.540198,-0.28532 0.227033,-0.117589 0.448716,-0.226214 0.666646,-0.326553 0.21713,-0.09961 0.445018,-0.197589 0.680703,-0.292801 0.223272,-0.09091 0.438172,-0.17797 0.647982,-0.262502 0.160277,-0.06403 0.305849,-0.132397 0.435538,-0.203948 0.184575,-0.102146 0.441683,-0.23988 0.773345,-0.414371 z"
         id="path10"
         style="fill:#ffffff;fill-opacity:1;stroke:none;stroke-opacity:1" />
      <path
         d="m 55.939624,28.110085 c 0.276434,0.03415 0.524798,0.07427 0.747566,0.121398 0.191571,0.04069 0.401715,0.0873 0.635,0.140884 0.226853,0.05298 0.461993,0.109479 0.70544,0.169484 0.22971,0.05662 0.466078,0.111968 0.709823,0.1662 0.247556,0.05524 0.518651,0.11439 0.813214,0.177429 0.30962,0.06626 0.62025,0.13759 0.931889,0.213983 0.301014,0.07379 0.528252,0.129703 0.68208,0.167839 0.167138,0.04144 0.406088,0.105896 0.718258,0.193533 0.303523,0.08431 0.609607,0.168615 0.917554,0.252739 0.311993,0.08503 0.544718,0.14868 0.692199,0.189324 0.168571,0.04544 0.395592,0.111899 0.68388,0.199979 0.271019,0.08259 0.484626,0.145938 0.640429,0.189986 0.179622,0.05101 0.354913,0.104878 0.524257,0.161095 0.158273,0.05229 0.385024,0.128478 0.677892,0.227746 0.305048,0.102407 0.601047,0.206413 0.888013,0.312035 0.282738,0.104066 0.499979,0.185711 0.653991,0.24586 0.253753,0.09903 0.253753,0.09903 0.65161,0.254068 0.304867,0.118036 0.539661,0.212679 0.708849,0.286043 0.142903,0.06197 0.34795,0.14764 0.614256,0.256563 0.273532,0.112179 0.491972,0.202309 0.65398,0.269836 0.240189,0.09975 0.240189,0.09975 0.466449,0.19409 0.144435,0.06059 0.350766,0.146832 0.618782,0.258643 0.284153,0.118542 0.556727,0.238909 0.817751,0.361155 0.256048,0.119916 0.514827,0.245892 0.773984,0.376733 0.246607,0.123814 0.483621,0.240958 0.709718,0.350795 0.225386,0.109154 0.455172,0.218029 0.6881,0.326042 0.225793,0.104387 0.449855,0.202378 0.668194,0.292354 0.218081,0.08895 0.424445,0.166692 0.618848,0.233266 0.204839,0.07015 0.396871,0.132663 0.578529,0.188337 0.18876,0.05831 0.369403,0.113122 0.544799,0.165283 0.175033,0.05253 0.340147,0.101539 0.498591,0.147997 0.153672,0.04553 0.335914,0.09822 0.541882,0.156717 0.214181,0.05991 0.430923,0.120176 0.650227,0.180795 0.24012,0.06637 0.461752,0.133406 0.661321,0.200052 0.231134,0.07629 0.458227,0.167781 0.677584,0.272593 0.239377,0.113424 0.462025,0.243045 0.66933,0.390755 0.218905,0.156747 0.419622,0.339011 0.603525,0.547276 0.198615,0.22603 0.358985,0.472685 0.478108,0.73786 0.110478,0.245933 0.190222,0.509083 0.240584,0.787944 0.0464,0.256907 0.06991,0.519828 0.07086,0.788175 0.0011,0.299847 -0.03005,0.573378 -0.09881,0.819563 -0.0493,0.179759 -0.108777,0.361612 -0.176664,0.541333 -0.05999,0.160875 -0.124035,0.326464 -0.191162,0.494353 -0.07041,0.177343 -0.149694,0.364104 -0.237867,0.560504 -0.08072,0.179793 -0.16255,0.363812 -0.246923,0.555278 -0.130118,0.292545 -0.130118,0.292545 -0.271138,0.608796 -0.09482,0.212528 -0.191121,0.429977 -0.288384,0.65119 -0.0972,0.22177 -0.174675,0.400379 -0.229481,0.528872 -0.06105,0.145723 -0.143553,0.337141 -0.247278,0.573866 -0.104445,0.239366 -0.218343,0.493168 -0.341715,0.761489 -0.127115,0.276462 -0.258249,0.546244 -0.392245,0.807053 -0.124018,0.242781 -0.244055,0.483044 -0.359485,0.719505 -0.120918,0.248516 -0.251645,0.511535 -0.391139,0.787011 -0.137504,0.272997 -0.271726,0.538994 -0.402125,0.796918 -0.136737,0.271199 -0.274868,0.533338 -0.414423,0.786431 -0.133835,0.242721 -0.275314,0.49765 -0.424443,0.764801 -0.152747,0.273631 -0.304565,0.537863 -0.454772,0.791521 -0.142363,0.241098 -0.278535,0.47683 -0.407826,0.705959 -0.134408,0.238904 -0.241082,0.427731 -0.318022,0.562943 -0.115118,0.20431 -0.115118,0.20431 -0.225026,0.399626 -0.08039,0.144339 -0.197571,0.345043 -0.351422,0.602293 -0.151723,0.255653 -0.299847,0.502242 -0.445701,0.741943 -0.150877,0.246697 -0.312086,0.498608 -0.485733,0.758933 -0.167133,0.248746 -0.327427,0.483912 -0.480913,0.705534 -0.152349,0.219981 -0.304718,0.437861 -0.458589,0.655734 -0.147475,0.207812 -0.292061,0.415227 -0.435243,0.624405 -0.143444,0.208519 -0.282874,0.413838 -0.41774,0.615135 -0.202151,0.302328 -0.202151,0.302328 -0.390788,0.584564 -0.185319,0.276115 -0.185319,0.276115 -0.373678,0.556224 -0.132845,0.197869 -0.257741,0.377441 -0.376449,0.541027 -0.111273,0.152627 -0.22077,0.301078 -0.33074,0.448352 -0.12321,0.163879 -0.264475,0.336899 -0.42406,0.519863 -0.156528,0.179457 -0.311635,0.347663 -0.465479,0.50465 -0.145978,0.148961 -0.286084,0.287863 -0.418042,0.414472 -0.10036,0.09686 -0.194457,0.196339 -0.284811,0.301277 -0.113071,0.130476 -0.224335,0.258161 -0.333391,0.382598 -0.106058,0.121147 -0.212488,0.243346 -0.31887,0.366111 -0.130426,0.150685 -0.280258,0.30767 -0.451925,0.47402 -0.156553,0.150962 -0.313363,0.296932 -0.468179,0.435866 -0.141558,0.127718 -0.283184,0.257863 -0.424876,0.390436 -0.155941,0.145905 -0.309258,0.2848 -0.460217,0.416889 -0.151753,0.132716 -0.302056,0.259049 -0.450955,0.378999 -0.137315,0.110618 -0.274995,0.221234 -0.410682,0.329954 -0.07972,0.06422 -0.143567,0.126053 -0.195329,0.187848 l -0.148941,0.176536 c -0.4072,0.482646 -1.145073,0.557172 -1.648086,0.166459 -0.503012,-0.390714 -0.580683,-1.098711 -0.173483,-1.581357 l 0.146288,-0.17338 c 0.148018,-0.176743 0.319265,-0.342586 0.51496,-0.500229 0.136472,-0.109355 0.27258,-0.218708 0.408323,-0.328059 0.124158,-0.100019 0.250564,-0.206266 0.378952,-0.318549 0.131077,-0.114691 0.26542,-0.236397 0.402979,-0.365103 0.151809,-0.142039 0.303683,-0.281602 0.457888,-0.420724 0.136421,-0.122432 0.273112,-0.249673 0.408021,-0.379759 0.123872,-0.120039 0.228115,-0.229258 0.31276,-0.327052 0.109307,-0.12614 0.218256,-0.251231 0.32725,-0.375732 0.106652,-0.121694 0.215148,-0.246203 0.323078,-0.370737 0.134007,-0.15565 0.276462,-0.306259 0.429655,-0.454098 0.116799,-0.112069 0.240259,-0.234468 0.370259,-0.367124 0.122134,-0.12463 0.247385,-0.260458 0.375597,-0.407452 0.125154,-0.143488 0.232123,-0.274503 0.318399,-0.389246 0.102542,-0.137337 0.206965,-0.27891 0.311788,-0.422685 0.100336,-0.138272 0.209802,-0.29566 0.328708,-0.472765 0.188142,-0.279787 0.188142,-0.279787 0.371517,-0.553002 0.187737,-0.280891 0.187737,-0.280891 0.390607,-0.584295 0.140566,-0.209804 0.285146,-0.422708 0.432258,-0.636553 0.148882,-0.217511 0.300716,-0.435324 0.454021,-0.651346 0.148413,-0.210149 0.296845,-0.4224 0.445298,-0.636754 0.147315,-0.212713 0.301695,-0.439202 0.461,-0.676286 0.155545,-0.233199 0.300978,-0.460457 0.434981,-0.679557 0.140205,-0.230423 0.284122,-0.470009 0.433656,-0.721961 0.145035,-0.242521 0.251993,-0.425713 0.321362,-0.550245 0.112685,-0.200274 0.112685,-0.200274 0.230484,-0.409322 0.0771,-0.135507 0.182152,-0.321469 0.31565,-0.558753 0.137237,-0.243214 0.280693,-0.491554 0.431075,-0.746229 0.141129,-0.238331 0.283541,-0.486193 0.427216,-0.743571 0.147291,-0.263858 0.286901,-0.515419 0.418823,-0.75467 0.126202,-0.228878 0.251637,-0.466924 0.376818,-0.715199 0.130435,-0.258 0.26416,-0.523012 0.402238,-0.797141 0.13542,-0.267437 0.260958,-0.520016 0.377217,-0.758955 0.121958,-0.249834 0.247966,-0.50205 0.379196,-0.758942 0.120366,-0.234285 0.237466,-0.475195 0.351284,-0.722737 0.117561,-0.255683 0.225614,-0.496462 0.32481,-0.723794 0.10003,-0.228295 0.178154,-0.409563 0.236594,-0.548991 0.06079,-0.142585 0.141022,-0.327556 0.241454,-0.556689 0.09936,-0.225976 0.197265,-0.447064 0.293728,-0.663267 0.140434,-0.314936 0.140434,-0.314936 0.26844,-0.602716 0.08498,-0.192851 0.168877,-0.38152 0.251702,-0.566007 0.07537,-0.167881 0.142106,-0.325085 0.201167,-0.473836 0.06186,-0.154716 0.119739,-0.30437 0.175257,-0.453226 0.04586,-0.121419 0.08421,-0.238696 0.116568,-0.35662 0.01167,-0.04178 0.02072,-0.121324 0.02031,-0.234783 -5.09e-4,-0.143583 -0.01277,-0.280669 -0.03646,-0.411861 -0.01973,-0.109238 -0.04804,-0.202663 -0.08358,-0.28178 -0.0269,-0.05988 -0.06512,-0.118656 -0.115822,-0.176367 -0.06908,-0.07823 -0.140694,-0.14326 -0.213056,-0.195079 -0.08989,-0.06405 -0.192137,-0.123573 -0.311056,-0.179928 -0.132005,-0.06307 -0.264852,-0.11659 -0.402723,-0.162105 -0.161526,-0.05394 -0.342909,-0.108796 -0.543771,-0.164317 -0.221677,-0.06128 -0.440804,-0.122203 -0.661929,-0.184066 -0.218785,-0.06212 -0.409625,-0.117306 -0.56954,-0.164686 -0.160235,-0.04698 -0.330237,-0.09744 -0.507137,-0.150533 -0.180869,-0.05379 -0.369658,-0.111064 -0.563782,-0.171039 -0.204983,-0.06282 -0.421808,-0.133406 -0.650649,-0.211773 -0.239277,-0.08194 -0.488495,-0.175829 -0.751883,-0.283264 -0.253704,-0.104541 -0.508588,-0.216012 -0.765915,-0.334977 -0.246224,-0.114178 -0.488084,-0.228775 -0.726879,-0.344423 -0.23695,-0.115108 -0.483262,-0.236848 -0.741329,-0.366419 -0.240787,-0.121563 -0.478477,-0.237273 -0.713057,-0.347135 -0.229603,-0.10753 -0.47102,-0.214139 -0.724221,-0.319768 -0.269339,-0.112363 -0.476975,-0.199152 -0.621147,-0.259632 -0.221805,-0.09248 -0.221805,-0.09248 -0.461602,-0.192068 -0.158925,-0.06624 -0.373435,-0.154749 -0.642054,-0.264913 -0.279393,-0.114276 -0.498535,-0.205839 -0.659354,-0.275574 -0.134534,-0.05834 -0.342911,-0.142332 -0.623004,-0.250779 -0.400723,-0.156148 -0.400723,-0.156148 -0.65585,-0.255717 -0.136569,-0.05334 -0.340596,-0.130015 -0.609814,-0.229106 -0.26499,-0.09753 -0.5392,-0.193883 -0.825917,-0.290142 -0.290829,-0.09857 -0.512359,-0.173002 -0.665264,-0.223523 -0.137143,-0.04553 -0.278717,-0.08903 -0.423353,-0.130108 -0.172648,-0.04881 -0.400753,-0.11646 -0.686918,-0.203662 -0.26574,-0.08119 -0.46948,-0.140833 -0.613943,-0.179795 -0.151309,-0.04168 -0.382198,-0.104827 -0.692947,-0.189518 -0.311941,-0.08522 -0.621332,-0.170437 -0.931381,-0.256559 -0.293527,-0.0824 -0.51162,-0.141233 -0.649664,-0.175455 -0.151354,-0.03752 -0.376778,-0.09299 -0.675907,-0.166318 -0.288504,-0.07072 -0.575826,-0.136698 -0.861969,-0.197935 -0.301199,-0.06446 -0.579139,-0.125102 -0.833162,-0.181786 -0.260756,-0.05802 -0.515015,-0.117556 -0.762791,-0.178627 -0.234038,-0.05769 -0.459592,-0.111877 -0.672253,-0.161556 -0.216464,-0.04971 -0.413716,-0.09347 -0.590625,-0.131039 -0.149074,-0.03154 -0.330009,-0.06077 -0.545155,-0.08735 -0.24039,-0.03048 -0.450002,-0.0564 -0.628649,-0.07774 -0.484507,-0.05788 -0.899764,-0.300701 -1.317011,-0.684807 -0.466998,-0.429907 -0.48236,-1.141664 -0.03431,-1.589753 0.448048,-0.44809 1.189839,-0.462831 1.656837,-0.03292 0.169234,0.0981 0.384426,0.124713 0.626263,0.155379 z"
         id="path12"
         style="fill:#ffffff;fill-opacity:1;stroke:none;stroke-opacity:1" />
      <path
         d="m 25.643468,91.637113 c -0.165783,-0.09251 -0.315481,-0.173743 -0.44656,-0.242407 -0.138588,-0.07223 -0.281979,-0.145582 -0.426272,-0.218113 -0.14318,-0.07131 -0.30061,-0.146835 -0.470473,-0.225701 -0.189166,-0.08747 -0.387916,-0.181916 -0.594798,-0.282609 -0.206852,-0.100313 -0.411154,-0.201016 -0.611332,-0.301322 -0.211896,-0.105785 -0.428479,-0.21941 -0.64981,-0.34087 -0.211639,-0.116142 -0.418919,-0.231268 -0.621841,-0.345382 -0.198398,-0.111569 -0.396794,-0.222789 -0.592413,-0.332113 -0.185024,-0.102747 -0.376221,-0.203762 -0.577873,-0.305187 -0.187289,-0.09514 -0.371279,-0.181089 -0.555084,-0.25927 -0.223741,-0.09592 -0.430677,-0.1904 -0.621077,-0.283689 C 19.280314,88.4046 19.076621,88.295847 18.864462,88.174174 18.64648,88.049161 18.447964,87.925025 18.270722,87.802606 18.105128,87.688787 17.938474,87.568857 17.76861,87.441232 17.59325,87.308857 17.422182,87.170213 17.25328,87.023464 17.089067,86.880081 16.937318,86.73925 16.795606,86.598355 16.666298,86.46905 16.54354,86.342635 16.422309,86.213703 16.3098,86.09253 16.180696,85.950489 16.036601,85.789417 15.877838,85.612865 15.732407,85.440605 15.600274,85.272358 15.427688,85.052602 15.287597,84.823015 15.180664,84.57945 15.050927,84.280688 14.989412,83.966853 15.00149,83.648175 c 0.01369,-0.362961 0.130683,-0.707205 0.339199,-1.011252 0.157672,-0.230534 0.350305,-0.435171 0.580125,-0.615676 0.217447,-0.168739 0.462977,-0.30943 0.733895,-0.423424 0.266489,-0.112131 0.530727,-0.189677 0.793263,-0.229146 0.167229,-0.02526 0.345787,-0.05 0.5404,-0.07484 0.214807,-0.0266 0.439067,-0.04466 0.672917,-0.05442 0.239505,-0.01 0.492499,-0.0084 0.759581,0.0046 0.261062,0.01268 0.538597,0.03693 0.829926,0.07216 0.301902,0.03571 0.624405,0.08885 0.968221,0.159156 0.320011,0.06544 0.634228,0.133076 0.943277,0.203062 0.293491,0.06662 0.522345,0.117167 0.683933,0.151104 0.15626,0.03268 0.309014,0.06174 0.459131,0.08734 0.246109,0.04226 0.246109,0.04226 0.496035,0.08559 0.131948,0.0236 0.362959,0.05549 0.683203,0.09357 0.334531,0.03986 0.578336,0.06757 0.728733,0.08286 0.158865,0.01623 0.392623,0.04049 0.70191,0.07284 0.288746,0.03027 0.579308,0.05397 0.8717,0.07109 0.306798,0.01797 0.597067,0.0335 0.873829,0.04675 0.266987,0.01345 0.545146,0.02356 0.834504,0.03031 0.297216,0.007 0.580515,0.01287 0.849882,0.01773 0.281476,0.0051 0.559003,0.01344 0.835821,0.02521 0.260122,0.01175 0.512896,0.02212 0.754765,0.03097 0.248332,0.0084 0.498861,0.01637 0.748126,0.02394 0.250355,0.0069 0.500341,0.01239 0.749958,0.01652 0.248628,0.0041 0.489142,0.0065 0.721515,0.0072 0.241305,7.08e-4 0.476073,0.0021 0.7081,0.0043 0.226694,0.0028 0.432618,0.0056 0.622366,0.0085 0.178794,0.0034 0.350177,0.0054 0.519148,0.0061 0.213092,0.0018 0.441427,0.01622 0.690142,0.04331 0.278036,0.03122 0.55052,0.08674 0.812721,0.165304 0.159994,0.0018 0.391148,-0.03829 0.715664,-0.101861 0.634093,-0.124219 1.253076,0.268303 1.382536,0.876722 0.129461,0.608419 -0.279625,1.202339 -0.913717,1.326558 -0.376381,0.07373 -0.654107,0.121906 -0.847772,0.145884 -0.336704,0.04169 -0.679987,0.0044 -1.031487,-0.09966 -0.126798,-0.03799 -0.256599,-0.06444 -0.386266,-0.079 -0.167136,-0.0182 -0.314802,-0.02755 -0.436908,-0.02857 -0.176285,-7.26e-4 -0.359731,-0.0029 -0.545812,-0.0064 -0.182779,-0.0028 -0.386441,-0.0056 -0.607159,-0.0083 -0.222965,-0.0021 -0.452542,-0.0035 -0.688734,-0.0042 -0.243642,-7.17e-4 -0.495215,-0.0032 -0.754738,-0.0075 -0.258533,-0.0043 -0.517427,-0.01 -0.780141,-0.01721 -0.255426,-0.0077 -0.508667,-0.01585 -0.763273,-0.02442 -0.25251,-0.0092 -0.512266,-0.01989 -0.776041,-0.03181 -0.253551,-0.01078 -0.511188,-0.01854 -0.772907,-0.02326 -0.273828,-0.0049 -0.561467,-0.01094 -0.862864,-0.018 -0.310855,-0.0073 -0.610936,-0.01816 -0.897221,-0.03259 -0.282639,-0.01352 -0.581561,-0.02952 -0.896809,-0.04798 -0.329653,-0.01931 -0.657487,-0.04605 -0.983188,-0.08019 -0.307216,-0.03213 -0.539262,-0.05621 -0.695235,-0.07215 -0.167032,-0.01699 -0.422616,-0.04603 -0.769696,-0.08739 -0.363433,-0.04322 -0.634732,-0.08067 -0.818043,-0.11347 -0.24121,-0.04179 -0.24121,-0.04179 -0.483747,-0.08345 -0.179316,-0.03059 -0.361678,-0.06528 -0.548127,-0.104269 -0.177617,-0.0373 -0.418218,-0.09044 -0.722787,-0.15958 -0.291716,-0.06606 -0.589323,-0.130124 -0.892818,-0.192184 -0.279691,-0.05719 -0.535427,-0.09933 -0.769636,-0.127039 -0.238507,-0.02884 -0.45817,-0.04803 -0.658346,-0.05776 -0.195988,-0.0095 -0.375943,-0.01066 -0.539454,-0.0038 -0.169166,0.0071 -0.327479,0.01981 -0.470196,0.03747 -0.172122,0.02198 -0.332331,0.04417 -0.481325,0.06668 -0.05351,0.008 -0.125847,0.02927 -0.215647,0.06706 -0.08537,0.03592 -0.151594,0.07387 -0.195929,0.108246 0.0035,0.06021 0.03434,0.10562 0.07198,0.153551 0.10004,0.127381 0.213064,0.261257 0.340984,0.403515 0.137241,0.153405 0.257101,0.285276 0.354241,0.38993 0.09988,0.106196 0.206372,0.215862 0.317104,0.326598 0.103036,0.102436 0.218503,0.209597 0.344177,0.319334 0.126752,0.110123 0.256486,0.215267 0.387111,0.313877 0.141816,0.106548 0.281804,0.207289 0.422106,0.303727 0.122846,0.08485 0.266017,0.174374 0.429147,0.267929 0.168954,0.09689 0.327391,0.181488 0.474917,0.253771 0.152748,0.07484 0.323274,0.152695 0.50814,0.231956 0.231141,0.09831 0.464039,0.207106 0.694468,0.32417 0.226086,0.113702 0.445936,0.229855 0.662323,0.350024 0.20024,0.111902 0.400479,0.224154 0.600716,0.336757 0.195712,0.11006 0.395829,0.221208 0.600347,0.333441 0.194827,0.106916 0.38418,0.206255 0.569573,0.29881 0.192501,0.09646 0.387564,0.192608 0.586712,0.289186 0.19461,0.09472 0.379163,0.182415 0.55525,0.263842 0.190604,0.08849 0.367561,0.173389 0.534913,0.256745 0.158459,0.07964 0.312219,0.158303 0.46349,0.237141 0.152921,0.0801 0.320817,0.171206 0.504022,0.273442 0.205696,0.114788 0.397417,0.233106 0.572951,0.353773 0.157479,0.107718 0.307371,0.213614 0.452956,0.320126 0.479134,0.353056 0.689787,0.895305 0.60557,1.456405 -0.05373,0.368268 -0.208842,0.712739 -0.446581,1.024145 -0.141921,0.186951 -0.290806,0.372051 -0.444768,0.553108 -0.148853,0.175955 -0.287503,0.335302 -0.414243,0.476068 -0.12499,0.139554 -0.2522,0.27905 -0.37962,0.41632 -0.123138,0.133353 -0.247388,0.268814 -0.374679,0.408494 -0.125797,0.137352 -0.244265,0.267312 -0.357555,0.392243 -0.109321,0.11988 -0.220157,0.24293 -0.332501,0.369146 l -0.173034,0.1944 c -0.420298,0.472196 -1.15996,0.528063 -1.652081,0.124782 -0.492122,-0.403281 -0.550346,-1.112995 -0.130048,-1.58519 l 0.173034,-0.1944 c 0.118368,-0.132983 0.235324,-0.262828 0.348711,-0.38716 0.113743,-0.125438 0.234748,-0.25818 0.361098,-0.396131 0.128713,-0.141246 0.256347,-0.280397 0.384911,-0.41962 0.120267,-0.129569 0.238371,-0.25908 0.356289,-0.390733 0.112219,-0.124641 0.235674,-0.266525 0.371962,-0.427623 0.05379,-0.06325 0.106494,-0.126674 0.158258,-0.190437 -0.08062,-0.0512 -0.166911,-0.102514 -0.258877,-0.153835 z"
         id="path14"
         style="fill:#ffffff;fill-opacity:1;stroke:none;stroke-opacity:1" />
      <path
         d="m 82.43607,78.834337 c -0.130208,-0.07036 -0.285621,-0.151758 -0.46576,-0.243897 -0.163096,-0.08342 -0.327078,-0.160271 -0.495393,-0.232055 -0.11494,-0.04944 -0.232581,-0.0863 -0.350275,-0.110271 -0.09455,-0.01893 -0.198567,-0.02509 -0.318918,-0.01677 -0.20052,0.0132 -0.374619,0.02923 -0.521821,0.04778 -0.258554,0.0325 -0.258554,0.0325 -0.519879,0.06552 -0.169391,0.02084 -0.353084,0.04378 -0.555242,0.06935 -0.198352,0.0244 -0.391947,0.04845 -0.580208,0.07207 -0.190606,0.02401 -0.38412,0.04801 -0.576264,0.07148 -0.301097,0.03778 -0.301097,0.03778 -0.629469,0.07864 -0.220568,0.02799 -0.449654,0.05876 -0.687234,0.0923 -0.367341,0.05185 -0.367341,0.05185 -0.744417,0.10504 -0.225532,0.0319 -0.455157,0.07238 -0.689548,0.121661 -0.24447,0.05125 -0.496599,0.109588 -0.75634,0.175035 -0.274311,0.06912 -0.548622,0.138583 -0.82013,0.207682 -0.270433,0.06952 -0.492164,0.127758 -0.663246,0.174179 -0.164591,0.04484 -0.377173,0.106835 -0.633395,0.184783 -0.27249,0.08361 -0.498726,0.152179 -0.67917,0.205838 -0.168429,0.05008 -0.38637,0.117641 -0.655409,0.203226 -0.271542,0.08569 -0.552238,0.174884 -0.841246,0.267319 -0.288756,0.09259 -0.564334,0.181655 -0.829474,0.268093 -0.251404,0.0813 -0.493583,0.164073 -0.725439,0.247911 -0.24369,0.08838 -0.489579,0.178159 -0.734881,0.268312 -0.246306,0.09122 -0.470597,0.175369 -0.67278,0.252417 -0.297303,0.113229 -0.297303,0.113229 -0.544259,0.206998 -0.342931,0.130696 -0.752606,0.16725 -1.316881,0.155872 -0.647031,-0.01305 -1.16053,-0.526909 -1.146932,-1.147742 0.0136,-0.620833 0.549143,-1.113541 1.196174,-1.100494 0.2695,0.0054 0.432954,-0.0091 0.404246,0.0018 0.246678,-0.09366 0.246678,-0.09366 0.542582,-0.20636 0.209593,-0.07987 0.440885,-0.166651 0.696754,-0.261405 0.251301,-0.09236 0.50042,-0.183321 0.748434,-0.273268 0.259155,-0.09371 0.527317,-0.185367 0.801754,-0.274108 0.266205,-0.08679 0.545503,-0.177059 0.838745,-0.271084 0.292775,-0.09364 0.576447,-0.183782 0.848337,-0.269577 0.279759,-0.089 0.51156,-0.16085 0.6965,-0.215846 0.172924,-0.05142 0.39278,-0.118057 0.661852,-0.200614 0.279845,-0.08514 0.514085,-0.153447 0.705537,-0.205608 0.183993,-0.04993 0.415654,-0.110775 0.698521,-0.183484 0.276184,-0.07029 0.552369,-0.140233 0.828554,-0.209823 0.290754,-0.07326 0.574519,-0.138918 0.850671,-0.196811 0.286111,-0.06015 0.569017,-0.110031 0.849196,-0.149657 0.377367,-0.05323 0.377367,-0.05323 0.744507,-0.105053 0.248667,-0.03511 0.489036,-0.06739 0.724338,-0.09725 0.329892,-0.04105 0.329892,-0.04105 0.633219,-0.07911 0.193448,-0.02364 0.383967,-0.04727 0.57213,-0.07097 0.190815,-0.02394 0.386363,-0.04823 0.58246,-0.07235 0.200663,-0.02539 0.387131,-0.04868 0.555188,-0.06935 0.258365,-0.03266 0.258365,-0.03266 0.51755,-0.06523 0.198038,-0.02496 0.419654,-0.04536 0.66188,-0.0613 0.329086,-0.02278 0.650719,-0.0037 0.966054,0.05941 0.284291,0.05789 0.560175,0.144329 0.822928,0.257352 0.216217,0.09221 0.430427,0.192594 0.642603,0.301119 0.195133,0.09981 0.366075,0.189342 0.515075,0.269857 0.150876,0.08186 0.299486,0.165669 0.441874,0.24913 0.232053,0.134798 0.443713,0.303257 0.634423,0.502157 0.239497,0.249783 0.41234,0.540199 0.50718,0.861733 0.129544,0.439188 0.07201,0.892116 -0.162452,1.28424 -0.120916,0.204109 -0.274512,0.405625 -0.458061,0.606356 -0.15206,0.167083 -0.311859,0.331755 -0.477383,0.492115 -0.161758,0.157468 -0.318201,0.303786 -0.469335,0.438879 -0.144514,0.129225 -0.295896,0.262162 -0.449819,0.395065 -0.162212,0.141495 -0.336644,0.288498 -0.521253,0.439386 -0.188859,0.155112 -0.389293,0.313273 -0.599715,0.473325 -0.207686,0.158549 -0.432294,0.325527 -0.67347,0.500706 -0.238737,0.173582 -0.469161,0.339136 -0.691293,0.496673 -0.214061,0.151813 -0.446602,0.319157 -0.698822,0.502915 -0.258804,0.188018 -0.517989,0.37427 -0.778008,0.559078 -0.253682,0.180124 -0.442484,0.314778 -0.563002,0.401501 -0.122807,0.08889 -0.311553,0.226545 -0.56259,0.41029 -0.263621,0.19424 -0.515874,0.374861 -0.758291,0.54289 -0.235119,0.16246 -0.457184,0.314453 -0.66783,0.45708 -0.220199,0.14857 -0.424658,0.280738 -0.615759,0.397841 -0.190188,0.116059 -0.370864,0.220847 -0.53873,0.312441 -0.169987,0.09354 -0.357185,0.19078 -0.558764,0.290459 0.08982,0.09462 0.201217,0.190695 0.321212,0.294734 0.191984,0.166455 0.361947,0.318715 0.508071,0.455198 0.127752,0.118689 0.26433,0.240935 0.409703,0.366669 0.152435,0.131844 0.29491,0.253817 0.424701,0.36363 0.118345,0.09951 0.234497,0.191578 0.350832,0.278061 0.07486,0.05595 0.169264,0.113461 0.288819,0.173726 l 0.259551,0.132402 c 0.571435,0.291501 0.788396,0.972292 0.484595,1.520591 -0.303801,0.548299 -1.013321,0.756475 -1.584757,0.464974 L 76.135138,91.41038 C 75.901952,91.292867 75.690447,91.164031 75.503478,91.024274 75.351586,90.911363 75.199061,90.790466 75.043139,90.65935 74.904002,90.541638 74.755167,90.414219 74.59658,90.277055 74.43093,90.133782 74.274007,89.993326 74.123552,89.85354 73.997387,89.735703 73.848296,89.602142 73.67669,89.453355 c -0.179119,-0.155301 -0.337677,-0.291606 -0.475519,-0.408791 -0.170392,-0.144856 -0.325986,-0.290709 -0.46929,-0.440719 -0.209797,-0.221038 -0.37205,-0.472162 -0.48183,-0.749868 -0.214882,-0.546248 -0.0926,-1.128069 0.32643,-1.551579 0.1938,-0.195871 0.42546,-0.364177 0.696856,-0.511687 0.181808,-0.09766 0.372937,-0.196409 0.576592,-0.297866 0.174915,-0.0865 0.331595,-0.167891 0.473347,-0.24588 0.1366,-0.07454 0.284469,-0.160301 0.441391,-0.256058 0.158305,-0.09701 0.334228,-0.21073 0.52567,-0.339896 0.202728,-0.137267 0.418723,-0.285105 0.646527,-0.442509 0.221888,-0.153802 0.455882,-0.321348 0.704835,-0.504774 0.257069,-0.188167 0.448706,-0.327928 0.578217,-0.421668 0.128013,-0.09212 0.320324,-0.229278 0.577261,-0.411713 0.252963,-0.179793 0.505578,-0.361324 0.756559,-0.543657 0.258676,-0.188464 0.49924,-0.361582 0.72178,-0.519408 0.214468,-0.152101 0.437436,-0.312298 0.669332,-0.480905 0.227101,-0.164957 0.436903,-0.320928 0.630941,-0.469055 0.189504,-0.144143 0.367262,-0.284412 0.535353,-0.422462 0.168099,-0.137398 0.323673,-0.268509 0.470988,-0.39699 0.148374,-0.12813 0.289763,-0.252291 0.424312,-0.372605 0.126139,-0.112751 0.258816,-0.236842 0.399835,-0.374116 0.104151,-0.100904 0.204088,-0.202485 0.300689,-0.305675 -0.08968,-0.05144 -0.180201,-0.101942 -0.270896,-0.15115 z m -8.143235,9.000973 c -0.0064,0.0054 -0.01194,0.01057 -0.01669,0.01537 0.0017,-0.0017 0.0034,-0.0035 0.0051,-0.0052 z"
         id="path16"
         style="fill:#ffffff;fill-opacity:1;stroke:none;stroke-opacity:1" />
    </g>
  </g>
  <metadata
     id="metadata242">
    <rdf:RDF>
      <cc:Work
         rdf:about="">
        <dc:title>Person figure sitting</dc:title>
      </cc:Work>
    </rdf:RDF>
  </metadata>
  <path
     style="fill:#ffffff;fill-opacity:1;stroke:none;stroke-width:3.00094;stroke-linecap:round;stroke-linejoin:round"
     d="m 39.609495,10.022322 4.626784,-3.4632146 7.897316,-0.3581122 2.374849,2.8083534 2.261761,4.4858264 -0.150784,4.862786 -1.828257,5.390531 -12.156966,1.357057 -5.597859,-4.994723 c 0,0 0.811269,-8.679723 2.573156,-10.088504 z"
     id="path12950" />
</svg>
