<?xml version="1.0" encoding="UTF-8" standalone="no"?>
<svg
   viewBox="0 0 100 100"
   x="0px"
   y="0px"
   version="1.1"
   id="svg14"
   sodipodi:docname="noun-notebook-2669597.svg"
   width="100"
   height="100"
   inkscape:version="1.2.2 (732a01da63, 2022-12-09)"
   xmlns:inkscape="http://www.inkscape.org/namespaces/inkscape"
   xmlns:sodipodi="http://sodipodi.sourceforge.net/DTD/sodipodi-0.dtd"
   xmlns="http://www.w3.org/2000/svg"
   xmlns:svg="http://www.w3.org/2000/svg">
  <defs
     id="defs18" />
  <sodipodi:namedview
     id="namedview16"
     pagecolor="#ffffff"
     bordercolor="#000000"
     borderopacity="0.25"
     inkscape:showpageshadow="2"
     inkscape:pageopacity="0.0"
     inkscape:pagecheckerboard="0"
     inkscape:deskcolor="#d1d1d1"
     showgrid="false"
     inkscape:zoom="7.327394"
     inkscape:cx="35.005624"
     inkscape:cy="55.272038"
     inkscape:window-width="1920"
     inkscape:window-height="1009"
     inkscape:window-x="-8"
     inkscape:window-y="-8"
     inkscape:window-maximized="1"
     inkscape:current-layer="svg14" />
  <g
     id="g8"
     transform="matrix(0.74521545,0,0,0.74521545,2.3749637,1.0035955)"
     style="fill:#ffffff;fill-opacity:1">
    <path
       d="m 116.841,108.277 a 3.917,3.917 0 0 0 1.368,-1.729 4.779,4.779 0 0 0 0.19,-2.574 c -0.131,-0.726 -0.377,-1.443 -0.573,-2.154 -0.206,-0.741 -0.407,-1.473 -0.574,-2.224 -0.167,-0.751 -0.367,-1.518 -0.56,-2.275 -0.193,-0.757 -0.355,-1.551 -0.532,-2.327 -0.774,-3.393 -1.448,-6.805 -2.133,-10.218 -0.69,-3.436 -1.632,-6.811 -2.319,-10.246 -0.174,-0.862 -0.324,-1.729 -0.486,-2.592 -0.155,-0.831 -0.345,-1.652 -0.524,-2.477 -0.373,-1.722 -0.683,-3.457 -1.052,-5.182 -0.369,-1.725 -0.717,-3.448 -1.089,-5.171 -0.188,-0.87 -0.377,-1.74 -0.561,-2.611 -0.17,-0.8 -0.31,-1.62 -0.508,-2.42 -0.832,-3.39 -1.621,-6.781 -2.315,-10.2 -0.336,-1.656 -0.753,-3.3 -1.158,-4.935 -0.419,-1.706 -0.8,-3.427 -1.113,-5.154 -0.324,-1.771 -0.6,-3.55 -0.943,-5.316 -0.327,-1.677 -0.653,-3.354 -1.019,-5.022 -0.235,-1.07 -0.484,-2.136 -0.723,-3.2 -0.137,-0.613 -0.273,-1.228 -0.405,-1.841 -0.12,-0.555 -0.284,-1.1 -0.408,-1.652 -0.487,-2.18 -1.162,-4.321 -1.851,-6.447 -0.307,-0.956 -0.606,-1.905 -1,-2.827 A 6.93,6.93 0 0 0 94.668,4.945 4.479,4.479 0 0 0 91.018,4.015 C 89.41,4.315 87.839,4.806 86.253,5.202 82.994,6.01 79.67,6.521 76.367,7.1 c -1.675,0.294 -3.356,0.522 -5.024,0.86 -0.82,0.166 -1.65,0.308 -2.461,0.52 -0.811,0.212 -1.608,0.439 -2.415,0.653 -3.252,0.864 -6.5,1.763 -9.792,2.462 -0.812,0.171 -1.626,0.287 -2.447,0.4 -0.821,0.113 -1.635,0.282 -2.448,0.433 -0.813,0.151 -1.648,0.28 -2.471,0.422 -0.823,0.142 -1.642,0.31 -2.466,0.451 -0.8,0.136 -1.612,0.218 -2.417,0.323 -0.881,0.116 -1.757,0.26 -2.634,0.4 -1.6,0.249 -3.172,0.668 -4.747,1.054 -1.72,0.419 -3.445,0.783 -5.177,1.147 -1.709,0.36 -3.407,0.764 -5.127,1.072 -1.691,0.3 -3.371,0.642 -5.054,0.982 -1.241,0.25 -2.475,0.536 -3.706,0.833 q -1.646,0.4 -3.285,0.83 c -0.116,0.03 -2.923,0.681 -3.892,1.083 -0.242,0.1 -1.579,0.556 -1.477,0.921 0.432,1.516 0.758,3.067 1.144,4.595 0.417,1.651 0.8,3.306 1.257,4.948 0.457,1.642 0.964,3.247 1.376,4.888 0.418,1.665 0.8,3.341 1.083,5.033 0.313,1.833 0.624,3.664 0.954,5.493 0.3,1.676 0.527,3.368 0.827,5.046 0.317,1.779 0.586,3.566 0.914,5.345 0.315,1.7 0.521,3.423 0.8,5.134 0.29,1.789 0.59,3.577 0.856,5.369 0.258,1.747 0.5,3.492 0.793,5.234 0.56,3.387 0.9,6.806 1.435,10.2 0.141,0.892 0.312,1.781 0.455,2.672 0.129,0.807 0.251,1.613 0.372,2.419 q 0.387,2.571 0.747,5.147 c 0.243,1.747 0.481,3.493 0.772,5.234 q 0.24,1.437 0.491,2.87 c 0.149,0.855 0.346,1.7 0.5,2.562 0.142,0.793 0.278,1.584 0.441,2.374 0.169,0.816 0.365,1.626 0.542,2.44 0.2,0.9 0.386,1.8 0.6,2.688 0.2,0.831 0.461,1.643 0.719,2.458 0.3,0.945 0.6,1.892 0.922,2.83 0.283,0.815 0.551,1.634 0.9,2.423 0.216,0.485 0.435,0.972 0.685,1.441 a 5.3,5.3 0 0 0 1.369,1.692 3.638,3.638 0 0 0 1.082,0.661 6.821,6.821 0 0 0 1.465,0.313 8.916,8.916 0 0 0 2.1,-0.162 c 0.424,-0.062 0.848,-0.116 1.275,-0.162 1.679,-0.18 3.347,-0.431 5.027,-0.6 0.7,-0.074 1.406,-0.141 2.107,-0.228 a 2.711,2.711 0 0 0 1.025,-0.147 c 0.6,-0.1 1.192,-0.2 1.791,-0.292 1.7,-0.253 3.392,-0.556 5.084,-0.868 1.673,-0.308 3.33,-0.682 5.005,-0.974 1.732,-0.3 3.467,-0.572 5.2,-0.851 1.7,-0.272 3.385,-0.614 5.071,-0.959 1.712,-0.35 3.436,-0.657 5.155,-0.971 1.791,-0.328 3.572,-0.692 5.359,-1.031 1.711,-0.326 3.411,-0.738 5.11,-1.121 1.699,-0.383 3.4,-0.729 5.1,-1.065 1.64,-0.321 3.3,-0.568 4.945,-0.852 1.722,-0.3 3.44,-0.64 5.169,-0.9 0.831,-0.126 1.67,-0.217 2.5,-0.342 0.817,-0.124 1.631,-0.267 2.45,-0.385 1.7,-0.244 3.383,-0.545 5.081,-0.773 1.741,-0.233 3.474,-0.494 5.193,-0.869 a 21.77,21.77 0 0 0 2.775,-0.817 6.092,6.092 0 0 0 1.491,-0.809 z M 91.919,9.333 91.951,9.341 91.918,9.333 Z M 37.788,117.526 c -0.721,0.1 -1.434,0.177 -2.226,0.263 l -0.2,0.021 c -0.363,0.039 -0.723,0.088 -1.085,0.14 -0.238,0.033 -0.476,0.066 -0.72,0.091 a 28.574,28.574 0 0 1 -1.541,-3.971 l -0.1,-0.3 c -0.419,-1.313 -0.894,-2.842 -1.229,-4.4 -0.123,-0.578 -0.252,-1.153 -0.381,-1.728 L 30.28,107.52 c -0.231,-1.034 -0.468,-2.1 -0.674,-3.161 -0.069,-0.361 -0.129,-0.725 -0.191,-1.109 l -0.012,-0.074 c -0.067,-0.4 -0.136,-0.816 -0.22,-1.218 -0.175,-0.849 -0.35,-1.779 -0.537,-2.845 -0.269,-1.538 -0.524,-3.176 -0.78,-5.006 -0.367,-2.639 -0.929,-6.611 -1.575,-10.621 -0.054,-0.346 -0.115,-0.694 -0.175,-1.041 l -0.035,-0.206 c -0.077,-0.441 -0.153,-0.882 -0.224,-1.324 -0.113,-0.732 -0.212,-1.477 -0.3,-2.177 l -0.02,-0.151 c -0.068,-0.523 -0.135,-1.051 -0.2,-1.575 l -0.008,-0.063 c -0.15,-1.207 -0.306,-2.457 -0.5,-3.682 q -0.123,-0.778 -0.25,-1.558 l -0.024,-0.142 c -0.184,-1.14 -0.374,-2.319 -0.534,-3.483 -0.219,-1.6 -0.484,-3.235 -0.717,-4.677 l -0.063,-0.382 q -0.235,-1.458 -0.463,-2.914 c -0.05,-0.329 -0.1,-0.659 -0.14,-0.986 -0.059,-0.436 -0.128,-0.93 -0.211,-1.414 q -0.159,-0.937 -0.323,-1.875 c -0.205,-1.18 -0.409,-2.359 -0.6,-3.542 -0.1,-0.627 -0.2,-1.253 -0.311,-1.879 l -0.071,-0.419 c -0.149,-0.9 -0.3,-1.791 -0.446,-2.688 -0.152,-0.942 -0.319,-1.883 -0.485,-2.823 l -0.043,-0.25 c -0.143,-0.812 -0.285,-1.624 -0.42,-2.437 -0.277,-1.7 -0.609,-3.41 -0.987,-5.068 -0.306,-1.331 -0.688,-2.662 -1.062,-3.965 q -0.14,-0.481 -0.276,-0.963 l -0.18,-0.625 c -0.221,-0.764 -0.45,-1.555 -0.637,-2.34 l -0.11,-0.458 -0.022,-0.091 c -0.2,-0.848 -0.416,-1.725 -0.641,-2.586 -0.04,-0.159 -0.082,-0.317 -0.115,-0.48 0.491,-0.131 1.025,-0.263 1.633,-0.4 0.507,-0.118 1.016,-0.254 1.511,-0.387 l 0.051,-0.013 0.138,-0.037 c 0.252,-0.068 0.5,-0.135 0.757,-0.2 0.54,-0.139 1.111,-0.249 1.616,-0.346 l 0.21,-0.041 v 0 h 0.006 q 0.052,0.259 0.105,0.516 c 0.105,0.483 0.231,0.969 0.354,1.436 l 0.013,0.047 c 0.07,0.264 0.141,0.528 0.2,0.792 0.09,0.353 0.174,0.708 0.26,1.063 0.107,0.448 0.214,0.9 0.328,1.342 0.126,0.481 0.216,0.977 0.308,1.482 0.052,0.295 0.106,0.587 0.165,0.879 l 0.088,0.416 c 0.132,0.631 0.267,1.286 0.425,1.922 l 0.187,0.733 0.009,0.035 c 0.152,0.588 0.3,1.163 0.424,1.737 0.311,1.4 0.595,2.893 0.924,4.846 0.112,0.683 0.235,1.369 0.359,2.054 0.179,1 0.364,2.043 0.522,3.069 q 0.173,1.118 0.339,2.241 c 0.151,1 0.3,2 0.46,3 0.164,1.035 0.315,2.093 0.463,3.115 l 0.007,0.048 c 0.335,2.324 0.681,4.726 1.188,7.08 q 0.3,1.369 0.6,2.738 c 0.191,0.858 0.382,1.717 0.566,2.577 0.078,0.357 0.149,0.715 0.22,1.072 l 0.022,0.114 c 0.078,0.392 0.155,0.783 0.244,1.171 q 0.287,1.3 0.587,2.589 l 0.238,1.014 c 0.3,1.264 0.637,2.7 0.909,4.081 l 0.157,0.808 0.013,0.067 c 0.273,1.4 0.556,2.849 0.876,4.261 0.35,1.535 0.629,3.111 0.9,4.652 l 0.12,0.675 c 0.31,1.755 0.621,3.473 0.988,5.192 0.215,1.007 0.418,2.033 0.613,3.024 l 0.023,0.114 c 0.132,0.666 0.264,1.331 0.4,2 l 0.151,0.766 c 0.106,0.541 0.226,1.154 0.362,1.74 0.111,0.47 0.227,0.939 0.343,1.408 l 0.067,0.266 c 0.07,0.283 0.14,0.567 0.207,0.851 l 0.163,0.682 c 0.274,1.132 0.612,2.54 0.887,3.88 0.28,1.382 0.525,2.811 0.73,4.251 0.092,0.661 0.21,1.329 0.325,1.977 l 0.017,0.092 c 0.124,0.7 0.266,1.5 0.373,2.292 0.054,0.4 0.112,0.8 0.171,1.207 l 0.005,0.031 v 0 0.007 c -0.849,0.082 -1.684,0.197 -2.237,0.276 z m 75.075,-13.262 -0.215,0.077 c -0.632,0.177 -1.273,0.3 -1.907,0.428 -1,0.2 -1.894,0.353 -2.729,0.475 -0.531,0.077 -1.065,0.146 -1.6,0.217 l -0.2,0.025 -0.69,0.09 c -0.531,0.069 -1.073,0.163 -1.551,0.246 l -0.183,0.031 c -0.243,0.042 -0.486,0.084 -0.73,0.123 -1.27,0.2 -2.567,0.39 -3.712,0.558 l -0.1,0.016 c -2.039,0.3 -4.147,0.607 -6.212,0.987 -1.742,0.32 -3.478,0.615 -5.185,0.9 -1.47,0.248 -2.955,0.548 -4.405,0.842 l -0.755,0.153 c -1.076,0.215 -2.165,0.464 -3.218,0.7 l -0.161,0.036 q -0.894,0.2 -1.785,0.405 c -1.121,0.249 -2.267,0.47 -3.375,0.685 l -0.1,0.02 c -0.571,0.111 -1.142,0.221 -1.713,0.337 -1.239,0.246 -2.464,0.47 -3.823,0.715 l -1.247,0.227 c -0.782,0.142 -1.579,0.3 -2.348,0.462 l -0.086,0.017 c -0.892,0.182 -1.762,0.36 -2.613,0.513 -1,0.178 -2.015,0.34 -3.024,0.5 -0.73,0.116 -1.459,0.232 -2.188,0.356 -1.748,0.3 -3.507,0.624 -5.225,0.977 -1.485,0.3 -3.048,0.593 -4.778,0.885 -0.366,0.059 -0.737,0.115 -1.131,0.172 l -0.489,0.065 H 45.37 l -0.045,-0.269 c -0.054,-0.346 -0.1,-0.7 -0.15,-1.047 -0.063,-0.488 -0.129,-0.965 -0.217,-1.439 -0.17,-0.922 -0.318,-1.859 -0.461,-2.766 -0.1,-0.659 -0.207,-1.317 -0.321,-1.975 -0.3,-1.779 -0.626,-3.389 -0.977,-4.919 -0.206,-0.893 -0.43,-1.8 -0.648,-2.679 -0.194,-0.781 -0.387,-1.563 -0.57,-2.346 -0.261,-1.1 -0.475,-2.238 -0.683,-3.335 L 41.273,95.6 c -0.1,-0.511 -0.193,-1.024 -0.294,-1.534 -0.139,-0.71 -0.29,-1.42 -0.442,-2.133 l -0.01,-0.052 c -0.209,-0.981 -0.427,-2 -0.611,-3 -0.165,-0.905 -0.323,-1.809 -0.482,-2.721 -0.159,-0.912 -0.316,-1.808 -0.482,-2.711 -0.166,-0.903 -0.355,-1.786 -0.569,-2.768 l -0.008,-0.04 C 38.211,79.883 38.042,79.1 37.892,78.325 l -0.131,-0.688 c -0.266,-1.384 -0.541,-2.815 -0.877,-4.2 -0.452,-1.853 -0.879,-3.733 -1.244,-5.351 -0.172,-0.771 -0.333,-1.562 -0.5,-2.372 l -0.007,-0.042 c -0.168,-0.82 -0.34,-1.67 -0.531,-2.5 L 34.52,62.8 c -0.352,-1.54 -0.715,-3.132 -0.968,-4.722 -0.525,-3.337 -1.014,-6.612 -1.6,-10.547 l -0.043,-0.294 c -0.231,-1.549 -0.47,-3.153 -0.771,-4.718 -0.15,-0.781 -0.283,-1.584 -0.41,-2.36 L 30.72,40.117 c -0.153,-0.937 -0.294,-1.783 -0.464,-2.635 -0.314,-1.583 -0.629,-2.979 -0.965,-4.266 -0.315,-1.208 -0.6,-2.536 -0.87,-4.06 -0.095,-0.549 -0.233,-1.1 -0.372,-1.659 l -0.109,-0.438 -0.117,-0.477 -0.071,-0.3 c -0.1,-0.434 -0.209,-0.868 -0.319,-1.3 L 27.321,24.551 C 27.202,24.1 27.068,23.588 26.966,23.084 l -0.055,-0.317 v -0.026 0 -0.008 l 0.7,-0.129 0.189,-0.034 c 0.7,-0.129 1.391,-0.257 2.085,-0.4 0.528,-0.1 1.062,-0.227 1.577,-0.346 l 0.082,-0.019 0.823,-0.191 c 0.513,-0.114 1.028,-0.218 1.543,-0.319 0.357,-0.072 0.715,-0.143 1.072,-0.22 1.132,-0.24 2.273,-0.521 3.377,-0.794 l 0.06,-0.014 1.542,-0.381 c 1.608,-0.384 3.209,-0.636 4.845,-0.882 0.412,-0.059 0.826,-0.113 1.24,-0.168 l 0.2,-0.026 c 0.394,-0.05 0.789,-0.1 1.181,-0.158 0.674,-0.094 1.367,-0.227 1.979,-0.344 l 0.382,-0.074 c 1.315,-0.246 2.659,-0.479 3.96,-0.7 l 0.087,-0.016 0.9,-0.156 c 0.354,-0.06 0.709,-0.11 1.066,-0.16 l 0.052,-0.006 c 0.43,-0.061 0.874,-0.122 1.308,-0.208 0.591,-0.113 1.477,-0.291 2.358,-0.514 l 2.229,-0.565 0.034,-0.008 q 1.359,-0.342 2.716,-0.687 c 0.829,-0.212 1.668,-0.444 2.48,-0.666 l 0.121,-0.033 c 0.73,-0.2 1.46,-0.4 2.191,-0.591 1.5,-0.392 3.151,-0.74 4.918,-1.031 q 0.79,-0.129 1.581,-0.255 c 0.962,-0.153 1.956,-0.312 2.953,-0.487 1.563,-0.271 3.124,-0.554 4.684,-0.838 1.585,-0.286 3.127,-0.655 4.425,-0.979 0.454,-0.113 0.907,-0.238 1.389,-0.37 0.737,-0.2 1.5,-0.411 2.259,-0.568 v 0 0 a 12.025,12.025 0 0 1 0.736,1.815 l 0.012,0.034 0.321,1 c 0.467,1.479 0.954,3.07 1.352,4.68 0.273,1.093 0.528,2.217 0.753,3.21 l 0.092,0.4 c 0.105,0.458 0.21,0.917 0.316,1.373 0.784,3.346 1.464,6.707 2.021,9.989 0.361,2.131 0.685,3.849 1.022,5.4 0.223,1.033 0.477,2.074 0.721,3.081 l 0.022,0.089 c 0.162,0.666 0.324,1.333 0.477,2 0.223,0.951 0.422,1.907 0.642,2.969 q 0.208,1.008 0.426,2.015 c 0.352,1.6 0.734,3.225 1.1,4.8 l 0.042,0.183 0.025,0.1 c 0.161,0.682 0.328,1.362 0.494,2.039 l 0.061,0.246 0.05,0.208 c 0.127,0.507 0.229,1.028 0.329,1.531 l 0.009,0.041 c 0.054,0.283 0.111,0.567 0.17,0.847 0.132,0.623 0.268,1.243 0.405,1.864 l 0.028,0.125 0.039,0.18 c 0.217,0.988 0.441,2.008 0.643,3.017 0.135,0.687 0.276,1.373 0.417,2.06 l 0.081,0.388 c 0.191,0.926 0.381,1.854 0.564,2.783 0.142,0.726 0.3,1.463 0.456,2.176 l 0.025,0.106 c 0.185,0.851 0.394,1.815 0.569,2.743 0.339,1.818 0.678,3.6 1.074,5.343 0.184,0.8 0.38,1.591 0.58,2.4 0.185,0.742 0.415,1.665 0.615,2.543 0.421,1.882 0.814,3.878 1.128,5.481 l 0.007,0.045 c 0.306,1.55 0.622,3.154 0.964,4.721 0.47,2.159 0.934,4.153 1.42,6.1 0.074,0.292 0.14,0.586 0.208,0.879 l 0.033,0.144 c 0.133,0.594 0.272,1.206 0.45,1.8 0.1,0.344 0.2,0.69 0.293,1.038 l 0.077,0.282 0.091,0.325 0.06,0.231 z"
       id="path2"
       style="fill:#ffffff;fill-opacity:1" />
    <path
       d="m 59.415,46.155 0.192,-0.047 c 0.142,-0.037 0.283,-0.071 0.424,-0.107 0.706,-0.182 1.392,-0.34 2.2,-0.524 0.714,-0.159 1.43,-0.307 2.162,-0.455 0.775,-0.158 1.574,-0.321 2.357,-0.5 0.783,-0.179 1.529,-0.378 2.239,-0.567 0.431,-0.118 0.891,-0.215 1.259,-0.294 0.315,-0.065 0.63,-0.132 0.942,-0.207 l 0.86,-0.207 0.255,-0.061 q 0.5,-0.12 1.007,-0.243 c 0.738,-0.182 1.5,-0.344 2.267,-0.484 0.738,-0.132 1.485,-0.284 2.207,-0.43 0.5,-0.1 1,-0.2 1.508,-0.3 a 2.692,2.692 0 0 0 -0.491,-5.339 2.675,2.675 0 0 0 -0.484,0.045 c -0.6,0.114 -1.2,0.238 -1.8,0.363 l -0.178,0.036 -0.172,0.038 c -0.344,0.072 -0.689,0.133 -1.035,0.2 -0.364,0.064 -0.73,0.13 -1.09,0.206 l -0.088,0.018 c -0.713,0.154 -1.451,0.313 -2.17,0.5 -0.764,0.2 -1.567,0.371 -2.255,0.508 -0.835,0.163 -1.694,0.387 -2.453,0.584 l -0.069,0.017 c -0.644,0.169 -1.312,0.342 -1.973,0.485 -0.544,0.116 -1.089,0.225 -1.636,0.335 l -0.077,0.015 c -0.9,0.181 -1.84,0.37 -2.75,0.595 l -0.19,0.047 c -0.733,0.182 -1.467,0.365 -2.2,0.535 -0.771,0.179 -1.529,0.431 -2.261,0.673 l -0.1,0.034 c -2.039,0.62 -4.1,1.1 -5.667,1.446 a 2.7,2.7 0 0 0 0.461,5.352 2.285,2.285 0 0 0 0.51,-0.057 72.607,72.607 0 0 0 7.014,-1.877 c 0.427,-0.126 0.86,-0.233 1.275,-0.333 z"
       id="path4"
       style="fill:#ffffff;fill-opacity:1" />
    <path
       d="m 85.632,88.912 a 2.58,2.58 0 0 0 -0.484,0.045 l -0.351,0.065 c -0.613,0.116 -1.247,0.235 -1.862,0.4 -0.855,0.236 -1.638,0.438 -2.394,0.618 -0.626,0.15 -1.268,0.283 -1.889,0.413 l -0.059,0.011 -0.69,0.143 c -0.566,0.121 -1.128,0.252 -1.69,0.384 L 76.176,91 l -0.3,0.069 -0.673,0.154 c -0.743,0.168 -1.5,0.322 -2.236,0.471 l -0.178,0.037 -0.06,0.011 c -0.823,0.166 -1.673,0.338 -2.5,0.527 -1.553,0.358 -3.235,0.77 -5.142,1.264 -1.509,0.394 -2.768,0.717 -4.073,1 l -0.663,0.146 q -0.532,0.112 -1.064,0.232 l -0.534,0.116 -0.535,0.119 a 16.379,16.379 0 0 0 -2.841,0.968 2.516,2.516 0 0 0 -1.349,1.451 2.763,2.763 0 0 0 0.072,2.135 2.667,2.667 0 0 0 2.439,1.519 2.9,2.9 0 0 0 1.147,-0.236 c 0.322,-0.138 0.644,-0.273 0.969,-0.4 0.682,-0.189 1.385,-0.338 2.064,-0.481 l 0.032,-0.008 c 0.245,-0.051 0.492,-0.1 0.736,-0.157 1,-0.217 1.775,-0.4 2.511,-0.577 q 1.529,-0.384 3.055,-0.78 l 0.516,-0.133 c 0.516,-0.132 1.031,-0.265 1.546,-0.394 1.654,-0.421 3.279,-0.755 5.232,-1.149 0.982,-0.195 1.986,-0.424 2.872,-0.628 0.763,-0.173 1.527,-0.347 2.293,-0.509 1.1,-0.23 2.283,-0.488 3.48,-0.8 0.185,-0.048 0.369,-0.1 0.554,-0.151 0.312,-0.086 0.624,-0.172 0.935,-0.245 0.393,-0.092 0.805,-0.168 1.171,-0.236 0.159,-0.027 0.317,-0.057 0.475,-0.088 a 2.692,2.692 0 0 0 -0.492,-5.34 z"
       id="path6"
       style="fill:#ffffff;fill-opacity:1" />
  </g>
</svg>
