<?xml version="1.0" encoding="UTF-8" standalone="no"?>
<svg
   version="1.1"
   x="0px"
   y="0px"
   viewBox="0 0 100 100"
   enable-background="new 0 0 100 100"
   xml:space="preserve"
   id="svg8"
   sodipodi:docname="noun-music-web-icon-854330.svg"
   width="100"
   height="100"
   inkscape:version="1.2.2 (732a01da63, 2022-12-09)"
   xmlns:inkscape="http://www.inkscape.org/namespaces/inkscape"
   xmlns:sodipodi="http://sodipodi.sourceforge.net/DTD/sodipodi-0.dtd"
   xmlns="http://www.w3.org/2000/svg"
   xmlns:svg="http://www.w3.org/2000/svg"><defs
     id="defs12" /><sodipodi:namedview
     id="namedview10"
     pagecolor="#ffffff"
     bordercolor="#000000"
     borderopacity="0.25"
     inkscape:showpageshadow="2"
     inkscape:pageopacity="0.0"
     inkscape:pagecheckerboard="0"
     inkscape:deskcolor="#d1d1d1"
     showgrid="false"
     inkscape:zoom="6.632"
     inkscape:cx="24.351628"
     inkscape:cy="50.66345"
     inkscape:window-width="1920"
     inkscape:window-height="1009"
     inkscape:window-x="-8"
     inkscape:window-y="-8"
     inkscape:window-maximized="1"
     inkscape:current-layer="svg8" /><path
     fill="#000000"
     d="M 79.684247,37.529352 C 79.818208,27.669849 81.446148,17.958341 78.928964,8.2557639 78.636803,7.1343221 77.548532,7.3971401 76.808559,7.8883291 62.682729,17.259194 47.822029,25.37083 32.036364,31.592982 c -0.289611,0.113548 -0.552429,0.336815 -0.77442,0.612392 -1.006619,-0.237302 -2.584803,1.196715 -2.278607,2.361534 2.964995,11.251418 3.587593,22.835823 5.153019,34.314335 -12.074318,-4.077506 -22.291049,13.819634 -10.36345,21.489838 4.929752,3.169125 12.279725,3.313293 15.170723,-2.383224 2.415119,-4.75624 0.751455,-11.327966 -1.349813,-16.225822 0.06634,-0.238578 0.103341,-0.477155 0.06762,-0.702974 -1.141855,-7.212186 -1.773383,-14.48561 -2.69835,-21.71183 13.619332,-8.669166 28.57189,-15.061002 41.677067,-24.562001 0.299817,-0.218164 0.511602,-0.482258 0.646839,-0.760386 -0.14034,6.659757 -0.917312,13.348858 -0.492465,20.041787 0.372538,5.844511 2.491668,13.811979 1.958377,20.70521 C 72.919873,58.34811 62.648282,54.884271 55.997456,62.100284 48.983022,69.711799 54.406514,80.95301 63.999371,81.385512 74.694533,81.869046 80.784,72.984266 81.511215,63.356962 82.161881,54.733725 79.566872,46.156417 79.684247,37.529352 Z M 28.692451,88.627041 c -12.855118,-3.534009 -5.974644,-22.615107 5.608485,-15.822665 3.007097,6.541107 5.609761,18.905035 -5.608485,15.822665 z M 75.386025,22.478556 C 62.567906,31.771596 47.911337,38.005231 34.577788,46.471543 34.007499,42.446345 33.29049,38.442836 32.318319,34.476325 47.80672,28.320515 62.357396,20.447457 76.289302,11.343238 c 0.807591,3.743242 1.044893,7.500519 1.021928,11.268003 -0.294713,-0.562635 -0.995136,-0.806316 -1.925205,-0.132685 z m -0.978551,52.466639 c -5.479628,5.040747 -16.757837,4.64652 -18.176544,-3.83255 -2.427877,-14.50092 15.168171,-9.845469 20.539354,-3.22271 0.389124,0.480982 0.931346,0.526911 1.449327,0.336815 -0.632805,2.566941 -1.806555,4.874891 -3.812137,6.718445 z"
     id="path2"
     style="stroke-width:1.27582;fill:#ffffff;fill-opacity:1" /></svg>
