<?xml version="1.0" encoding="UTF-8" standalone="no"?>
<svg
   viewBox="0 0 100 100"
   x="0px"
   y="0px"
   version="1.1"
   id="svg11359"
   sodipodi:docname="noun-calculator-4746707.svg"
   width="100"
   height="100"
   inkscape:version="1.2.2 (732a01da63, 2022-12-09)"
   xmlns:inkscape="http://www.inkscape.org/namespaces/inkscape"
   xmlns:sodipodi="http://sodipodi.sourceforge.net/DTD/sodipodi-0.dtd"
   xmlns="http://www.w3.org/2000/svg"
   xmlns:svg="http://www.w3.org/2000/svg"
   xmlns:rdf="http://www.w3.org/1999/02/22-rdf-syntax-ns#"
   xmlns:cc="http://creativecommons.org/ns#"
   xmlns:dc="http://purl.org/dc/elements/1.1/">
  <defs
     id="defs11363" />
  <sodipodi:namedview
     id="namedview11361"
     pagecolor="#ffffff"
     bordercolor="#000000"
     borderopacity="0.25"
     inkscape:showpageshadow="2"
     inkscape:pageopacity="0.0"
     inkscape:pagecheckerboard="0"
     inkscape:deskcolor="#d1d1d1"
     showgrid="false"
     inkscape:zoom="6.632"
     inkscape:cx="36.565139"
     inkscape:cy="50.512666"
     inkscape:window-width="1920"
     inkscape:window-height="1009"
     inkscape:window-x="-8"
     inkscape:window-y="-8"
     inkscape:window-maximized="1"
     inkscape:current-layer="svg11359" />
  <title
     id="title11351">50 icon officee</title>
  <path
     d="m 15.884708,80.307672 c 0,-10.087357 -0.100467,-20.177106 0.02751,-30.259679 0.141131,-11.161397 0.504725,-22.320401 0.740344,-33.481797 a 3.9050535,3.9050535 0 0 1 2.064356,-3.745981 c 4.028245,-2.326288 8.094763,-3.9361503 12.948272,-3.7423926 5.794789,0.2308347 11.565656,0.1196034 17.307819,1.3395586 2.561907,0.543 5.329531,0.175817 8.001473,0.127976 5.636912,-0.101663 11.276215,-0.431769 16.908343,-0.326518 a 27.880766,27.880766 0 0 1 7.363986,1.522553 2.9111486,2.9111486 0 0 1 1.545277,2.199507 c 0.147112,5.243417 0.136348,10.492813 0.09449,15.739818 -0.061,7.415415 -0.425789,14.830831 -0.226051,22.230698 0.179405,6.637993 1.087196,13.253261 1.410125,19.89245 0.255952,5.28169 0.05621,10.583712 -2.70543,15.365459 -1.686409,2.918324 -2.981715,3.332152 -6.251674,2.846562 -1.941165,-0.288244 -3.974424,0.08611 -5.932333,-0.139936 -12.260552,-1.412517 -24.399109,1.123077 -36.61182,1.060883 -1.447202,-0.0072 -2.896796,-0.145916 -4.34041,-0.28346 -2.864503,-0.2715 -5.723026,-0.620742 -8.588725,-0.870713 -2.723371,-0.239207 -3.348898,-0.804932 -3.429032,-3.50797 -0.05382,-1.985418 -0.01076,-3.973228 -0.01076,-5.959842 z m 4.095223,5.817513 c 1.852657,0 3.405111,-0.349242 4.720749,0.061 5.364216,1.674449 10.787037,0.846793 16.177566,0.598017 7.02192,-0.327713 14.024704,-1.076431 21.050212,-1.341951 4.186121,-0.160268 8.380615,0.273892 12.572717,0.382732 3.509166,0.09209 4.098811,0.03708 4.587989,-3.433816 a 92.21428,92.21428 0 0 0 0.723601,-14.562919 c -0.1507,-8.08998 -0.82646,-16.17039 -0.979552,-24.259173 -0.166249,-8.703545 0.03827,-17.413071 0,-26.120204 0,-0.814499 -0.332498,-2.084688 -0.887458,-2.347816 a 10.015595,10.015595 0 0 0 -4.192102,-0.98314 c -5.561561,0.02153 -11.132691,0.498746 -16.682292,0.3014 -8.744211,-0.310969 -17.462108,-1.175702 -26.212298,-1.484279 -2.482968,-0.08851 -5.023346,0.868321 -7.506314,1.468731 -2.258114,0.544196 -3.168296,2.14449 -3.174277,4.418152 q -0.08133,27.52674 -0.199737,55.052284 c -0.01435,4.027049 0.0012,8.05649 0.0012,12.250984 z M 44.935196,17.753858 c 3.390758,0.382731 6.937001,0.796559 10.483245,1.182879 3.938542,0.429376 7.869908,0.996297 11.820411,1.206799 4.625066,0.247579 7.352026,2.567886 7.508706,7.158268 a 85.97337,85.97337 0 0 1 -0.21409,10.069416 c -0.35881,4.287785 -2.471008,6.132071 -6.770753,6.016055 -8.086391,-0.217678 -16.166802,-0.645859 -24.253193,-0.837224 -5.012581,-0.119604 -10.034731,-0.02273 -15.048509,0.119603 -2.107413,0.0598 -3.296272,-0.827656 -3.403915,-2.807093 -0.252363,-4.645399 -0.460473,-9.300366 -0.443729,-13.95055 0.01196,-3.259194 1.136233,-5.673989 5.590267,-6.108149 4.843941,-0.470042 9.649608,-1.325207 14.73156,-2.050004 z m 0.26552,3.63475 c -4.769787,0.666191 -9.361364,1.420889 -13.980451,1.899303 a 2.6528051,2.6528051 0 0 0 -2.75088,3.09773 c 0.03588,3.285508 0.260736,6.578191 0.143525,9.854131 -0.08253,2.313131 0.980748,2.57865 2.917128,2.535593 4.641811,-0.102859 9.290798,-0.05502 13.933805,0.04784 7.56492,0.169837 15.126252,0.423396 22.68878,0.661407 a 2.06316,2.06316 0 0 0 2.414794,-2.139706 c 0.161464,-3.124043 0.35881,-6.256458 0.288244,-9.379305 -0.07057,-2.990087 -0.999885,-3.653886 -3.938542,-3.8608 C 63.263232,23.847655 59.610542,23.506785 55.976989,23.0499 52.364964,22.584643 48.774467,21.941176 45.200716,21.388608 Z M 62.54322,71.120929 c 0,-7.017136 0.01435,-14.034272 -0.006,-21.050212 -0.0084,-2.856131 2.33466,-2.816661 4.04499,-2.968558 a 46.910875,46.910875 0 0 1 7.535019,0.248775 2.3813052,2.3813052 0 0 1 2.302367,2.846563 c -0.478395,8.912851 -0.983122,17.820918 -1.459144,26.734965 a 3.6036527,3.6036527 0 0 1 -3.259194,3.766314 c -1.949537,0.35881 -3.866781,0.887457 -5.821101,1.196034 -2.299975,0.368379 -3.151552,-0.263127 -3.348898,-2.545162 -0.230834,-2.735331 -0.28944,-5.485015 -0.4222,-8.228719 z m 3.631161,-20.156774 v 26.595029 c 4.651379,-0.05502 4.988661,-0.411436 5.114245,-4.492306 0.131564,-4.268648 0.35881,-8.533708 0.556156,-12.797572 0.139936,-2.942246 0.314557,-5.883295 0.478414,-8.970261 z M 44.175714,73.672071 c 0,-1.223543 0.02631,-2.448283 0,-3.67063 -0.07176,-2.787957 0.653035,-3.840468 3.406307,-4.094027 2.801113,-0.258344 5.632127,-0.215287 8.449985,-0.270304 a 3.0797895,3.0797895 0 0 1 3.503186,3.36923 56.199281,56.199281 0 0 1 -1.136233,9.978518 c -0.495158,2.235389 -2.951814,2.56071 -4.863077,2.81427 a 43.276126,43.276126 0 0 1 -6.868828,0.09927 2.339444,2.339444 0 0 1 -2.451871,-2.502104 c -0.05861,-1.907676 -0.01435,-3.818939 -0.01435,-5.727811 z m 3.73402,4.45523 c 1.739035,0 3.407503,0.09927 5.053247,-0.04904 0.653035,-0.05861 1.707938,-0.574096 1.807209,-1.045334 0.508314,-2.400442 0.764266,-4.854705 1.169722,-7.726385 l -8.223935,0.424593 c 0,2.573867 -0.0096,4.773375 0.0084,6.974078 a 12.033306,12.033306 0 0 0 0.185385,1.422086 z M 43.502346,56.214748 a 55.799806,55.799806 0 0 1 0.764266,-6.11413 2.8477588,2.8477588 0 0 1 1.833522,-1.880166 c 3.623985,-0.294225 7.268303,-0.325322 10.906641,-0.422201 1.779699,-0.04664 2.644433,0.80852 2.662373,2.642041 0.02512,2.668354 0.184189,5.335511 0.251167,8.003865 0.05382,2.158843 -1.027394,3.645514 -3.140787,3.80339 -3.551027,0.264324 -7.127171,0.315754 -10.688963,0.239207 -1.579961,-0.0311 -2.384893,-1.196034 -2.354992,-2.828622 0.02033,-1.144605 0,-2.28921 0,-3.433816 z m 7.627114,2.975734 c 6.423903,-0.173425 5.058031,-0.07415 5.142949,-5.630931 0,-0.151897 0.03588,-0.358811 -0.04545,-0.446121 -0.493962,-0.529844 -0.937691,-1.292914 -1.554845,-1.479495 a 6.5937396,6.5937396 0 0 0 -2.710215,-0.04425 c -4.471974,0.598017 -4.544932,0.801343 -4.635831,5.308002 -0.03469,1.718702 0.589645,2.363365 2.203096,2.296387 0.533432,-0.02273 1.066863,-0.0036 1.600295,-0.0036 z M 25.421889,74.64684 a 40.640065,40.640065 0 0 1 0.08851,-5.876119 2.9123446,2.9123446 0 0 1 1.85505,-2.000966 c 3.162316,-0.381535 6.366493,-0.386319 9.547946,-0.626722 3.615613,-0.273892 4.582009,0.691308 4.174161,4.299744 -0.28346,2.502105 -0.577685,5.005406 -0.760678,7.514687 -0.163857,2.243761 -1.16733,3.65269 -3.500794,3.683787 -3.047496,0.04066 -6.099777,-0.02871 -9.143686,-0.119604 -1.835913,-0.05502 -2.511673,-1.223543 -2.447087,-2.918324 0.05143,-1.450791 0.136348,-2.897993 0.186582,-3.956483 z m 3.478069,-3.933759 c 0,2.158843 -0.04067,4.055754 0.0299,5.947881 0.01674,0.436553 0.397083,1.217564 0.639878,1.229524 2.04522,0.101663 4.100007,0.08611 6.148815,0.02751 a 1.0608828,1.0608828 0 0 0 0.717621,-0.728385 c 0.267912,-2.291603 0.461669,-4.592774 0.68174,-6.937002 -1.612255,0.07176 -2.82623,0.119603 -4.03901,0.182993 -1.283345,0.07655 -2.561906,0.171033 -4.178945,0.27748 z M 40.084079,53.881284 a 54.431542,54.431542 0 0 1 -0.765462,6.338984 c -0.193758,0.844401 -1.229524,2.06316 -1.960301,2.12057 -3.551028,0.276284 -7.13076,0.301401 -10.696139,0.239207 -1.541689,-0.0287 -2.218645,-1.149389 -2.152863,-2.691078 0.148309,-3.348898 0.249972,-6.708559 0.429377,-10.061045 0.108839,-2.045219 1.013041,-2.511673 2.997263,-2.303563 2.016514,0.218875 4.079674,-0.0299 6.117718,0.03229 6.085424,0.187778 6.098581,0.222463 6.030407,6.324632 z m -3.988776,-2.286818 c -0.946064,-0.04425 -1.693585,-0.105251 -2.439911,-0.111231 -5.162086,-0.04425 -5.163282,-0.04067 -5.225476,5.104676 -0.0096,0.749914 0,1.499827 0,2.42197 0.964004,0.06817 1.863422,0.18419 2.764037,0.187778 4.592773,0.01914 4.809255,-0.20213 4.903742,-4.806864 0.01316,-0.83842 -0.0024,-1.676841 -0.0024,-2.796329 z"
     id="path11353"
     style="stroke-width:1.19603;fill:#ffffff;fill-opacity:1" />
  <metadata
     id="metadata11482">
    <rdf:RDF>
      <cc:Work
         rdf:about="">
        <dc:title>50 icon officee</dc:title>
      </cc:Work>
    </rdf:RDF>
  </metadata>
</svg>
