<?xml version="1.0" encoding="UTF-8" standalone="no"?>
<svg
   viewBox="0 0 100 100"
   version="1.1"
   x="0px"
   y="0px"
   id="svg34"
   sodipodi:docname="noun-broccoli-tree-1504658.svg"
   width="100"
   height="100"
   inkscape:version="1.2.2 (732a01da63, 2022-12-09)"
   xmlns:inkscape="http://www.inkscape.org/namespaces/inkscape"
   xmlns:sodipodi="http://sodipodi.sourceforge.net/DTD/sodipodi-0.dtd"
   xmlns="http://www.w3.org/2000/svg"
   xmlns:svg="http://www.w3.org/2000/svg"
   xmlns:rdf="http://www.w3.org/1999/02/22-rdf-syntax-ns#"
   xmlns:cc="http://creativecommons.org/ns#"
   xmlns:dc="http://purl.org/dc/elements/1.1/">
  <defs
     id="defs38" />
  <sodipodi:namedview
     id="namedview36"
     pagecolor="#ffffff"
     bordercolor="#000000"
     borderopacity="0.25"
     inkscape:showpageshadow="2"
     inkscape:pageopacity="0.0"
     inkscape:pagecheckerboard="0"
     inkscape:deskcolor="#d1d1d1"
     showgrid="false"
     inkscape:zoom="6.632"
     inkscape:cx="19.828106"
     inkscape:cy="50.66345"
     inkscape:window-width="1920"
     inkscape:window-height="1009"
     inkscape:window-x="-8"
     inkscape:window-y="-8"
     inkscape:window-maximized="1"
     inkscape:current-layer="g28" />
  <title
     id="title2">Broccoli tree</title>
  <desc
     id="desc4">Created with Sketch.</desc>
  <g
     stroke="none"
     stroke-width="1"
     fill="none"
     fill-rule="evenodd"
     id="g28">
    <g
       id="g339"
       style="fill:#ffffff;fill-opacity:1">
      <path
         d="m 69.383443,8.9397288 c 0.400029,-0.8515767 1.420059,-1.2201477 2.278302,-0.8232264 l 0.375637,0.1737279 c 0.400282,0.1843419 0.780713,0.4322369 1.145936,0.7415214 0.323116,0.2750028 0.599955,0.5518492 0.833251,0.8388984 0.212544,0.2629139 0.415003,0.5564119 0.60652,0.8762019 0.177152,0.293762 0.351767,0.609319 0.523141,0.944719 0.156727,0.305656 0.316088,0.619223 0.477062,0.938673 0.148491,0.293693 0.306144,0.58835 0.472985,0.883966 0.159009,0.28174 0.330703,0.561281 0.511433,0.833068 0.195387,0.291301 0.383095,0.55956 0.56288,0.804599 0.193472,0.263695 0.389084,0.529517 0.586834,0.797465 0.1446,0.195931 0.283556,0.388243 0.418413,0.579202 0.2141,-0.232872 0.454993,-0.448329 0.721082,-0.64662 0.381613,-0.284379 0.762553,-0.501571 1.156346,-0.646216 0.44419,-0.162377 0.926934,-0.227954 1.452571,-0.2138 0.441026,0.01335 0.843453,0.06591 1.218993,0.166918 0.312617,0.08552 0.621702,0.196127 0.932995,0.333903 0.285264,0.127571 0.576838,0.278402 0.870851,0.449426 0.282335,0.163014 0.565536,0.340141 0.846914,0.529428 0.286932,0.192204 0.56961,0.396573 0.848022,0.613028 0.306336,0.238166 0.603923,0.503524 0.890383,0.792863 0.299246,0.300898 0.577813,0.626777 0.836232,0.977865 0.251803,0.342574 0.481164,0.702587 0.690084,1.083508 0.205574,0.377166 0.389118,0.775152 0.550904,1.193539 0.172784,0.446829 0.297268,0.873905 0.371907,1.290177 0.06952,0.395596 0.104001,0.801237 0.104001,1.215963 0,0.377347 -0.01969,0.751687 -0.05912,1.122782 -0.04256,0.400531 -0.117231,0.798159 -0.223661,1.192138 -0.102319,0.378766 -0.228425,0.748931 -0.377023,1.107185 -0.150066,0.363687 -0.331343,0.728621 -0.542232,1.093531 -0.195653,0.339437 -0.402435,0.668671 -0.620336,0.98761 -0.220147,0.322224 -0.454671,0.636313 -0.706041,0.945339 -0.235419,0.28802 -0.488952,0.584707 -0.760928,0.890552 -0.281509,0.316411 -0.568357,0.619038 -0.860573,0.90782 -0.288509,0.285118 -0.580999,0.558637 -0.874986,0.818306 -0.298283,0.264506 -0.611902,0.52518 -0.935549,0.777971 -0.326705,0.257256 -0.659429,0.503707 -0.99815,0.739317 -0.324728,0.225876 -0.65176,0.446264 -0.98109,0.661159 -0.326576,0.213097 -0.663246,0.427024 -1.011279,0.64258 -0.338946,0.209524 -0.673668,0.414279 -1.007675,0.616381 -0.331846,0.19972 -0.653134,0.390455 -0.962322,0.571297 -0.326212,0.191264 -0.657448,0.376243 -0.989719,0.552816 -0.302487,0.16177 -0.590952,0.320614 -0.862959,0.475124 -0.282248,0.160927 -0.561821,0.32183 -0.838718,0.482708 -0.270873,0.157378 -0.535314,0.314606 -0.790718,0.470088 -0.255645,0.156255 -0.501058,0.310155 -0.736213,0.461667 -0.249142,0.160524 -0.491378,0.315764 -0.731415,0.468708 -0.20213,0.127881 -0.397817,0.260539 -0.583894,0.395629 -0.174583,0.127373 -0.332707,0.254225 -0.474478,0.380173 -0.136131,0.120939 -0.26023,0.244074 -0.368743,0.365003 -0.0728,0.0817 -0.166681,0.215271 -0.274944,0.400749 -0.04292,0.07324 -0.06756,0.146342 -0.0788,0.238541 -0.02529,0.202059 -0.02992,0.39229 -0.0146,0.578152 0.0087,0.11075 0.03803,0.226572 0.0924,0.353224 0.05172,0.120478 0.127759,0.237961 0.231929,0.353886 0.194372,0.215393 0.358597,0.383529 0.483915,0.497968 0.21892,0.198676 0.429921,0.41133 0.629739,0.634067 0.241125,0.267218 0.455897,0.560331 0.642294,0.874603 0.198192,0.332551 0.360389,0.69698 0.486497,1.084201 0.139439,0.421501 0.221597,0.868297 0.249235,1.337539 0.02162,0.367031 0.02999,0.743569 0.02523,1.129639 -0.005,0.405795 -0.03284,0.826335 -0.08311,1.261829 -0.05084,0.440448 -0.12884,0.893249 -0.234318,1.361769 -0.105816,0.465836 -0.233354,0.91874 -0.382719,1.358496 -0.146688,0.431876 -0.322189,0.879321 -0.526924,1.344321 -0.203363,0.46072 -0.415765,0.894552 -0.637558,1.301564 -0.215543,0.395542 -0.43709,0.774036 -0.664754,1.13547 -0.228597,0.362914 -0.458718,0.703072 -0.694911,1.026341 -0.251097,0.340671 -0.51787,0.659718 -0.803038,0.959539 -0.265369,0.277735 -0.527015,0.531268 -0.792038,0.76639 -0.265799,0.233449 -0.536674,0.448848 -0.81272,0.645955 -0.258971,0.184914 -0.513923,0.354974 -0.765108,0.510135 -0.257013,0.15876 -0.515416,0.304554 -0.784184,0.441783 -0.265109,0.13345 -0.531222,0.252884 -0.798332,0.358119 -0.306206,0.120637 -0.620575,0.21541 -0.942176,0.284002 -0.368578,0.07861 -0.774008,0.110208 -1.21899,0.103032 -0.379038,-0.0049 -0.709836,-0.02186 -0.997368,-0.05253 -0.317806,-0.03389 -0.678681,-0.103368 -1.093895,-0.207005 -0.426319,-0.106409 -0.796826,-0.225065 -1.111517,-0.359317 -0.297478,-0.125515 -0.585511,-0.269793 -0.869123,-0.435839 -0.29044,-0.171469 -0.568966,-0.366928 -0.835222,-0.585664 -0.279578,-0.22968 -0.537869,-0.485223 -0.767968,-0.758091 -0.213377,-0.250094 -0.415232,-0.516705 -0.602652,-0.795027 -0.171223,-0.252512 -0.336038,-0.508581 -0.489727,-0.760526 -0.136589,-0.221231 -0.282776,-0.450311 -0.436719,-0.684398 -0.125015,-0.189287 -0.250702,-0.356353 -0.37631,-0.501504 -0.105468,-0.121877 -0.208815,-0.221415 -0.305537,-0.297332 -0.09813,-0.07658 -0.196647,-0.138596 -0.287044,-0.183018 -0.0054,-0.0026 -0.08939,-0.0232 -0.23905,-0.03811 -0.269283,-0.02605 -0.484636,-0.03513 -0.631065,-0.02994 -0.167389,0.0067 -0.338318,0.02411 -0.513083,0.05237 -0.176494,0.02854 -0.359634,0.06936 -0.551287,0.123348 -0.172127,0.04828 -0.33781,0.108096 -0.500354,0.180742 -0.172214,0.07663 -0.338309,0.163426 -0.501798,0.262469 -0.167566,0.101031 -0.343778,0.221825 -0.524085,0.35969 -0.198679,0.152825 -0.388573,0.310592 -0.569778,0.473308 -0.183602,0.16487 -0.358382,0.333299 -0.524419,0.505288 -0.184564,0.19118 -0.371518,0.389788 -0.560839,0.595818 -0.189259,0.205961 -0.373787,0.411754 -0.556727,0.620953 -0.285253,0.324528 -0.285253,0.324528 -0.57373,0.653316 -0.197689,0.225415 -0.402814,0.456553 -0.620888,0.699535 -0.225218,0.248552 -0.445793,0.48231 -0.661888,0.701339 -0.235225,0.238416 -0.470842,0.456957 -0.707354,0.655528 -0.222017,0.186401 -0.445094,0.362138 -0.664434,0.523559 -0.27389,0.203076 -0.589013,0.394896 -0.947241,0.580053 -0.335973,0.173653 -0.680904,0.328934 -1.029541,0.4638 -0.321124,0.125381 -0.609853,0.23099 -0.861014,0.314821 -0.268528,0.09089 -0.534815,0.170405 -0.79339,0.237005 -0.249021,0.06502 -0.518801,0.12859 -0.809817,0.190961 -0.285608,0.06121 -0.559411,0.11532 -0.814371,0.160997 -0.345388,0.06341 -0.694422,0.09517 -1.045796,0.09517 h -0.735471 c -0.267673,0 -0.541418,-0.0058 -0.820973,-0.01736 -0.27702,-0.01141 -0.544228,-0.02687 -0.801125,-0.04639 -0.289781,-0.02192 -0.621341,-0.06304 -0.99814,-0.122767 -0.42337,-0.06689 -0.835898,-0.165022 -1.236762,-0.29446 -0.417223,-0.134719 -0.814819,-0.305107 -1.1957,-0.513476 -0.328788,-0.181103 -0.656011,-0.382566 -0.979281,-0.602484 -0.324411,-0.219857 -0.630073,-0.446712 -0.913443,-0.677984 -0.310681,-0.252219 -0.604697,-0.528667 -0.87905,-0.825762 -0.312723,-0.337019 -0.58301,-0.705777 -0.812957,-1.110759 -0.200328,-0.356463 -0.358468,-0.686186 -0.474166,-0.996293 -0.09681,-0.259474 -0.185085,-0.525979 -0.267437,-0.808229 -0.06589,-0.230391 -0.132292,-0.458649 -0.199197,-0.684775 -0.03968,-0.134099 -0.08949,-0.287321 -0.149153,-0.458311 -0.361159,0.200061 -0.547944,0.317093 -0.696113,0.422539 -0.177582,0.127051 -0.359369,0.264903 -0.541128,0.410275 -0.190219,0.153111 -0.382637,0.315034 -0.579971,0.488199 -0.202629,0.177049 -0.407137,0.360929 -0.613506,0.551643 -0.231241,0.213698 -0.472609,0.429635 -0.717983,0.642508 -0.262216,0.229708 -0.529938,0.450783 -0.803143,0.66319 -0.288078,0.223971 -0.598847,0.443001 -0.93231,0.657522 -0.340781,0.21923 -0.676361,0.412368 -1.005033,0.577953 -0.328731,0.166238 -0.664227,0.31503 -1.004291,0.445481 -0.346403,0.133381 -0.705623,0.248791 -1.077397,0.3464 -0.353708,0.09287 -0.710015,0.171899 -1.063301,0.236057 -0.379099,0.07013 -0.765293,0.119063 -1.153181,0.146546 -0.37349,0.02758 -0.763019,0.04126 -1.168782,0.04126 -0.370839,0 -0.74644,-0.0022 -1.126863,-0.0065 -0.421811,-0.0048 -0.837022,-0.02705 -1.245532,-0.06686 -0.408825,-0.03984 -0.817251,-0.09773 -1.22515,-0.173621 -0.438396,-0.08156 -0.866374,-0.192594 -1.281767,-0.332576 C 14.204333,61.646145 13.81698,61.484031 13.467782,61.301084 13.13135,61.125461 12.811529,60.929399 12.511868,60.7151 12.220191,60.50745 11.953831,60.294696 11.712533,60.075562 11.460783,59.846818 11.232389,59.60737 11.031176,59.360648 10.851159,59.141203 10.6798,58.913224 10.523131,58.685497 10.329579,58.407927 10.146701,58.085491 9.9708725,57.719365 9.7848118,57.33492 9.6388716,56.952318 9.5359139,56.575319 9.4184556,56.149602 9.3596974,55.712338 9.3596974,55.267584 c 0,-0.326181 0.010084,-0.659317 0.030178,-0.999431 0.02404,-0.406902 0.086584,-0.822006 0.1860818,-1.243952 0.090563,-0.385289 0.1867879,-0.726099 0.2901943,-1.02338 0.098351,-0.284005 0.2095595,-0.567036 0.3360595,-0.85481 0.121783,-0.274299 0.251658,-0.542922 0.389625,-0.80581 0.138044,-0.263034 0.283155,-0.518802 0.428985,-0.756768 0.139219,-0.230986 0.281871,-0.45972 0.426766,-0.684358 0.130511,-0.202912 0.256226,-0.401985 0.375828,-0.595076 0.11682,-0.189226 0.232262,-0.382118 0.343078,-0.573069 0.106227,-0.184686 0.232367,-0.418576 0.375974,-0.697701 0.136615,-0.266432 0.262696,-0.535309 0.378299,-0.806685 0.08803,-0.206658 0.153929,-0.415813 0.198429,-0.628875 0.04338,-0.207683 0.06528,-0.42325 0.06528,-0.648469 0,-0.285184 -0.01386,-0.568747 -0.04163,-0.851396 -0.03054,-0.311838 -0.06096,-0.568143 -0.09064,-0.766953 -0.03492,-0.234995 -0.06982,-0.47733 -0.104813,-0.728007 -0.03475,-0.249997 -0.06948,-0.506827 -0.10419,-0.770498 -0.03594,-0.273029 -0.06904,-0.550215 -0.09922,-0.830857 -0.02647,-0.245172 -0.06286,-0.527558 -0.109067,-0.845511 -0.04799,-0.329196 -0.09752,-0.653043 -0.148589,-0.971538 -0.05168,-0.322321 -0.111402,-0.68574 -0.178554,-1.086584 -0.06903,-0.406758 -0.124699,-0.73133 -0.165665,-0.966158 -0.04483,-0.250636 -0.103844,-0.591743 -0.176447,-1.019783 -0.07718,-0.447259 -0.143385,-0.875933 -0.198586,-1.286171 -0.05932,-0.440824 -0.0976,-0.875591 -0.114688,-1.304221 -0.01582,-0.39701 -0.02377,-0.774425 -0.02377,-1.132452 0,-0.360023 0.008,-0.729222 0.02392,-1.107429 0.01645,-0.391847 0.04315,-0.759776 0.08033,-1.10368 0.03685,-0.342022 0.08692,-0.699774 0.150814,-1.077757 0.06643,-0.387085 0.144437,-0.754747 0.232648,-1.096399 0.08778,-0.345955 0.190484,-0.692695 0.305781,-1.033494 0.111484,-0.334161 0.228036,-0.656814 0.349734,-0.967985 0.124554,-0.318472 0.266857,-0.649111 0.428874,-0.996617 0.16536,-0.352105 0.334435,-0.67915 0.509299,-0.984019 0.18413,-0.319725 0.381087,-0.618807 0.585779,-0.88957 0.20566,-0.275154 0.415107,-0.524673 0.625985,-0.744771 0.20434,-0.214602 0.418374,-0.41774 0.637567,-0.605442 0.256703,-0.221355 0.564812,-0.439525 0.927229,-0.661631 0.343496,-0.210989 0.651582,-0.380962 0.931057,-0.511295 0.265886,-0.123996 0.541966,-0.23606 0.82805,-0.336323 0.265262,-0.09297 0.533502,-0.178064 0.79587,-0.252752 0.263011,-0.07641 0.526783,-0.146399 0.789582,-0.209541 0.270331,-0.06524 0.565673,-0.12694 0.886806,-0.185513 0.256544,-0.04679 0.503233,-0.09938 0.747742,-0.159533 0.143031,-0.278141 0.145668,-0.423215 0.134268,-0.545231 -0.02192,-0.224089 -0.05296,-0.475805 -0.09392,-0.759389 -0.05178,-0.366055 -0.0812,-0.699169 -0.08669,-0.995382 -0.0057,-0.243482 -0.0085,-0.50134 -0.0085,-0.773717 0,-0.311424 0.01466,-0.627044 0.04325,-0.940151 0.0336,-0.384919 0.110159,-0.776539 0.229167,-1.18032 0.121066,-0.405793 0.288552,-0.806508 0.504029,-1.208253 0.195086,-0.360042 0.433454,-0.736716 0.716527,-1.134618 0.262498,-0.367841 0.484365,-0.663696 0.669655,-0.891671 0.181323,-0.223384 0.36436,-0.435369 0.549239,-0.635934 0.17314,-0.18783 0.355851,-0.379383 0.551658,-0.5782849 0.193033,-0.194954 0.397709,-0.3946362 0.614074,-0.5991521 0.222281,-0.2101065 0.439025,-0.4058821 0.646856,-0.5842859 0.207402,-0.1790494 0.42951,-0.3625097 0.659276,-0.5448637 0.251767,-0.2020534 0.507505,-0.391906 0.76405,-0.5672866 0.242111,-0.1663133 0.499423,-0.3349923 0.77365,-0.5072043 0.27158,-0.1701319 0.532153,-0.3264105 0.781983,-0.468889 C 29.168899,6.4054724 29.437177,6.2618214 29.716704,6.1208347 29.993923,5.9804484 30.268853,5.8477683 30.549459,5.7191971 30.819987,5.596876 31.087608,5.481127 31.3582,5.3695592 31.626437,5.2601019 31.916325,5.148814 32.226266,5.0361655 c 0.307323,-0.1121086 0.608029,-0.2166227 0.907836,-0.3153884 0.307202,-0.1000363 0.628908,-0.1947459 0.96377,-0.2838884 0.319896,-0.085457 0.675246,-0.1752572 1.066474,-0.2695632 0.39326,-0.094796 0.736449,-0.1731217 1.024646,-0.2338345 0.303032,-0.065012 0.647227,-0.1300091 1.028993,-0.194621 0.385116,-0.06631 0.768783,-0.1247906 1.146039,-0.1747676 0.377437,-0.051119 0.775741,-0.098722 1.194574,-0.142815 0.415919,-0.043903 0.810838,-0.080777 1.184903,-0.1106021 0.398174,-0.031748 0.817098,-0.050403 1.261652,-0.056247 0.409796,-0.0043 0.814289,-0.00645 1.213484,-0.00645 h 1.171307 c 0.394788,0 0.803881,0.00215 1.231742,0.0065 0.428703,0.00545 0.852665,0.015275 1.267536,0.029326 0.426739,0.013371 0.828395,0.032962 1.205239,0.058866 0.370233,0.02545 0.792537,0.060551 1.271597,0.1056687 0.473091,0.045638 0.895357,0.090373 1.267961,0.1343863 0.373485,0.044249 0.764145,0.096079 1.172087,0.1554756 0.406568,0.059196 0.803645,0.1217519 1.191247,0.1876819 0.388758,0.066127 0.786878,0.1393003 1.194392,0.2195108 0.394286,0.077607 0.757098,0.1493929 1.093688,0.2164127 0.345375,0.069869 0.702666,0.1472988 1.073054,0.2325351 0.365896,0.084457 0.734367,0.1738034 1.10077,0.2668636 0.360508,0.090492 0.693826,0.1746386 0.998591,0.2520954 0.3352,0.084894 0.672611,0.1800507 1.017352,0.2870276 0.301327,0.094525 0.592864,0.1832558 0.876221,0.2666767 0.311121,0.09193 0.606047,0.1849118 0.878883,0.2770356 0.268323,0.089483 0.543379,0.1843153 0.828793,0.2857804 0.274274,0.098185 0.530974,0.1905627 0.767798,0.2763024 0.249599,0.089957 0.498609,0.1826801 0.738354,0.2748597 0.243196,0.091978 0.48585,0.1850395 0.725528,0.27824 0.24312,0.094113 0.560129,0.2186432 0.94653,0.371802 0.38625,0.1516153 0.757495,0.2963288 1.115334,0.4347609 0.365674,0.1418841 0.696364,0.2728071 0.994416,0.393742 0.314851,0.128226 0.598964,0.2523359 0.853297,0.373081 0.251493,0.1193971 0.504897,0.248384 0.763232,0.3885304 0.09552,0.052059 0.206464,0.094941 0.337714,0.1281738 0.02242,-0.070641 0.04976,-0.1406407 0.08214,-0.2095884 z m 0.666293,3.6631652 c -0.634745,0 -1.151465,-0.0452 -1.582202,-0.153313 -0.410514,-0.102633 -0.796629,-0.251121 -1.151852,-0.444732 -0.201832,-0.10949 -0.400287,-0.210507 -0.595311,-0.303096 -0.192185,-0.09124 -0.417614,-0.189715 -0.673258,-0.29383 -0.278725,-0.113091 -0.593241,-0.23761 -0.941665,-0.372802 -0.361619,-0.139894 -0.73813,-0.28666 -1.134837,-0.44239 C 63.586772,10.440598 63.277802,10.319225 63.04206,10.227966 62.809881,10.137684 62.577176,10.048438 62.335269,9.9569206 62.109398,9.8701008 61.883049,9.7858161 61.653892,9.7032244 61.418753,9.6180968 61.16591,9.527107 60.898986,9.4315483 60.638147,9.3388242 60.384433,9.2513495 60.131824,9.1670948 59.895824,9.0874198 59.642752,9.0076333 59.374406,8.9283415 59.072866,8.8395685 58.761925,8.7449319 58.446661,8.6460262 58.164581,8.5585008 57.885628,8.47983 57.608407,8.4096199 57.305681,8.3326818 56.975633,8.2493603 56.61365,8.1584918 56.266852,8.0704173 55.922818,7.986996 55.582661,7.90848 55.242637,7.8302317 54.915198,7.7592715 54.605635,7.6966386 54.276839,7.6311789 53.916464,7.559875 53.524537,7.4827325 53.145839,7.4081938 52.776974,7.3403972 52.417976,7.2793327 52.057822,7.2180715 51.687914,7.1597958 51.30827,7.1045198 50.93,7.0494439 50.569699,7.0016412 50.228071,6.9611666 c -0.345839,-0.040852 -0.743969,-0.08303 -1.189908,-0.126053 -0.447799,-0.042169 -0.841618,-0.074903 -1.180685,-0.09821 -0.332457,-0.022853 -0.691375,-0.040359 -1.080837,-0.052568 -0.394764,-0.013365 -0.794402,-0.022623 -1.194473,-0.027718 -0.41193,-0.00418 -0.809345,-0.00627 -1.192224,-0.00627 h -1.171307 c -0.387017,0 -0.779419,0.00209 -1.172605,0.00621 -0.365481,0.00481 -0.7082,0.020072 -1.027872,0.04556 -0.343781,0.027411 -0.709437,0.061552 -1.097298,0.1024933 -0.386131,0.040651 -0.750539,0.084202 -1.098036,0.1312592 -0.337775,0.044753 -0.677296,0.096505 -1.023398,0.1560901 -0.339799,0.057516 -0.63547,0.1133498 -0.891966,0.1683657 -0.258954,0.054563 -0.570586,0.1256869 -0.933628,0.2131985 -0.365074,0.088001 -0.693387,0.1709692 -0.985963,0.2491272 -0.27685,0.0737 -0.538394,0.1506983 -0.778863,0.2289929 -0.259201,0.085398 -0.525722,0.1780306 -0.801423,0.2786028 -0.271398,0.098641 -0.519895,0.1940389 -0.739319,0.2835647 -0.228785,0.094341 -0.461093,0.1948171 -0.688962,0.2978253 -0.231535,0.1061075 -0.466148,0.2193304 -0.706287,0.3409368 -0.230746,0.1163846 -0.447441,0.2324155 -0.650013,0.3479424 -0.207369,0.1182634 -0.427497,0.2502848 -0.658508,0.3950008 -0.233721,0.1467757 -0.451769,0.2897147 -0.657203,0.4308287 -0.186807,0.12771 -0.372246,0.265375 -0.563471,0.418809 -0.201049,0.15959 -0.387002,0.313186 -0.561363,0.463703 -0.168845,0.144945 -0.345206,0.304245 -0.528851,0.477832 -0.189559,0.179177 -0.367308,0.352589 -0.5297,0.516588 -0.166614,0.169255 -0.323598,0.333836 -0.470924,0.493663 -0.135588,0.147091 -0.27195,0.30502 -0.40964,0.474649 -0.134495,0.165477 -0.316416,0.408065 -0.539581,0.720786 -0.205484,0.288841 -0.370904,0.550243 -0.492832,0.775234 -0.106307,0.19822 -0.185581,0.387884 -0.238095,0.563868 -0.05565,0.18884 -0.08912,0.360041 -0.103113,0.520185 -0.01996,0.218715 -0.02987,0.431998 -0.02987,0.639938 0,0.246988 0.0025,0.478816 0.0077,0.703176 0.0029,0.15596 0.02047,0.35493 0.05344,0.58807 0.04734,0.327657 0.08466,0.630282 0.112561,0.915681 0.03492,0.373307 0.02795,0.757136 -0.01887,1.149735 -0.06193,0.52134 -0.227929,1.008165 -0.503591,1.447501 -0.248452,0.392896 -0.555488,0.727911 -0.920007,0.993428 -0.377523,0.274988 -0.813093,0.465837 -1.287641,0.580302 -0.305834,0.07527 -0.62103,0.142455 -0.9456,0.201655 -0.259981,0.04742 -0.492341,0.09596 -0.698017,0.145597 -0.211913,0.05092 -0.4235,0.107059 -0.643586,0.170973 -0.205254,0.05845 -0.4081,0.122801 -0.608583,0.193064 -0.179662,0.06297 -0.350099,0.132148 -0.511503,0.207419 -0.147814,0.06893 -0.344997,0.17772 -0.586229,0.325893 -0.217219,0.133123 -0.379128,0.24777 -0.485756,0.339702 -0.135322,0.115889 -0.265256,0.239208 -0.393552,0.373935 -0.114511,0.119525 -0.235145,0.263239 -0.36615,0.438471 -0.123079,0.16283 -0.242316,0.343894 -0.3558,0.540943 -0.125727,0.219205 -0.25255,0.46452 -0.377862,0.731334 -0.13056,0.280048 -0.244631,0.545088 -0.342267,0.794736 -0.100493,0.25695 -0.197586,0.525736 -0.293448,0.813022 -0.08969,0.265149 -0.167511,0.527867 -0.235301,0.794993 -0.06601,0.255703 -0.124733,0.532477 -0.175094,0.825901 -0.05219,0.308812 -0.09292,0.599735 -0.122365,0.873089 -0.02899,0.268115 -0.05036,0.56264 -0.06382,0.883275 -0.01397,0.331733 -0.02094,0.653605 -0.02094,0.965575 0,0.311847 0.007,0.644583 0.02109,0.998001 0.01283,0.321798 0.04184,0.651238 0.08721,0.988401 0.04948,0.367747 0.109327,0.755217 0.180374,1.166984 0.07187,0.423655 0.129292,0.755601 0.173296,1.001689 0.04325,0.24782 0.09975,0.577223 0.170176,0.992253 0.06899,0.411775 0.129974,0.782884 0.18298,1.113478 0.05362,0.33442 0.10557,0.674087 0.155963,1.019752 0.05196,0.357533 0.09356,0.680364 0.124842,0.970104 0.02742,0.254972 0.05735,0.505629 0.08978,0.751965 0.03366,0.255692 0.0673,0.504447 0.100772,0.745269 0.03351,0.239996 0.06698,0.472508 0.100256,0.696397 0.03885,0.260203 0.07573,0.570958 0.111369,0.934841 0.03851,0.391976 0.05776,0.785707 0.05776,1.180995 0,0.455254 -0.0454,0.902142 -0.136619,1.338894 -0.0901,0.431373 -0.222891,0.852874 -0.39764,1.263093 -0.147179,0.345502 -0.307382,0.687142 -0.481614,1.026935 -0.167252,0.325086 -0.317781,0.6042 -0.456215,0.844856 -0.129497,0.223169 -0.260815,0.442588 -0.395273,0.66038 -0.131184,0.211795 -0.267184,0.427153 -0.409188,0.647933 -0.127384,0.197492 -0.251788,0.396967 -0.37958,0.608907 -0.112725,0.184009 -0.220783,0.37447 -0.324158,0.571444 -0.103451,0.19712 -0.201107,0.399104 -0.290426,0.600254 -0.08755,0.199191 -0.165419,0.397366 -0.234469,0.596755 -0.06248,0.179618 -0.127554,0.410109 -0.193228,0.689508 -0.05619,0.238274 -0.08978,0.461246 -0.102062,0.669101 -0.01623,0.274643 -0.0243,0.541426 -0.0243,0.800324 0,0.142446 0.01815,0.277542 0.05568,0.413582 0.04757,0.174167 0.119545,0.362865 0.219811,0.570084 0.104008,0.216565 0.198868,0.383815 0.284781,0.507078 0.108661,0.157905 0.222517,0.30938 0.344667,0.458296 0.09483,0.116266 0.206126,0.232954 0.334336,0.349448 0.137181,0.12458 0.29811,0.253121 0.485826,0.386764 0.171665,0.122762 0.354976,0.235139 0.55277,0.338393 0.182664,0.0957 0.40313,0.187965 0.662561,0.275117 0.262447,0.08844 0.533087,0.158654 0.812537,0.210644 0.309947,0.05766 0.619367,0.101523 0.928389,0.131638 0.309336,0.03014 0.625857,0.04711 0.94961,0.05079 0.36739,0.0042 0.729931,0.0062 1.087621,0.0062 0.322764,0 0.627581,-0.0107 0.919364,-0.03225 0.265026,-0.01878 0.522971,-0.05147 0.77965,-0.09894 0.27144,-0.0493 0.541111,-0.109118 0.809109,-0.17948 0.249932,-0.06562 0.487849,-0.142058 0.716019,-0.229912 0.232635,-0.08924 0.46116,-0.190593 0.688077,-0.305341 0.220223,-0.11095 0.45187,-0.24427 0.694338,-0.400254 0.249788,-0.160693 0.477404,-0.321116 0.682844,-0.480839 0.220315,-0.171287 0.436498,-0.349803 0.65471,-0.540936 0.224917,-0.195149 0.43968,-0.387284 0.644274,-0.576357 0.229466,-0.212059 0.457588,-0.417172 0.681621,-0.612916 0.230584,-0.20235 0.460113,-0.395502 0.692751,-0.582747 0.232872,-0.186266 0.463418,-0.361092 0.695225,-0.526932 0.256429,-0.182502 0.545003,-0.36331 0.869277,-0.54572 0.351997,-0.197231 0.683406,-0.352693 1.000873,-0.465414 0.385491,-0.136874 0.793741,-0.212428 1.21961,-0.229962 0.806076,-0.03319 1.536811,0.303966 2.040782,0.920397 0.297064,0.361493 0.529351,0.782147 0.70392,1.256822 0.122699,0.3348 0.223613,0.63519 0.302989,0.903466 0.06983,0.236003 0.139093,0.474112 0.20526,0.70555 0.05692,0.195016 0.119258,0.383219 0.186957,0.564675 0.04881,0.130822 0.133155,0.306684 0.249587,0.513898 0.09636,0.169702 0.210638,0.325608 0.347202,0.472789 0.167258,0.181118 0.342192,0.3456 0.52846,0.496824 0.206719,0.168709 0.430896,0.335087 0.675136,0.500615 0.238259,0.162083 0.473989,0.307216 0.70272,0.433214 0.185371,0.101407 0.383844,0.186462 0.596873,0.255248 0.229388,0.07407 0.467408,0.130687 0.715722,0.169921 0.291068,0.04613 0.532076,0.07603 0.719306,0.09019 0.216811,0.01647 0.444191,0.02963 0.682349,0.03943 0.232897,0.0096 0.459081,0.01443 0.678518,0.01443 h 0.735471 c 0.142146,0 0.282358,-0.01276 0.429133,-0.03969 0.222824,-0.03993 0.458564,-0.08652 0.707067,-0.139779 0.243096,-0.0521 0.463631,-0.104065 0.666627,-0.157061 0.180306,-0.04645 0.364809,-0.101541 0.560288,-0.167689 0.199231,-0.06651 0.434999,-0.152748 0.710667,-0.260372 0.238163,-0.09214 0.470073,-0.196538 0.695985,-0.313305 0.203657,-0.105263 0.363894,-0.202802 0.483699,-0.291618 0.164631,-0.121168 0.330388,-0.25175 0.497204,-0.391805 0.152321,-0.127887 0.30981,-0.273961 0.471965,-0.438316 0.181284,-0.183744 0.36877,-0.382436 0.556789,-0.589906 0.204039,-0.227372 0.400567,-0.448822 0.589574,-0.664337 0.289966,-0.330486 0.289966,-0.330486 0.573607,-0.653172 0.198351,-0.226832 0.401588,-0.453489 0.609708,-0.679978 0.208058,-0.22642 0.41421,-0.445423 0.618479,-0.657014 0.222797,-0.230783 0.456078,-0.455588 0.699765,-0.674411 0.246085,-0.220977 0.502708,-0.434184 0.77367,-0.642602 0.281543,-0.215283 0.561462,-0.407168 0.837293,-0.573472 0.284012,-0.172064 0.578322,-0.325868 0.879907,-0.460055 0.314376,-0.140511 0.639007,-0.257706 0.971388,-0.350939 0.314378,-0.08856 0.625826,-0.157973 0.934305,-0.207863 0.310208,-0.05017 0.618911,-0.08155 0.933797,-0.0942 0.322015,-0.01146 0.684571,0.0038 1.099458,0.04397 0.527085,0.05246 0.992168,0.166484 1.412876,0.369889 0.314568,0.154454 0.613433,0.342583 0.899275,0.565665 0.277742,0.217976 0.538659,0.469275 0.783568,0.752289 0.224769,0.259741 0.438777,0.544204 0.6446,0.855851 0.173245,0.26343 0.336843,0.519795 0.495514,0.776837 0.130028,0.213118 0.265383,0.423416 0.409117,0.635404 0.119329,0.177194 0.243283,0.340913 0.378017,0.498875 0.103316,0.122501 0.213561,0.231573 0.331363,0.32835 0.131123,0.107721 0.264931,0.201622 0.396322,0.279206 0.149136,0.08731 0.303347,0.164553 0.469297,0.234586 0.136281,0.05813 0.338341,0.122844 0.599957,0.188143 0.272722,0.06807 0.484415,0.108827 0.623809,0.123692 0.169667,0.01809 0.396482,0.02974 0.681034,0.03341 0.20748,0.0033 0.359662,-0.0085 0.448283,-0.02742 0.135599,-0.02892 0.267747,-0.06876 0.397377,-0.119831 0.168724,-0.06647 0.339515,-0.143125 0.503432,-0.225605 0.176012,-0.08989 0.353444,-0.189999 0.532266,-0.30046 0.184651,-0.114061 0.376216,-0.241841 0.574445,-0.383384 0.181153,-0.12935 0.362136,-0.273266 0.536375,-0.42627 0.185837,-0.164891 0.380323,-0.353347 0.580145,-0.562474 0.183269,-0.192689 0.35874,-0.402545 0.522141,-0.62421 0.184659,-0.252756 0.371146,-0.528415 0.559156,-0.826896 0.188943,-0.29996 0.374389,-0.616778 0.556225,-0.950465 0.175586,-0.322217 0.346676,-0.671671 0.51228,-1.046846 0.165509,-0.375909 0.305134,-0.731888 0.419092,-1.067398 0.111281,-0.327632 0.207003,-0.667553 0.286338,-1.0168 0.07897,-0.350803 0.136637,-0.685528 0.173394,-1.003987 0.03733,-0.323413 0.05756,-0.628923 0.0611,-0.916319 0.0038,-0.307123 -0.0028,-0.603638 -0.01964,-0.889522 -0.01082,-0.183673 -0.03975,-0.341035 -0.08648,-0.482321 -0.05306,-0.162914 -0.113059,-0.29771 -0.179478,-0.409164 -0.07456,-0.125702 -0.155683,-0.236421 -0.246859,-0.337473 -0.125907,-0.140343 -0.254601,-0.270045 -0.389907,-0.39285 -0.219074,-0.200036 -0.457569,-0.444211 -0.722766,-0.738094 -0.35066,-0.390209 -0.629275,-0.820707 -0.829651,-1.287429 -0.197726,-0.460547 -0.31799,-0.936164 -0.35577,-1.415097 -0.0343,-0.415812 -0.02398,-0.839279 0.02909,-1.263353 0.06637,-0.5451 0.24041,-1.06132 0.516516,-1.532528 0.213649,-0.366035 0.434893,-0.680813 0.67576,-0.951111 0.199527,-0.222385 0.415123,-0.436306 0.64646,-0.641825 0.225698,-0.200509 0.469226,-0.395875 0.733702,-0.588826 0.248671,-0.180541 0.504842,-0.354202 0.763757,-0.517997 0.230409,-0.14682 0.467805,-0.298958 0.712182,-0.456412 0.258364,-0.166466 0.526767,-0.334784 0.807834,-0.506573 0.278243,-0.169389 0.562869,-0.338618 0.853882,-0.507697 0.284988,-0.16558 0.572642,-0.331134 0.865352,-0.498024 0.300307,-0.170588 0.61432,-0.3435 0.946057,-0.520905 0.294008,-0.156246 0.58341,-0.317863 0.869793,-0.485774 0.298128,-0.174374 0.607091,-0.357792 0.923356,-0.548129 0.321115,-0.194307 0.646555,-0.393384 0.975059,-0.596453 0.324069,-0.200713 0.637946,-0.400157 0.941623,-0.598312 0.300921,-0.196357 0.599869,-0.397819 0.896846,-0.604393 0.282986,-0.196841 0.561284,-0.402978 0.840187,-0.622578 0.273565,-0.213687 0.532514,-0.428921 0.779386,-0.647832 0.248309,-0.219327 0.494204,-0.449273 0.73767,-0.689878 0.239759,-0.236941 0.476341,-0.486537 0.70944,-0.748536 0.241046,-0.271064 0.463941,-0.531898 0.666064,-0.779174 0.189168,-0.232564 0.366978,-0.470697 0.533528,-0.714473 0.168795,-0.247062 0.329483,-0.502907 0.48303,-0.769293 0.138529,-0.239703 0.253149,-0.470448 0.345689,-0.694712 0.09377,-0.226074 0.172763,-0.457947 0.237086,-0.696058 0.06021,-0.222898 0.101982,-0.445327 0.125649,-0.668033 0.02679,-0.252142 0.04022,-0.507398 0.04022,-0.766008 0,-0.221229 -0.01787,-0.431405 -0.052,-0.625705 -0.03321,-0.18519 -0.0978,-0.406788 -0.196346,-0.661631 -0.109543,-0.283284 -0.231511,-0.547752 -0.363483,-0.789893 -0.135061,-0.246246 -0.28385,-0.479791 -0.44585,-0.70019 -0.158856,-0.215821 -0.327874,-0.413546 -0.509884,-0.596566 -0.187277,-0.189156 -0.374663,-0.356248 -0.561845,-0.501775 -0.215108,-0.167238 -0.432358,-0.324305 -0.654551,-0.473147 -0.220037,-0.148019 -0.436764,-0.283571 -0.654843,-0.409494 -0.196884,-0.114519 -0.38067,-0.209591 -0.544353,-0.282805 -0.149886,-0.06633 -0.296932,-0.118952 -0.434325,-0.156554 -0.08885,-0.02389 -0.230149,-0.04235 -0.413569,-0.04791 -0.218975,0.02402 -0.317667,0.08029 -0.450939,0.179605 -0.135762,0.101171 -0.239351,0.201411 -0.320858,0.307055 -0.09035,0.115891 -0.155218,0.222993 -0.199357,0.32395 -0.212548,0.483952 -0.529171,0.89893 -0.950185,1.227286 -0.943106,0.726037 -2.117532,0.529084 -2.882591,-0.288784 C 76.347453,19.895707 76.12773,19.6179 75.942613,19.332341 75.82459,19.1493 75.682467,18.936271 75.521288,18.700761 75.356229,18.462085 75.179419,18.21497 74.990879,17.959502 74.791251,17.689008 74.593756,17.420627 74.398395,17.154359 74.189347,16.869435 73.974334,16.562154 73.749386,16.226756 73.519374,15.880888 73.30437,15.530833 73.104457,15.176617 c -0.192083,-0.34034 -0.374124,-0.680579 -0.547126,-1.022756 -0.158468,-0.314472 -0.314232,-0.620962 -0.468388,-0.921609 -0.137313,-0.268733 -0.273551,-0.514937 -0.410975,-0.742836 -0.1135,-0.18951 -0.224162,-0.350389 -0.32762,-0.479235 -0.314427,0.362889 -0.780471,0.592713 -1.300612,0.592713 z"
         id="path6"
         style="fill:#ffffff;fill-rule:nonzero;fill-opacity:1" />
      <path
         d="m 58.197264,78.616704 c 0,0.0018 1e-6,0.0036 2e-6,0.0055 -2.8e-5,-8.2e-4 -2e-6,-0.003 -2e-6,-0.0055 z m 0.01929,0.617307 c 0.01203,0.19702 0.03443,0.410113 0.06841,0.645273 0.03658,0.260123 0.07566,0.515939 0.118298,0.77399 0.04386,0.271977 0.08343,0.527199 0.118723,0.765772 0.03829,0.258848 0.07101,0.526778 0.09884,0.81031 0.02538,0.26898 0.04612,0.540547 0.06224,0.814697 0.01469,0.249813 0.0315,0.51675 0.05047,0.801168 0.01885,0.283648 0.0382,0.554464 0.05857,0.819676 0.01798,0.247816 0.04108,0.509369 0.06938,0.785159 0.02805,0.274361 0.06007,0.544401 0.09604,0.81012 0.03702,0.273475 0.07662,0.546431 0.11972,0.825027 0.04152,0.275008 0.0835,0.540363 0.126109,0.797113 0.04315,0.261065 0.08843,0.529075 0.13566,0.802959 0.04854,0.280423 0.09495,0.552408 0.137893,0.808197 0.04565,0.264206 0.08809,0.515799 0.126098,0.747423 0.05943,0.353299 0.05943,0.353299 0.117595,0.70328 0.03789,0.227652 0.08061,0.47935 0.127957,0.753941 0.04212,0.243355 0.09398,0.49548 0.156991,0.761957 0.05822,0.250035 0.118133,0.469762 0.17739,0.653627 0.210727,0.647601 0.167982,1.324644 -0.129632,1.945047 -0.412509,0.851354 -1.249632,1.323907 -2.191435,1.269621 -0.223865,-0.01296 -0.435801,-0.01937 -0.635629,-0.01937 h -8.891356 c -0.178055,0 -0.411317,0.01186 -0.695189,0.03647 -0.249467,0.02163 -0.462901,0.05444 -0.645094,0.09779 -0.232526,0.0544 -0.475003,0.118208 -0.727291,0.191499 -0.224423,0.0652 -0.413839,0.130143 -0.566449,0.192985 -0.449097,0.184928 -0.928982,0.265576 -1.421931,0.244402 -1.117917,-0.04802 -1.96036,-0.856624 -2.029668,-1.971674 -0.01369,-0.22033 -0.0313,-0.439594 -0.05213,-0.651111 -0.02233,-0.217702 -0.04904,-0.43603 -0.08015,-0.654993 -0.03926,-0.276317 -0.07176,-0.576708 -0.09743,-0.896412 -0.02486,-0.297057 -0.04917,-0.598857 -0.07243,-0.899033 -0.0355,-0.436158 -0.0355,-0.436158 -0.06569,-0.806048 -0.01949,-0.239636 -0.03897,-0.488218 -0.05785,-0.738174 -0.0196,-0.244572 -0.04126,-0.49077 -0.06425,-0.730973 -0.02525,-0.251537 -0.05155,-0.504677 -0.07815,-0.752571 -0.02642,-0.236907 -0.05999,-0.491618 -0.101759,-0.770711 -0.041,-0.281719 -0.08508,-0.563467 -0.132239,-0.845244 -0.04863,-0.290546 -0.09671,-0.573105 -0.144417,-0.848734 -0.04481,-0.259828 -0.09465,-0.521936 -0.150768,-0.792317 -0.0557,-0.273244 -0.111808,-0.536819 -0.17003,-0.798443 -0.05564,-0.255597 -0.111709,-0.503136 -0.168558,-0.744153 -0.06132,-0.261096 -0.121958,-0.53155 -0.180566,-0.805139 -0.05959,-0.273049 -0.116503,-0.538206 -0.171041,-0.796875 -0.07848,-0.373249 -0.07848,-0.373249 -0.151566,-0.718704 -0.04743,-0.22381 -0.09539,-0.44709 -0.143517,-0.668221 -0.05345,-0.244443 -0.107855,-0.517737 -0.163253,-0.819503 -0.05818,-0.315735 -0.106437,-0.626678 -0.143892,-0.926412 -0.03619,-0.280783 -0.06916,-0.550059 -0.09795,-0.79997 -0.02599,-0.216405 -0.0602,-0.443777 -0.102723,-0.681957 -0.03321,-0.185988 -0.07705,-0.35748 -0.130908,-0.515036 -0.07872,-0.230269 -0.155122,-0.44708 -0.230071,-0.652868 -0.0727,-0.200606 -0.154502,-0.416709 -0.243012,-0.642152 -0.0773,-0.19469 -0.161657,-0.380936 -0.250131,-0.553313 C 38.713943,75.41605 38.58706,75.200665 38.427393,74.95272 38.26297,74.69884 38.111848,74.484183 37.975885,74.309999 37.828656,74.121382 37.671338,73.932301 37.503488,73.742363 37.339552,73.556726 37.163934,73.370917 36.976574,73.185012 36.798077,73.007902 36.606225,72.833588 36.400875,72.662147 36.164371,72.464696 35.913311,72.258053 35.64717,72.041804 35.372611,71.818521 35.091675,71.588896 34.806785,71.354916 34.504408,71.107504 34.195155,70.844729 33.881483,70.568806 33.555926,70.283579 33.236429,69.987163 32.925271,69.681823 32.620319,69.38369 32.321998,69.081564 32.028182,68.773208 31.733601,68.462928 31.438067,68.13773 31.143346,67.799706 30.868795,67.485855 30.601892,67.185852 30.342669,66.89972 30.097422,66.629014 29.85473,66.375072 29.612243,66.135441 29.368548,65.893639 29.12109,65.659397 28.867375,65.430444 28.600374,65.188554 28.341983,64.956239 28.092521,64.73378 27.827506,64.497565 27.569523,64.260547 27.315796,64.020075 27.060435,63.776969 26.814903,63.532772 26.58211,63.290457 c -0.232075,-0.240382 -0.445099,-0.468141 -0.642245,-0.686914 -0.199387,-0.222422 -0.410498,-0.470556 -0.629021,-0.738822 -0.308908,-0.375652 -0.308908,-0.375652 -0.606841,-0.737895 -0.719424,-0.879479 -0.641239,-1.937991 -0.08108,-2.89959 0.473848,-0.813432 1.522557,-1.091703 2.342356,-0.621535 0.673911,0.386499 0.983353,1.158446 0.808922,1.872814 0.05114,0.06219 0.113224,0.137696 0.198436,0.241327 0.19102,0.234478 0.367674,0.442112 0.526356,0.619135 0.166905,0.185207 0.353396,0.384598 0.562186,0.600869 0.200149,0.208329 0.40968,0.416721 0.625829,0.622502 0.225482,0.213698 0.457813,0.427149 0.697303,0.640613 0.256572,0.228799 0.521611,0.467091 0.792642,0.712637 0.291431,0.262983 0.578085,0.534327 0.857484,0.811561 0.28555,0.282181 0.571629,0.58152 0.858357,0.898014 0.272753,0.301067 0.552779,0.615821 0.841945,0.946381 0.265334,0.304316 0.52848,0.593875 0.787243,0.866433 0.263793,0.276844 0.533766,0.550259 0.8122,0.822472 0.267683,0.262675 0.539982,0.515301 0.819457,0.76016 0.286252,0.251798 0.564522,0.488248 0.837139,0.711312 0.283115,0.232519 0.559791,0.458663 0.829462,0.67797 0.277081,0.225139 0.539836,0.441407 0.788305,0.648848 0.279624,0.23345 0.543903,0.473568 0.792695,0.720428 0.239929,0.238066 0.467032,0.478348 0.680858,0.720479 0.212827,0.240834 0.414431,0.483142 0.60476,0.726975 0.201596,0.258267 0.409398,0.553435 0.627634,0.890421 0.216116,0.335589 0.395813,0.640627 0.542874,0.924532 0.141507,0.275663 0.270791,0.561084 0.390258,0.862025 0.101424,0.258298 0.193745,0.502203 0.276086,0.729406 0.08193,0.224944 0.16576,0.462841 0.251546,0.713779 0.110644,0.32365 0.19713,0.661983 0.260062,1.014438 0.05361,0.300262 0.09738,0.591195 0.132148,0.880859 0.02796,0.24247 0.05909,0.496798 0.09421,0.769377 0.03009,0.240748 0.06836,0.487327 0.115072,0.740812 0.04908,0.267374 0.09617,0.503905 0.141341,0.710489 0.0498,0.22878 0.09905,0.458088 0.147755,0.687926 0.07379,0.348797 0.07379,0.348797 0.152584,0.723525 0.05258,0.249367 0.107825,0.506754 0.167096,0.778407 0.05541,0.258594 0.11121,0.507504 0.167023,0.745136 0.06102,0.258706 0.121391,0.525231 0.179412,0.79185 0.06099,0.273967 0.121311,0.557314 0.179751,0.844078 0.06262,0.301612 0.119597,0.601265 0.170748,0.897895 0.04861,0.280836 0.09774,0.569578 0.147393,0.866231 0.05112,0.305422 0.09891,0.610873 0.142354,0.90952 0.04683,0.31282 0.0859,0.60927 0.117917,0.896459 0.02819,0.2625 0.0553,0.523423 0.08208,0.790392 0.0254,0.265181 0.0486,0.528807 0.07019,0.798463 0.01899,0.251225 0.03797,0.49339 0.05688,0.725868 0.03021,0.370022 0.03021,0.370022 0.06625,0.813082 0.02324,0.299733 0.04699,0.594672 0.07173,0.89041 0.02057,0.256003 0.04532,0.485759 0.07389,0.688468 0.236894,-0.06596 0.46792,-0.125296 0.690154,-0.177275 0.349791,-0.08324 0.72922,-0.14158 1.139915,-0.177187 0.37629,-0.03262 0.705981,-0.04938 0.993673,-0.04938 h 8.257448 c -0.04625,-0.214127 -0.0874,-0.425227 -0.123472,-0.633639 -0.04861,-0.281866 -0.09241,-0.539994 -0.131643,-0.775701 -0.05754,-0.346219 -0.05754,-0.346219 -0.117372,-0.701984 -0.03767,-0.229471 -0.07855,-0.471804 -0.123958,-0.734727 -0.04333,-0.257929 -0.08879,-0.524387 -0.13657,-0.800429 -0.04873,-0.282573 -0.09531,-0.558306 -0.13958,-0.826128 -0.04517,-0.272169 -0.08971,-0.553737 -0.132705,-0.838572 -0.04543,-0.293562 -0.08809,-0.587667 -0.127982,-0.882312 -0.04094,-0.302402 -0.07729,-0.608962 -0.108992,-0.919062 -0.03158,-0.307788 -0.05763,-0.602696 -0.07756,-0.87758 -0.02076,-0.269895 -0.04093,-0.552361 -0.06051,-0.847023 -0.01951,-0.292591 -0.03688,-0.568336 -0.05211,-0.827289 -0.01379,-0.234614 -0.03151,-0.466512 -0.05251,-0.689253 -0.02192,-0.223198 -0.04796,-0.436475 -0.07803,-0.639754 -0.03307,-0.223555 -0.07041,-0.464379 -0.110944,-0.71582 -0.04603,-0.278457 -0.0892,-0.561084 -0.128618,-0.841482 -0.04599,-0.318163 -0.07807,-0.623374 -0.09594,-0.916041 -0.01703,-0.278759 -0.02557,-0.553137 -0.02557,-0.823133 0,-0.483767 0.10888,-0.957621 0.311929,-1.400399 0.144597,-0.319947 0.308986,-0.618376 0.495177,-0.896243 0.135604,-0.201825 0.272297,-0.403103 0.407668,-0.600308 0.135844,-0.198974 0.287104,-0.419563 0.453816,-0.661818 0.148565,-0.215886 0.274681,-0.409194 0.383547,-0.587889 0.115472,-0.186937 0.238254,-0.390659 0.368237,-0.611031 0.119246,-0.202168 0.232333,-0.40703 0.337924,-0.611972 0.115043,-0.224258 0.23795,-0.470703 0.372024,-0.746155 0.132593,-0.269293 0.259328,-0.532086 0.382591,-0.793402 0.123745,-0.260135 0.250222,-0.529349 0.380448,-0.809835 0.128301,-0.275311 0.263703,-0.570984 0.40616,-0.886944 0.140049,-0.31062 0.285205,-0.642757 0.437045,-1.000173 0.153055,-0.357822 0.307796,-0.726317 0.465746,-1.109172 0.162589,-0.391483 0.342181,-0.817116 0.538818,-1.277019 0.196348,-0.459225 0.343997,-0.801599 0.445023,-1.031819 0.09963,-0.225949 0.246711,-0.554317 0.443388,-0.98989 0.195855,-0.43138 0.382142,-0.838456 0.557232,-1.217684 0.17751,-0.38684 0.348212,-0.752108 0.513047,-1.097751 0.15265,-0.319085 0.290922,-0.619616 0.415673,-0.903404 0.129118,-0.292686 0.241076,-0.549644 0.335749,-0.77055 0.09407,-0.219497 0.195285,-0.460531 0.301394,-0.717644 -0.139194,-0.09706 -0.298148,-0.147646 -0.46091,-0.193302 -0.182166,-0.05132 -0.384671,-0.09443 -0.602217,-0.127767 -0.217204,-0.03261 -0.410618,-0.04978 -0.586288,-0.0528 -0.130143,-0.0028 -0.25489,0.0044 -0.375973,0.02145 -0.08977,0.06686 -0.173957,0.144175 -0.250802,0.230419 -0.119317,0.134771 -0.25324,0.309405 -0.398825,0.522728 -0.182439,0.267323 -0.353633,0.519226 -0.511609,0.752787 -0.167194,0.248294 -0.352838,0.518311 -0.557054,0.810272 -0.205768,0.294181 -0.38307,0.542577 -0.526534,0.737714 -0.134897,0.185957 -0.272595,0.378875 -0.410732,0.575392 -0.125881,0.180009 -0.245615,0.362571 -0.357283,0.54453 -0.126949,0.20789 -0.253982,0.419504 -0.382904,0.637898 -0.121499,0.204846 -0.235118,0.403965 -0.342592,0.600449 -0.113896,0.207187 -0.226189,0.412768 -0.335152,0.613547 -0.116159,0.215147 -0.253346,0.464521 -0.41287,0.750522 -0.14801,0.264549 -0.293592,0.533823 -0.435561,0.805562 -0.151427,0.29091 -0.295397,0.566486 -0.434475,0.831598 -0.148793,0.281433 -0.30193,0.555864 -0.462228,0.828002 -0.1622,0.273362 -0.328131,0.535483 -0.501027,0.790971 -0.176005,0.258268 -0.359914,0.507328 -0.551726,0.747085 -0.228174,0.285207 -0.474178,0.542779 -0.742611,0.775046 -0.317602,0.272996 -0.67252,0.493327 -1.056582,0.656643 -0.356899,0.152496 -0.733222,0.259061 -1.124482,0.319926 -0.560888,0.08762 -1.117822,0.02665 -1.640948,-0.193971 -0.298734,-0.127458 -0.59974,-0.286796 -0.904772,-0.477001 -0.288832,-0.180104 -0.578483,-0.385483 -0.869645,-0.61584 -0.279761,-0.221337 -0.539845,-0.444827 -0.780396,-0.671014 -0.22079,-0.207665 -0.423624,-0.405473 -0.612389,-0.597525 -0.161312,-0.165124 -0.328523,-0.333066 -0.505229,-0.507373 -0.168245,-0.166939 -0.335667,-0.32813 -0.502246,-0.483577 -0.169173,-0.157868 -0.345864,-0.31866 -0.530058,-0.482344 -0.191102,-0.169822 -0.384341,-0.340198 -0.579717,-0.511127 -0.177369,-0.155175 -0.351267,-0.299983 -0.525204,-0.437297 -0.289858,-0.230192 -0.289858,-0.230192 -0.577348,-0.458931 -0.177112,-0.14001 -0.348839,-0.270565 -0.511272,-0.38889 -0.205741,-0.149001 -0.44407,-0.330072 -0.714056,-0.542155 -0.261555,-0.204604 -0.503462,-0.395547 -0.722604,-0.570358 -0.207558,-0.164757 -0.406748,-0.318869 -0.597474,-0.462296 -0.179162,-0.134731 -0.361024,-0.264225 -0.54063,-0.385167 -0.184823,-0.123505 -0.368464,-0.239545 -0.554232,-0.350145 L 39.721391,63.75325 c -0.810844,-0.485216 -1.071738,-1.530776 -0.582724,-2.335322 0.489014,-0.804546 1.542758,-1.063415 2.353602,-0.578199 l 0.307516,0.184026 c 0.234175,0.139414 0.46821,0.287296 0.707104,0.446947 0.234163,0.157662 0.464636,0.321769 0.691398,0.492296 0.2152,0.161832 0.437958,0.334178 0.671564,0.519617 0.2135,0.170305 0.446953,0.354575 0.703002,0.554876 0.240041,0.188556 0.443956,0.343482 0.613757,0.466462 0.203372,0.148137 0.410864,0.305882 0.627074,0.476812 0.290203,0.230887 0.290203,0.230887 0.574634,0.456778 0.216379,0.17081 0.43452,0.35246 0.65453,0.544941 0.202003,0.176726 0.40187,0.352946 0.599602,0.52866 0.204638,0.181852 0.401826,0.361296 0.591576,0.538366 0.192344,0.179489 0.384914,0.364894 0.574124,0.552646 0.187957,0.185393 0.370055,0.368286 0.542625,0.544947 0.15247,0.155116 0.323515,0.321922 0.512743,0.499902 0.167689,0.157675 0.354123,0.317878 0.559335,0.480235 0.193811,0.153336 0.37952,0.285014 0.556433,0.39533 0.107236,0.06687 0.207704,0.123412 0.298903,0.169093 0.06851,-0.01632 0.132354,-0.03738 0.193283,-0.06341 0.06186,-0.02631 0.115009,-0.0593 0.16059,-0.09847 0.103322,-0.08941 0.205558,-0.196449 0.306397,-0.322494 0.1372,-0.171494 0.269486,-0.350644 0.393719,-0.532925 0.13148,-0.194301 0.261447,-0.399608 0.38701,-0.611207 0.130917,-0.222273 0.258722,-0.451308 0.380838,-0.682264 0.134807,-0.256987 0.27712,-0.529393 0.428113,-0.819465 0.158089,-0.302599 0.319087,-0.600386 0.481919,-0.891424 0.151341,-0.271334 0.28121,-0.507406 0.391107,-0.710946 0.113635,-0.209397 0.228872,-0.420367 0.34398,-0.629751 0.124996,-0.228527 0.258136,-0.461857 0.397611,-0.697003 0.13567,-0.229833 0.27142,-0.455969 0.409204,-0.681594 0.149164,-0.243066 0.306101,-0.482354 0.473123,-0.721185 0.150073,-0.213506 0.29759,-0.42018 0.448836,-0.62862 0.132278,-0.179973 0.294672,-0.407484 0.486283,-0.681424 0.193163,-0.276159 0.36751,-0.529745 0.524876,-0.763437 0.162671,-0.240508 0.336514,-0.49631 0.521543,-0.767429 0.221884,-0.32512 0.441543,-0.611554 0.665446,-0.864445 0.254457,-0.285619 0.535743,-0.539202 0.842624,-0.758761 0.417327,-0.298578 0.887182,-0.493865 1.390076,-0.574418 0.340949,-0.05486 0.688122,-0.07833 1.03306,-0.07097 0.327214,0.0056 0.671115,0.03612 1.038056,0.09122 0.358401,0.05491 0.698553,0.12733 1.018758,0.217531 0.302019,0.08472 0.598704,0.182211 0.892255,0.293356 0.118061,0.0449 0.220221,0.07116 0.307054,0.08208 0.294495,0.03704 0.590303,0.0922 0.88546,0.164747 1.396668,0.341709 1.907493,1.766246 1.226488,2.92693 -0.1055,0.181277 -0.205922,0.373689 -0.301131,0.577361 -0.10447,0.223485 -0.206559,0.457135 -0.308381,0.706254 -0.113897,0.27601 -0.220984,0.531022 -0.321332,0.765173 -0.09974,0.232743 -0.216386,0.500449 -0.349156,0.801409 -0.138927,0.316042 -0.292279,0.649347 -0.459199,0.998257 -0.156529,0.328229 -0.320182,0.678413 -0.492559,1.054056 -0.173641,0.376102 -0.356959,0.776691 -0.54849,1.198536 -0.191467,0.424043 -0.33494,0.74435 -0.428524,0.956589 -0.09459,0.21557 -0.238572,0.549429 -0.431058,0.999622 -0.192195,0.449514 -0.367253,0.864402 -0.523601,1.240846 -0.161912,0.392471 -0.322296,0.774404 -0.479516,1.141948 -0.159591,0.375676 -0.314606,0.730372 -0.465113,1.064187 -0.1481,0.328475 -0.289369,0.63696 -0.422824,0.923325 -0.133583,0.287721 -0.264548,0.566489 -0.390514,0.831272 -0.129091,0.273692 -0.26407,0.553582 -0.401512,0.832682 -0.140685,0.289077 -0.274152,0.556696 -0.401889,0.805693 -0.136602,0.265138 -0.280957,0.526643 -0.43304,0.784484 -0.141346,0.239636 -0.276005,0.463064 -0.398479,0.661273 -0.138162,0.226864 -0.29833,0.472366 -0.480914,0.737686 -0.164437,0.238952 -0.313348,0.456113 -0.44911,0.654957 -0.131408,0.191442 -0.26177,0.383397 -0.3899,0.574096 -0.07778,0.116075 -0.151602,0.250095 -0.224474,0.411277 -0.0078,0.204193 -0.0014,0.408138 0.01137,0.617148 z m 3.296382,-19.704397 c 0.0029,-0.0016 0.0053,-0.0031 0.0073,-0.0045 -4.43e-4,3.18e-4 -0.0029,0.0018 -0.0073,0.0045 z"
         id="path8"
         style="fill:#ffffff;fill-rule:nonzero;fill-opacity:1" />
    </g>
  </g>
  <metadata
     id="metadata321">
    <rdf:RDF>
      <cc:Work
         rdf:about="">
        <dc:title>Broccoli tree</dc:title>
      </cc:Work>
    </rdf:RDF>
  </metadata>
</svg>
