<?xml version="1.0" encoding="UTF-8" standalone="no"?>
<svg
   data-name="Layer 1"
   viewBox="0 0 100 100"
   x="0px"
   y="0px"
   version="1.1"
   id="svg11908"
   sodipodi:docname="noun-box-1195216.svg"
   width="100"
   height="100"
   inkscape:version="1.2.2 (732a01da63, 2022-12-09)"
   xmlns:inkscape="http://www.inkscape.org/namespaces/inkscape"
   xmlns:sodipodi="http://sodipodi.sourceforge.net/DTD/sodipodi-0.dtd"
   xmlns="http://www.w3.org/2000/svg"
   xmlns:svg="http://www.w3.org/2000/svg"
   xmlns:rdf="http://www.w3.org/1999/02/22-rdf-syntax-ns#"
   xmlns:cc="http://creativecommons.org/ns#"
   xmlns:dc="http://purl.org/dc/elements/1.1/">
  <defs
     id="defs11912" />
  <sodipodi:namedview
     id="namedview11910"
     pagecolor="#ffffff"
     bordercolor="#000000"
     borderopacity="0.25"
     inkscape:showpageshadow="2"
     inkscape:pageopacity="0.0"
     inkscape:pagecheckerboard="0"
     inkscape:deskcolor="#d1d1d1"
     showgrid="false"
     inkscape:zoom="6.632"
     inkscape:cx="37.168275"
     inkscape:cy="38.44994"
     inkscape:window-width="1920"
     inkscape:window-height="1009"
     inkscape:window-x="-8"
     inkscape:window-y="-8"
     inkscape:window-maximized="1"
     inkscape:current-layer="svg11908" />
  <title
     id="title11900">Shopping icons</title>
  <path
     d="m 80.28,17.66 0.11,-0.18 A 1,1 0 0 0 79.14,16.15 0.91,0.91 0 0 0 78.68,16.04 C 64.95,16.41 51.19,15.67 37.47,16.43 a 0.61,0.61 0 0 0 -0.58,0.47 0.86,0.86 0 0 0 -0.42,0.23 C 30.29,23.35 24.18,29.69 18.29,36.19 v 0 a 0.64,0.64 0 0 0 -0.61,0.42 0.55,0.55 0 0 0 -0.72,0.53 c -0.22,14.83 -0.59,29.7 -0.35,44.53 a 0.92,0.92 0 0 0 0.1,0.41 0.84,0.84 0 0 0 0.56,1.44 c 15.59,0 31.24,0.61 46.82,0.35 a 1.07,1.07 0 0 0 1,-0.57 1.14,1.14 0 0 0 2.22,-0.36 c 0,-0.22 0,-0.44 0,-0.66 1.54,-2.23 2.71,-4.92 4,-7.22 2.83,-4.92 5.93,-9.74 8.63,-14.73 a 0.78,0.78 0 0 0 0,-0.77 c 0.27,-13.96 0.71,-27.94 0.34,-41.9 z m -42.5,0.77 a 0.83,0.83 0 0 0 0.25,-0.75 c 13.29,-0.36 26.61,1 39.88,0.31 -3.57,6.2 -8.15,11.74 -11.63,18 a 1,1 0 0 0 -0.17,0 C 50.68,35.1 34.88,35.83 19.42,36.21 25.67,30.41 31.78,24.45 37.77,18.42 Z M 64.93,81.9 A 1.11,1.11 0 0 0 64.06,81.51 C 48.85,81.25 33.59,81.78 18.37,81.85 a 0.89,0.89 0 0 0 0,-0.18 C 18.61,66.97 18.25,52.23 18.03,37.53 a 0.69,0.69 0 0 0 0.19,0 c 15.6,0.37 31.56,1.13 47.14,0.28 -0.56,14.65 -0.78,29.47 -0.43,44.09 z m 5.24,-8.12 c -1,1.8 -1.85,3.83 -2.85,5.74 0.27,-14 0,-28.07 -0.53,-42 v 0 C 70.44,31.15 75.35,25.64 79.21,19.42 79.04,32.8 77.89,46.19 78.43,59.57 75.26,63.93 72.77,69 70.16,73.78 Z"
     id="path11902"
     style="fill:#ffffff;fill-opacity:1;stroke:#ffffff;stroke-opacity:1" />
  <metadata
     id="metadata12031">
    <rdf:RDF>
      <cc:Work
         rdf:about="">
        <dc:title>Shopping icons</dc:title>
      </cc:Work>
    </rdf:RDF>
  </metadata>
</svg>
