<?xml version="1.0" encoding="UTF-8" standalone="no"?>
<!-- Created with Inkscape (http://www.inkscape.org/) -->

<svg
   width="100.0001mm"
   height="100.0001mm"
   viewBox="0 0 100.0001 100.0001"
   version="1.1"
   id="svg5"
   sodipodi:docname="notebook-paper.svg"
   inkscape:version="1.2.2 (732a01da63, 2022-12-09)"
   xmlns:inkscape="http://www.inkscape.org/namespaces/inkscape"
   xmlns:sodipodi="http://sodipodi.sourceforge.net/DTD/sodipodi-0.dtd"
   xmlns="http://www.w3.org/2000/svg"
   xmlns:svg="http://www.w3.org/2000/svg">
  <sodipodi:namedview
     id="namedview12"
     pagecolor="#ffffff"
     bordercolor="#000000"
     borderopacity="0.25"
     inkscape:showpageshadow="2"
     inkscape:pageopacity="0.0"
     inkscape:pagecheckerboard="0"
     inkscape:deskcolor="#d1d1d1"
     inkscape:document-units="mm"
     showgrid="false"
     inkscape:zoom="1.0966968"
     inkscape:cx="296.80035"
     inkscape:cy="80.240954"
     inkscape:window-width="1920"
     inkscape:window-height="1009"
     inkscape:window-x="-8"
     inkscape:window-y="-8"
     inkscape:window-maximized="1"
     inkscape:current-layer="svg5" />
  <defs
     id="defs2" />
  <g
     id="layer1">
    <path
       id="rect234"
       style="fill:#ffffff;fill-opacity:1;stroke-width:7.9375;stroke-linecap:round;stroke-linejoin:round"
       d="M 0,0 V 100.0001 H 100.0001 V 0 Z M 7.702889,4.4782796 A 3.7617612,3.7617612 0 0 1 11.464417,8.2398071 3.7617612,3.7617612 0 0 1 7.702889,12.001851 3.7617612,3.7617612 0 0 1 3.9408447,8.2398071 3.7617612,3.7617612 0 0 1 7.702889,4.4782796 Z m 0,13.7929564 A 3.7617612,3.7617612 0 0 1 11.464417,22.03328 3.7617612,3.7617612 0 0 1 7.702889,25.794808 3.7617612,3.7617612 0 0 1 3.9408447,22.03328 3.7617612,3.7617612 0 0 1 7.702889,18.271236 Z m 0,13.793473 a 3.7617612,3.7617612 0 0 1 3.761528,3.761528 3.7617612,3.7617612 0 0 1 -3.761528,3.762044 3.7617612,3.7617612 0 0 1 -3.7620443,-3.762044 3.7617612,3.7617612 0 0 1 3.7620443,-3.761528 z m 0,13.792957 a 3.7617612,3.7617612 0 0 1 3.761528,3.761528 3.7617612,3.7617612 0 0 1 -3.761528,3.762044 3.7617612,3.7617612 0 0 1 -3.7620443,-3.762044 3.7617612,3.7617612 0 0 1 3.7620443,-3.761528 z m 0,13.792957 a 3.7617612,3.7617612 0 0 1 3.761528,3.762044 3.7617612,3.7617612 0 0 1 -3.761528,3.761527 3.7617612,3.7617612 0 0 1 -3.7620443,-3.761527 3.7617612,3.7617612 0 0 1 3.7620443,-3.762044 z m 0,13.793473 a 3.7617612,3.7617612 0 0 1 3.761528,3.761527 3.7617612,3.7617612 0 0 1 -3.761528,3.762045 3.7617612,3.7617612 0 0 1 -3.7620443,-3.762045 3.7617612,3.7617612 0 0 1 3.7620443,-3.761527 z m 0,13.792956 A 3.7617612,3.7617612 0 0 1 11.464417,90.99858 3.7617612,3.7617612 0 0 1 7.702889,94.760624 3.7617612,3.7617612 0 0 1 3.9408447,90.99858 3.7617612,3.7617612 0 0 1 7.702889,87.237052 Z" />
    <path
       style="fill:#000000;fill-opacity:1;stroke:#50c4ed;stroke-width:0.79375;stroke-linecap:butt;stroke-linejoin:round;stroke-dasharray:none;stroke-opacity:1"
       d="M 1.85e-6,29.019301 H 99.999998"
       id="path1251-6" />
    <path
       style="fill:#000000;fill-opacity:1;stroke:#50c4ed;stroke-width:0.79375;stroke-linecap:butt;stroke-linejoin:round;stroke-dasharray:none;stroke-opacity:1"
       d="M -5e-7,42.633295 H 100"
       id="path1251-4" />
    <path
       style="fill:#000000;fill-opacity:1;stroke:#50c4ed;stroke-width:0.79375;stroke-linecap:butt;stroke-linejoin:round;stroke-dasharray:none;stroke-opacity:1"
       d="M 0,15.047044 H 100"
       id="path1251" />
    <path
       style="fill:#000000;fill-opacity:1;stroke:#50c4ed;stroke-width:0.79375;stroke-linecap:butt;stroke-linejoin:round;stroke-dasharray:none;stroke-opacity:1"
       d="M 1e-6,70.577808 H 99.999999"
       id="path1251-6-1" />
    <path
       style="fill:#000000;fill-opacity:1;stroke:#50c4ed;stroke-width:0.79375;stroke-linecap:butt;stroke-linejoin:round;stroke-dasharray:none;stroke-opacity:1"
       d="m -1e-6,84.191802 h 100"
       id="path1251-4-9" />
    <path
       style="fill:#000000;fill-opacity:1;stroke:#50c4ed;stroke-width:0.79375;stroke-linecap:butt;stroke-linejoin:round;stroke-dasharray:none;stroke-opacity:1"
       d="m -1e-6,56.605551 h 100"
       id="path1251-3" />
  </g>
</svg>
